<svg width="475" height="42" viewBox="0 0 475 42" fill="none" xmlns="http://www.w3.org/2000/svg">
<path d="M40.64 19.824L40.119 18.4174L35.1752 20.2484L40.3425 21.2942L40.64 19.824ZM47.244 22.892L46.1959 23.9651L46.2024 23.9714L46.2089 23.9776L47.244 22.892ZM44.592 37.556L45.257 38.9005L45.2628 38.8976L44.592 37.556ZM30.656 40L30.656 41.5L30.6646 41.5L30.656 40ZM0.132 40H-1.368V41.5H0.132V40ZM0.132 1.52V0.0199995H-1.368V1.52H0.132ZM33.048 1.52L33.0609 0.0199995H33.048V1.52ZM44.852 16.652L43.5992 15.827L43.5992 15.827L44.852 16.652ZM30.812 16.496L30.9419 17.9904L30.9701 17.9879L30.9981 17.9844L30.812 16.496ZM32.892 15.56L31.8996 14.4352L31.8826 14.4502L31.8661 14.4657L32.892 15.56ZM32.944 10.568L33.9318 9.43913L33.9318 9.43913L32.944 10.568ZM30.812 9.684L30.575 11.1652L30.6041 11.1698L30.6333 11.1733L30.812 9.684ZM12.144 9.476V7.976H10.644V9.476H12.144ZM12.144 16.548H10.644V18.048H12.144V16.548ZM19.216 16.6L19.1706 18.0993L19.1933 18.1H19.216V16.6ZM33.1 31.16L33.2598 32.6515L33.286 32.6487L33.3121 32.6449L33.1 31.16ZM35.44 30.12L36.468 31.2123L36.4846 31.1967L36.5007 31.1807L35.44 30.12ZM35.44 24.764L34.412 25.8563L34.4295 25.8728L34.4476 25.8888L35.44 24.764ZM33.1 23.776L32.8879 25.2609L32.914 25.2647L32.9402 25.2675L33.1 23.776ZM12.144 23.568V22.068H10.644V23.568H12.144ZM12.144 31.264H10.644V32.764H12.144V31.264ZM22.544 31.316L22.5186 32.8158L22.5313 32.816H22.544V31.316ZM40.3425 21.2942C43.0863 21.8495 44.9823 22.7797 46.1959 23.9651L48.2921 21.8189C46.5243 20.0923 44.0177 18.9772 40.9375 18.3538L40.3425 21.2942ZM46.2089 23.9776C47.3215 25.0384 47.98 26.6412 47.98 29.028H50.98C50.98 26.0761 50.1479 23.5882 48.2791 21.8064L46.2089 23.9776ZM47.98 29.028V29.236H50.98V29.028H47.98ZM47.98 29.236C47.98 30.9856 47.6174 32.3833 46.9647 33.4942C46.3158 34.5987 45.3266 35.5117 43.9212 36.2144L45.2628 38.8976C47.1161 37.971 48.5709 36.6826 49.5513 35.0138C50.528 33.3514 50.98 31.4037 50.98 29.236H47.98ZM43.927 36.2115C41.0017 37.6584 36.6226 38.4659 30.6474 38.5L30.6646 41.5C36.8227 41.4648 41.7344 40.6429 45.257 38.9005L43.927 36.2115ZM30.656 38.5H30.552V41.5H30.656V38.5ZM30.552 38.5H28.524V41.5H30.552V38.5ZM28.524 38.5H0.132V41.5H28.524V38.5ZM1.632 40V1.52H-1.368V40H1.632ZM0.132 3.02H33.048V0.0199995H0.132V3.02ZM33.0351 3.01994C36.8713 3.05301 39.7553 3.84689 41.8236 5.25572L43.5124 2.77628C40.7967 0.926436 37.2674 0.0563174 33.0609 0.0200552L33.0351 3.01994ZM41.8236 5.25572C43.7909 6.59578 44.756 8.42903 44.756 10.932H47.756C47.756 7.4723 46.3291 4.69489 43.5124 2.77628L41.8236 5.25572ZM44.756 10.932V11.14H47.756V10.932H44.756ZM44.756 11.14C44.756 13.1933 44.3294 14.7183 43.5992 15.827L46.1048 17.477C47.2466 15.743 47.756 13.5933 47.756 11.14H44.756ZM43.5992 15.827C42.868 16.9374 41.7449 17.8152 40.119 18.4174L41.161 21.2306C43.2791 20.4461 44.964 19.2092 46.1048 17.477L43.5992 15.827ZM27.016 18.1C28.7548 18.1 30.0754 18.0657 30.9419 17.9904L30.6821 15.0016C29.9539 15.065 28.7438 15.1 27.016 15.1V18.1ZM30.9981 17.9844C32.1106 17.8453 33.1082 17.4134 33.9179 16.6543L31.8661 14.4657C31.5665 14.7466 31.1774 14.9387 30.626 15.0076L30.9981 17.9844ZM33.8844 16.6848C34.9376 15.7555 35.276 14.3705 35.276 12.96H32.276C32.276 13.9761 32.0251 14.3245 31.8996 14.4352L33.8844 16.6848ZM35.276 12.96C35.276 11.6384 34.9474 10.3278 33.9318 9.43913L31.9562 11.6969C32.0499 11.7788 32.276 12.0629 32.276 12.96H35.276ZM33.9318 9.43913C33.1105 8.72054 32.1007 8.32788 30.9907 8.19468L30.6333 11.1733C31.2566 11.2481 31.6682 11.4448 31.9562 11.6969L33.9318 9.43913ZM31.049 8.20284C30.0628 8.04504 28.7024 7.976 27.016 7.976V10.976C28.6576 10.976 29.8279 11.0456 30.575 11.1652L31.049 8.20284ZM27.016 7.976H26.964V10.976H27.016V7.976ZM26.964 7.976H12.144V10.976H26.964V7.976ZM10.644 9.476V16.548H13.644V9.476H10.644ZM12.144 18.048C15.7191 18.048 18.0533 18.0655 19.1706 18.0993L19.2614 15.1007C18.0907 15.0652 15.7102 15.048 12.144 15.048V18.048ZM19.216 18.1H21.712V15.1H19.216V18.1ZM21.712 18.1H27.016V15.1H21.712V18.1ZM28.732 32.816C30.6855 32.816 32.2067 32.7643 33.2598 32.6515L32.9402 29.6685C32.052 29.7637 30.6612 29.816 28.732 29.816V32.816ZM33.3121 32.6449C34.5228 32.472 35.6096 32.0202 36.468 31.2123L34.412 29.0277C34.0917 29.3291 33.6185 29.5707 32.8879 29.6751L33.3121 32.6449ZM36.5007 31.1807C37.4846 30.1967 37.824 28.8141 37.824 27.364H34.824C34.824 28.4099 34.574 28.8647 34.3793 29.0593L36.5007 31.1807ZM37.824 27.364C37.824 25.9535 37.4856 24.5685 36.4324 23.6392L34.4476 25.8888C34.5731 25.9995 34.824 26.3479 34.824 27.364H37.824ZM36.468 23.6717C35.5946 22.8496 34.4867 22.416 33.2598 22.2845L32.9402 25.2675C33.6546 25.344 34.1068 25.5691 34.412 25.8563L36.468 23.6717ZM33.3121 22.2911C32.2325 22.1368 30.6898 22.068 28.732 22.068V25.068C30.6569 25.068 32.0262 25.1378 32.8879 25.2609L33.3121 22.2911ZM28.732 22.068H28.68V25.068H28.732V22.068ZM28.68 22.068H12.144V25.068H28.68V22.068ZM10.644 23.568V31.264H13.644V23.568H10.644ZM12.144 32.764C17.0319 32.764 20.4872 32.7814 22.5186 32.8158L22.5694 29.8162C20.5101 29.7813 17.0321 29.764 12.144 29.764V32.764ZM22.544 32.816C22.5481 32.816 22.5521 32.816 22.5562 32.816C22.5602 32.816 22.5643 32.816 22.5683 32.816C22.5724 32.816 22.5764 32.816 22.5805 32.816C22.5845 32.816 22.5886 32.816 22.5926 32.816C22.5967 32.816 22.6007 32.816 22.6048 32.816C22.6088 32.816 22.6128 32.816 22.6169 32.816C22.6209 32.816 22.6249 32.816 22.6289 32.816C22.633 32.816 22.637 32.816 22.641 32.816C22.645 32.816 22.6491 32.816 22.6531 32.816C22.6571 32.816 22.6611 32.816 22.6651 32.816C22.6691 32.816 22.6731 32.816 22.6772 32.816C22.6812 32.816 22.6852 32.816 22.6892 32.816C22.6932 32.816 22.6972 32.816 22.7012 32.816C22.7052 32.816 22.7092 32.816 22.7131 32.816C22.7171 32.816 22.7211 32.816 22.7251 32.816C22.7291 32.816 22.7331 32.816 22.7371 32.816C22.7411 32.816 22.745 32.816 22.749 32.816C22.753 32.816 22.757 32.816 22.7609 32.816C22.7649 32.816 22.7689 32.816 22.7728 32.816C22.7768 32.816 22.7808 32.816 22.7847 32.816C22.7887 32.816 22.7927 32.816 22.7966 32.816C22.8006 32.816 22.8045 32.816 22.8085 32.816C22.8124 32.816 22.8164 32.816 22.8203 32.816C22.8243 32.816 22.8282 32.816 22.8322 32.816C22.8361 32.816 22.84 32.816 22.844 32.816C22.8479 32.816 22.8518 32.816 22.8558 32.816C22.8597 32.816 22.8636 32.816 22.8676 32.816C22.8715 32.816 22.8754 32.816 22.8793 32.816C22.8833 32.816 22.8872 32.816 22.8911 32.816C22.895 32.816 22.8989 32.816 22.9028 32.816C22.9068 32.816 22.9107 32.816 22.9146 32.816C22.9185 32.816 22.9224 32.816 22.9263 32.816C22.9302 32.816 22.9341 32.816 22.938 32.816C22.9419 32.816 22.9458 32.816 22.9497 32.816C22.9536 32.816 22.9574 32.816 22.9613 32.816C22.9652 32.816 22.9691 32.816 22.973 32.816C22.9769 32.816 22.9807 32.816 22.9846 32.816C22.9885 32.816 22.9924 32.816 22.9962 32.816C23.0001 32.816 23.004 32.816 23.0078 32.816C23.0117 32.816 23.0156 32.816 23.0194 32.816C23.0233 32.816 23.0272 32.816 23.031 32.816C23.0349 32.816 23.0387 32.816 23.0426 32.816C23.0464 32.816 23.0503 32.816 23.0541 32.816C23.058 32.816 23.0618 32.816 23.0657 32.816C23.0695 32.816 23.0733 32.816 23.0772 32.816C23.081 32.816 23.0848 32.816 23.0887 32.816C23.0925 32.816 23.0963 32.816 23.1002 32.816C23.104 32.816 23.1078 32.816 23.1116 32.816C23.1155 32.816 23.1193 32.816 23.1231 32.816C23.1269 32.816 23.1307 32.816 23.1345 32.816C23.1383 32.816 23.1422 32.816 23.146 32.816C23.1498 32.816 23.1536 32.816 23.1574 32.816C23.1612 32.816 23.165 32.816 23.1688 32.816C23.1726 32.816 23.1764 32.816 23.1801 32.816C23.1839 32.816 23.1877 32.816 23.1915 32.816C23.1953 32.816 23.1991 32.816 23.2029 32.816C23.2066 32.816 23.2104 32.816 23.2142 32.816C23.218 32.816 23.2217 32.816 23.2255 32.816C23.2293 32.816 23.2331 32.816 23.2368 32.816C23.2406 32.816 23.2444 32.816 23.2481 32.816C23.2519 32.816 23.2556 32.816 23.2594 32.816C23.2631 32.816 23.2669 32.816 23.2707 32.816C23.2744 32.816 23.2782 32.816 23.2819 32.816C23.2856 32.816 23.2894 32.816 23.2931 32.816C23.2969 32.816 23.3006 32.816 23.3043 32.816C23.3081 32.816 23.3118 32.816 23.3155 32.816C23.3193 32.816 23.323 32.816 23.3267 32.816C23.3305 32.816 23.3342 32.816 23.3379 32.816C23.3416 32.816 23.3453 32.816 23.3491 32.816C23.3528 32.816 23.3565 32.816 23.3602 32.816C23.3639 32.816 23.3676 32.816 23.3713 32.816C23.375 32.816 23.3787 32.816 23.3824 32.816C23.3861 32.816 23.3898 32.816 23.3935 32.816C23.3972 32.816 23.4009 32.816 23.4046 32.816C23.4083 32.816 23.412 32.816 23.4157 32.816C23.4193 32.816 23.423 32.816 23.4267 32.816C23.4304 32.816 23.4341 32.816 23.4377 32.816C23.4414 32.816 23.4451 32.816 23.4488 32.816C23.4524 32.816 23.4561 32.816 23.4598 32.816C23.4634 32.816 23.4671 32.816 23.4708 32.816C23.4744 32.816 23.4781 32.816 23.4817 32.816C23.4854 32.816 23.489 32.816 23.4927 32.816C23.4963 32.816 23.5 32.816 23.5036 32.816C23.5073 32.816 23.5109 32.816 23.5146 32.816C23.5182 32.816 23.5218 32.816 23.5255 32.816C23.5291 32.816 23.5327 32.816 23.5364 32.816C23.54 32.816 23.5436 32.816 23.5473 32.816C23.5509 32.816 23.5545 32.816 23.5581 32.816C23.5617 32.816 23.5654 32.816 23.569 32.816C23.5726 32.816 23.5762 32.816 23.5798 32.816C23.5834 32.816 23.587 32.816 23.5906 32.816C23.5942 32.816 23.5979 32.816 23.6015 32.816C23.6051 32.816 23.6086 32.816 23.6122 32.816C23.6158 32.816 23.6194 32.816 23.623 32.816C23.6266 32.816 23.6302 32.816 23.6338 32.816C23.6374 32.816 23.641 32.816 23.6445 32.816C23.6481 32.816 23.6517 32.816 23.6553 32.816C23.6588 32.816 23.6624 32.816 23.666 32.816C23.6696 32.816 23.6731 32.816 23.6767 32.816C23.6803 32.816 23.6838 32.816 23.6874 32.816C23.6909 32.816 23.6945 32.816 23.698 32.816C23.7016 32.816 23.7052 32.816 23.7087 32.816C23.7123 32.816 23.7158 32.816 23.7193 32.816C23.7229 32.816 23.7264 32.816 23.73 32.816C23.7335 32.816 23.737 32.816 23.7406 32.816C23.7441 32.816 23.7477 32.816 23.7512 32.816C23.7547 32.816 23.7582 32.816 23.7618 32.816C23.7653 32.816 23.7688 32.816 23.7723 32.816C23.7758 32.816 23.7794 32.816 23.7829 32.816C23.7864 32.816 23.7899 32.816 23.7934 32.816C23.7969 32.816 23.8004 32.816 23.8039 32.816C23.8074 32.816 23.8109 32.816 23.8144 32.816C23.8179 32.816 23.8214 32.816 23.8249 32.816C23.8284 32.816 23.8319 32.816 23.8354 32.816C23.8389 32.816 23.8424 32.816 23.8459 32.816C23.8494 32.816 23.8528 32.816 23.8563 32.816C23.8598 32.816 23.8633 32.816 23.8668 32.816C23.8702 32.816 23.8737 32.816 23.8772 32.816C23.8806 32.816 23.8841 32.816 23.8876 32.816C23.891 32.816 23.8945 32.816 23.898 32.816C23.9014 32.816 23.9049 32.816 23.9083 32.816C23.9118 32.816 23.9152 32.816 23.9187 32.816C23.9221 32.816 23.9256 32.816 23.929 32.816C23.9325 32.816 23.9359 32.816 23.9393 32.816C23.9428 32.816 23.9462 32.816 23.9497 32.816C23.9531 32.816 23.9565 32.816 23.96 32.816C23.9634 32.816 23.9668 32.816 23.9702 32.816C23.9737 32.816 23.9771 32.816 23.9805 32.816C23.9839 32.816 23.9873 32.816 23.9908 32.816C23.9942 32.816 23.9976 32.816 24.001 32.816C24.0044 32.816 24.0078 32.816 24.0112 32.816C24.0146 32.816 24.018 32.816 24.0214 32.816C24.0248 32.816 24.0282 32.816 24.0316 32.816C24.035 32.816 24.0384 32.816 24.0418 32.816C24.0452 32.816 24.0486 32.816 24.0519 32.816C24.0553 32.816 24.0587 32.816 24.0621 32.816C24.0655 32.816 24.0688 32.816 24.0722 32.816C24.0756 32.816 24.079 32.816 24.0823 32.816C24.0857 32.816 24.0891 32.816 24.0924 32.816C24.0958 32.816 24.0992 32.816 24.1025 32.816C24.1059 32.816 24.1092 32.816 24.1126 32.816C24.1159 32.816 24.1193 32.816 24.1226 32.816C24.126 32.816 24.1293 32.816 24.1327 32.816C24.136 32.816 24.1394 32.816 24.1427 32.816C24.146 32.816 24.1494 32.816 24.1527 32.816C24.156 32.816 24.1594 32.816 24.1627 32.816C24.166 32.816 24.1694 32.816 24.1727 32.816C24.176 32.816 24.1793 32.816 24.1826 32.816C24.186 32.816 24.1893 32.816 24.1926 32.816C24.1959 32.816 24.1992 32.816 24.2025 32.816C24.2058 32.816 24.2091 32.816 24.2124 32.816C24.2157 32.816 24.219 32.816 24.2223 32.816C24.2256 32.816 24.2289 32.816 24.2322 32.816C24.2355 32.816 24.2388 32.816 24.2421 32.816C24.2454 32.816 24.2487 32.816 24.252 32.816C24.2553 32.816 24.2585 32.816 24.2618 32.816C24.2651 32.816 24.2684 32.816 24.2716 32.816C24.2749 32.816 24.2782 32.816 24.2815 32.816C24.2847 32.816 24.288 32.816 24.2912 32.816C24.2945 32.816 24.2978 32.816 24.301 32.816C24.3043 32.816 24.3075 32.816 24.3108 32.816C24.3141 32.816 24.3173 32.816 24.3206 32.816C24.3238 32.816 24.327 32.816 24.3303 32.816C24.3335 32.816 24.3368 32.816 24.34 32.816C24.3433 32.816 24.3465 32.816 24.3497 32.816C24.353 32.816 24.3562 32.816 24.3594 32.816C24.3626 32.816 24.3659 32.816 24.3691 32.816C24.3723 32.816 24.3755 32.816 24.3788 32.816C24.382 32.816 24.3852 32.816 24.3884 32.816C24.3916 32.816 24.3948 32.816 24.398 32.816C24.4012 32.816 24.4044 32.816 24.4076 32.816C24.4109 32.816 24.4141 32.816 24.4173 32.816C24.4204 32.816 24.4236 32.816 24.4268 32.816C24.43 32.816 24.4332 32.816 24.4364 32.816C24.4396 32.816 24.4428 32.816 24.446 32.816C24.4492 32.816 24.4523 32.816 24.4555 32.816C24.4587 32.816 24.4619 32.816 24.465 32.816C24.4682 32.816 24.4714 32.816 24.4745 32.816C24.4777 32.816 24.4809 32.816 24.484 32.816C24.4872 32.816 24.4904 32.816 24.4935 32.816C24.4967 32.816 24.4998 32.816 24.503 32.816C24.5061 32.816 24.5093 32.816 24.5124 32.816C24.5156 32.816 24.5187 32.816 24.5219 32.816C24.525 32.816 24.5282 32.816 24.5313 32.816C24.5344 32.816 24.5376 32.816 24.5407 32.816C24.5438 32.816 24.547 32.816 24.5501 32.816C24.5532 32.816 24.5563 32.816 24.5595 32.816C24.5626 32.816 24.5657 32.816 24.5688 32.816C24.572 32.816 24.5751 32.816 24.5782 32.816C24.5813 32.816 24.5844 32.816 24.5875 32.816C24.5906 32.816 24.5937 32.816 24.5968 32.816C24.5999 32.816 24.603 32.816 24.6061 32.816C24.6092 32.816 24.6123 32.816 24.6154 32.816C24.6185 32.816 24.6216 32.816 24.6247 32.816C24.6278 32.816 24.6309 32.816 24.6339 32.816C24.637 32.816 24.6401 32.816 24.6432 32.816C24.6463 32.816 24.6493 32.816 24.6524 32.816C24.6555 32.816 24.6585 32.816 24.6616 32.816C24.6647 32.816 24.6677 32.816 24.6708 32.816C24.6739 32.816 24.6769 32.816 24.68 32.816C24.683 32.816 24.6861 32.816 24.6892 32.816C24.6922 32.816 24.6953 32.816 24.6983 32.816C24.7013 32.816 24.7044 32.816 24.7074 32.816C24.7105 32.816 24.7135 32.816 24.7166 32.816C24.7196 32.816 24.7226 32.816 24.7257 32.816C24.7287 32.816 24.7317 32.816 24.7348 32.816C24.7378 32.816 24.7408 32.816 24.7438 32.816C24.7468 32.816 24.7499 32.816 24.7529 32.816C24.7559 32.816 24.7589 32.816 24.7619 32.816C24.7649 32.816 24.7679 32.816 24.771 32.816C24.774 32.816 24.777 32.816 24.78 32.816C24.783 32.816 24.786 32.816 24.789 32.816C24.792 32.816 24.795 32.816 24.798 32.816C24.8009 32.816 24.8039 32.816 24.8069 32.816C24.8099 32.816 24.8129 32.816 24.8159 32.816C24.8189 32.816 24.8218 32.816 24.8248 32.816C24.8278 32.816 24.8308 32.816 24.8337 32.816C24.8367 32.816 24.8397 32.816 24.8426 32.816C24.8456 32.816 24.8486 32.816 24.8515 32.816C24.8545 32.816 24.8575 32.816 24.8604 32.816C24.8634 32.816 24.8663 32.816 24.8693 32.816C24.8722 32.816 24.8752 32.816 24.8781 32.816C24.8811 32.816 24.884 32.816 24.887 32.816C24.8899 32.816 24.8928 32.816 24.8958 32.816C24.8987 32.816 24.9017 32.816 24.9046 32.816C24.9075 32.816 24.9104 32.816 24.9134 32.816C24.9163 32.816 24.9192 32.816 24.9221 32.816C24.9251 32.816 24.928 32.816 24.9309 32.816C24.9338 32.816 24.9367 32.816 24.9396 32.816C24.9426 32.816 24.9455 32.816 24.9484 32.816C24.9513 32.816 24.9542 32.816 24.9571 32.816C24.96 32.816 24.9629 32.816 24.9658 32.816C24.9687 32.816 24.9716 32.816 24.9745 32.816C24.9774 32.816 24.9802 32.816 24.9831 32.816C24.986 32.816 24.9889 32.816 24.9918 32.816C24.9947 32.816 24.9975 32.816 25.0004 32.816C25.0033 32.816 25.0062 32.816 25.009 32.816C25.0119 32.816 25.0148 32.816 25.0177 32.816C25.0205 32.816 25.0234 32.816 25.0262 32.816C25.0291 32.816 25.032 32.816 25.0348 32.816C25.0377 32.816 25.0405 32.816 25.0434 32.816C25.0462 32.816 25.0491 32.816 25.0519 32.816C25.0548 32.816 25.0576 32.816 25.0605 32.816C25.0633 32.816 25.0661 32.816 25.069 32.816C25.0718 32.816 25.0746 32.816 25.0775 32.816C25.0803 32.816 25.0831 32.816 25.086 32.816C25.0888 32.816 25.0916 32.816 25.0944 32.816C25.0973 32.816 25.1001 32.816 25.1029 32.816C25.1057 32.816 25.1085 32.816 25.1113 32.816C25.1141 32.816 25.117 32.816 25.1198 32.816C25.1226 32.816 25.1254 32.816 25.1282 32.816C25.131 32.816 25.1338 32.816 25.1366 32.816C25.1394 32.816 25.1422 32.816 25.1449 32.816C25.1477 32.816 25.1505 32.816 25.1533 32.816C25.1561 32.816 25.1589 32.816 25.1617 32.816C25.1644 32.816 25.1672 32.816 25.17 32.816C25.1728 32.816 25.1756 32.816 25.1783 32.816C25.1811 32.816 25.1839 32.816 25.1866 32.816C25.1894 32.816 25.1922 32.816 25.1949 32.816C25.1977 32.816 25.2004 32.816 25.2032 32.816C25.2059 32.816 25.2087 32.816 25.2115 32.816C25.2142 32.816 25.217 32.816 25.2197 32.816C25.2224 32.816 25.2252 32.816 25.2279 32.816C25.2307 32.816 25.2334 32.816 25.2361 32.816C25.2389 32.816 25.2416 32.816 25.2443 32.816C25.2471 32.816 25.2498 32.816 25.2525 32.816C25.2553 32.816 25.258 32.816 25.2607 32.816C25.2634 32.816 25.2661 32.816 25.2689 32.816C25.2716 32.816 25.2743 32.816 25.277 32.816C25.2797 32.816 25.2824 32.816 25.2851 32.816C25.2878 32.816 25.2905 32.816 25.2932 32.816C25.2959 32.816 25.2986 32.816 25.3013 32.816C25.304 32.816 25.3067 32.816 25.3094 32.816C25.3121 32.816 25.3148 32.816 25.3175 32.816C25.3202 32.816 25.3228 32.816 25.3255 32.816C25.3282 32.816 25.3309 32.816 25.3335 32.816C25.3362 32.816 25.3389 32.816 25.3416 32.816C25.3442 32.816 25.3469 32.816 25.3496 32.816C25.3522 32.816 25.3549 32.816 25.3576 32.816C25.3602 32.816 25.3629 32.816 25.3655 32.816C25.3682 32.816 25.3708 32.816 25.3735 32.816C25.3761 32.816 25.3788 32.816 25.3814 32.816C25.3841 32.816 25.3867 32.816 25.3894 32.816C25.392 32.816 25.3946 32.816 25.3973 32.816C25.3999 32.816 25.4025 32.816 25.4052 32.816C25.4078 32.816 25.4104 32.816 25.4131 32.816C25.4157 32.816 25.4183 32.816 25.4209 32.816C25.4235 32.816 25.4262 32.816 25.4288 32.816C25.4314 32.816 25.434 32.816 25.4366 32.816C25.4392 32.816 25.4418 32.816 25.4444 32.816C25.447 32.816 25.4497 32.816 25.4523 32.816C25.4549 32.816 25.4574 32.816 25.46 32.816C25.4626 32.816 25.4652 32.816 25.4678 32.816C25.4704 32.816 25.473 32.816 25.4756 32.816C25.4782 32.816 25.4808 32.816 25.4833 32.816C25.4859 32.816 25.4885 32.816 25.4911 32.816C25.4936 32.816 25.4962 32.816 25.4988 32.816C25.5014 32.816 25.5039 32.816 25.5065 32.816C25.5091 32.816 25.5116 32.816 25.5142 32.816C25.5167 32.816 25.5193 32.816 25.5218 32.816C25.5244 32.816 25.527 32.816 25.5295 32.816C25.5321 32.816 25.5346 32.816 25.5371 32.816C25.5397 32.816 25.5422 32.816 25.5448 32.816C25.5473 32.816 25.5498 32.816 25.5524 32.816C25.5549 32.816 25.5575 32.816 25.56 32.816C25.5625 32.816 25.565 32.816 25.5676 32.816C25.5701 32.816 25.5726 32.816 25.5751 32.816C25.5776 32.816 25.5802 32.816 25.5827 32.816C25.5852 32.816 25.5877 32.816 25.5902 32.816C25.5927 32.816 25.5952 32.816 25.5977 32.816C25.6002 32.816 25.6027 32.816 25.6052 32.816C25.6077 32.816 25.6102 32.816 25.6127 32.816C25.6152 32.816 25.6177 32.816 25.6202 32.816C25.6227 32.816 25.6252 32.816 25.6277 32.816C25.6302 32.816 25.6326 32.816 25.6351 32.816C25.6376 32.816 25.6401 32.816 25.6426 32.816C25.645 32.816 25.6475 32.816 25.65 32.816C25.6524 32.816 25.6549 32.816 25.6574 32.816C25.6598 32.816 25.6623 32.816 25.6648 32.816C25.6672 32.816 25.6697 32.816 25.6721 32.816C25.6746 32.816 25.677 32.816 25.6795 32.816C25.6819 32.816 25.6844 32.816 25.6868 32.816C25.6893 32.816 25.6917 32.816 25.6941 32.816C25.6966 32.816 25.699 32.816 25.7015 32.816C25.7039 32.816 25.7063 32.816 25.7088 32.816C25.7112 32.816 25.7136 32.816 25.716 32.816C25.7185 32.816 25.7209 32.816 25.7233 32.816C25.7257 32.816 25.7281 32.816 25.7305 32.816C25.733 32.816 25.7354 32.816 25.7378 32.816C25.7402 32.816 25.7426 32.816 25.745 32.816C25.7474 32.816 25.7498 32.816 25.7522 32.816C25.7546 32.816 25.757 32.816 25.7594 32.816C25.7618 32.816 25.7642 32.816 25.7666 32.816C25.769 32.816 25.7714 32.816 25.7737 32.816C25.7761 32.816 25.7785 32.816 25.7809 32.816C25.7833 32.816 25.7856 32.816 25.788 32.816C25.7904 32.816 25.7928 32.816 25.7951 32.816C25.7975 32.816 25.7999 32.816 25.8022 32.816C25.8046 32.816 25.8069 32.816 25.8093 32.816C25.8117 32.816 25.814 32.816 25.8164 32.816C25.8187 32.816 25.8211 32.816 25.8234 32.816C25.8258 32.816 25.8281 32.816 25.8305 32.816C25.8328 32.816 25.8352 32.816 25.8375 32.816C25.8398 32.816 25.8422 32.816 25.8445 32.816C25.8468 32.816 25.8492 32.816 25.8515 32.816C25.8538 32.816 25.8562 32.816 25.8585 32.816C25.8608 32.816 25.8631 32.816 25.8654 32.816C25.8678 32.816 25.8701 32.816 25.8724 32.816C25.8747 32.816 25.877 32.816 25.8793 32.816C25.8816 32.816 25.8839 32.816 25.8862 32.816C25.8885 32.816 25.8908 32.816 25.8931 32.816C25.8954 32.816 25.8977 32.816 25.9 32.816C25.9023 32.816 25.9046 32.816 25.9069 32.816C25.9092 32.816 25.9115 32.816 25.9138 32.816C25.916 32.816 25.9183 32.816 25.9206 32.816C25.9229 32.816 25.9252 32.816 25.9274 32.816C25.9297 32.816 25.932 32.816 25.9342 32.816C25.9365 32.816 25.9388 32.816 25.941 32.816C25.9433 32.816 25.9456 32.816 25.9478 32.816C25.9501 32.816 25.9523 32.816 25.9546 32.816C25.9568 32.816 25.9591 32.816 25.9613 32.816C25.9636 32.816 25.9658 32.816 25.9681 32.816C25.9703 32.816 25.9726 32.816 25.9748 32.816C25.977 32.816 25.9793 32.816 25.9815 32.816C25.9838 32.816 25.986 32.816 25.9882 32.816C25.9904 32.816 25.9927 32.816 25.9949 32.816C25.9971 32.816 25.9993 32.816 26.0015 32.816C26.0038 32.816 26.006 32.816 26.0082 32.816C26.0104 32.816 26.0126 32.816 26.0148 32.816C26.017 32.816 26.0192 32.816 26.0214 32.816C26.0236 32.816 26.0258 32.816 26.028 32.816C26.0302 32.816 26.0324 32.816 26.0346 32.816C26.0368 32.816 26.039 32.816 26.0412 32.816C26.0434 32.816 26.0456 32.816 26.0478 32.816C26.0499 32.816 26.0521 32.816 26.0543 32.816C26.0565 32.816 26.0587 32.816 26.0608 32.816C26.063 32.816 26.0652 32.816 26.0673 32.816C26.0695 32.816 26.0717 32.816 26.0738 32.816C26.076 32.816 26.0782 32.816 26.0803 32.816C26.0825 32.816 26.0846 32.816 26.0868 32.816C26.0889 32.816 26.0911 32.816 26.0932 32.816C26.0954 32.816 26.0975 32.816 26.0997 32.816C26.1018 32.816 26.104 32.816 26.1061 32.816C26.1082 32.816 26.1104 32.816 26.1125 32.816C26.1146 32.816 26.1168 32.816 26.1189 32.816C26.121 32.816 26.1231 32.816 26.1253 32.816C26.1274 32.816 26.1295 32.816 26.1316 32.816C26.1337 32.816 26.1359 32.816 26.138 32.816C26.1401 32.816 26.1422 32.816 26.1443 32.816C26.1464 32.816 26.1485 32.816 26.1506 32.816C26.1527 32.816 26.1548 32.816 26.1569 32.816C26.159 32.816 26.1611 32.816 26.1632 32.816C26.1653 32.816 26.1674 32.816 26.1695 32.816C26.1716 32.816 26.1736 32.816 26.1757 32.816C26.1778 32.816 26.1799 32.816 26.182 32.816C26.184 32.816 26.1861 32.816 26.1882 32.816C26.1903 32.816 26.1923 32.816 26.1944 32.816C26.1965 32.816 26.1985 32.816 26.2006 32.816C26.2027 32.816 26.2047 32.816 26.2068 32.816C26.2088 32.816 26.2109 32.816 26.2129 32.816C26.215 32.816 26.217 32.816 26.2191 32.816C26.2211 32.816 26.2232 32.816 26.2252 32.816C26.2273 32.816 26.2293 32.816 26.2313 32.816C26.2334 32.816 26.2354 32.816 26.2375 32.816C26.2395 32.816 26.2415 32.816 26.2435 32.816C26.2456 32.816 26.2476 32.816 26.2496 32.816C26.2516 32.816 26.2537 32.816 26.2557 32.816C26.2577 32.816 26.2597 32.816 26.2617 32.816C26.2637 32.816 26.2657 32.816 26.2678 32.816C26.2698 32.816 26.2718 32.816 26.2738 32.816C26.2758 32.816 26.2778 32.816 26.2798 32.816C26.2818 32.816 26.2838 32.816 26.2857 32.816C26.2877 32.816 26.2897 32.816 26.2917 32.816C26.2937 32.816 26.2957 32.816 26.2977 32.816C26.2997 32.816 26.3016 32.816 26.3036 32.816C26.3056 32.816 26.3076 32.816 26.3095 32.816C26.3115 32.816 26.3135 32.816 26.3154 32.816C26.3174 32.816 26.3194 32.816 26.3213 32.816C26.3233 32.816 26.3253 32.816 26.3272 32.816C26.3292 32.816 26.3311 32.816 26.3331 32.816C26.335 32.816 26.337 32.816 26.3389 32.816C26.3409 32.816 26.3428 32.816 26.3448 32.816C26.3467 32.816 26.3486 32.816 26.3506 32.816C26.3525 32.816 26.3544 32.816 26.3564 32.816C26.3583 32.816 26.3602 32.816 26.3622 32.816C26.3641 32.816 26.366 32.816 26.3679 32.816C26.3699 32.816 26.3718 32.816 26.3737 32.816C26.3756 32.816 26.3775 32.816 26.3794 32.816C26.3814 32.816 26.3833 32.816 26.3852 32.816C26.3871 32.816 26.389 32.816 26.3909 32.816C26.3928 32.816 26.3947 32.816 26.3966 32.816C26.3985 32.816 26.4004 32.816 26.4023 32.816C26.4042 32.816 26.406 32.816 26.4079 32.816C26.4098 32.816 26.4117 32.816 26.4136 32.816C26.4155 32.816 26.4173 32.816 26.4192 32.816C26.4211 32.816 26.423 32.816 26.4248 32.816C26.4267 32.816 26.4286 32.816 26.4304 32.816C26.4323 32.816 26.4342 32.816 26.436 32.816C26.4379 32.816 26.4398 32.816 26.4416 32.816C26.4435 32.816 26.4453 32.816 26.4472 32.816C26.449 32.816 26.4509 32.816 26.4527 32.816C26.4546 32.816 26.4564 32.816 26.4583 32.816C26.4601 32.816 26.4619 32.816 26.4638 32.816C26.4656 32.816 26.4674 32.816 26.4693 32.816C26.4711 32.816 26.4729 32.816 26.4748 32.816C26.4766 32.816 26.4784 32.816 26.4802 32.816C26.482 32.816 26.4839 32.816 26.4857 32.816C26.4875 32.816 26.4893 32.816 26.4911 32.816C26.4929 32.816 26.4947 32.816 26.4966 32.816C26.4984 32.816 26.5002 32.816 26.502 32.816C26.5038 32.816 26.5056 32.816 26.5074 32.816C26.5092 32.816 26.5109 32.816 26.5127 32.816C26.5145 32.816 26.5163 32.816 26.5181 32.816C26.5199 32.816 26.5217 32.816 26.5235 32.816C26.5252 32.816 26.527 32.816 26.5288 32.816C26.5306 32.816 26.5323 32.816 26.5341 32.816C26.5359 32.816 26.5377 32.816 26.5394 32.816C26.5412 32.816 26.5429 32.816 26.5447 32.816C26.5465 32.816 26.5482 32.816 26.55 32.816C26.5517 32.816 26.5535 32.816 26.5552 32.816C26.557 32.816 26.5587 32.816 26.5605 32.816C26.5622 32.816 26.564 32.816 26.5657 32.816C26.5675 32.816 26.5692 32.816 26.5709 32.816C26.5727 32.816 26.5744 32.816 26.5761 32.816C26.5779 32.816 26.5796 32.816 26.5813 32.816C26.583 32.816 26.5848 32.816 26.5865 32.816C26.5882 32.816 26.5899 32.816 26.5916 32.816C26.5934 32.816 26.5951 32.816 26.5968 32.816C26.5985 32.816 26.6002 32.816 26.6019 32.816C26.6036 32.816 26.6053 32.816 26.607 32.816C26.6087 32.816 26.6104 32.816 26.6121 32.816C26.6138 32.816 26.6155 32.816 26.6172 32.816C26.6189 32.816 26.6206 32.816 26.6223 32.816C26.6239 32.816 26.6256 32.816 26.6273 32.816C26.629 32.816 26.6307 32.816 26.6323 32.816C26.634 32.816 26.6357 32.816 26.6374 32.816C26.639 32.816 26.6407 32.816 26.6424 32.816C26.644 32.816 26.6457 32.816 26.6473 32.816C26.649 32.816 26.6507 32.816 26.6523 32.816C26.654 32.816 26.6556 32.816 26.6573 32.816C26.6589 32.816 26.6606 32.816 26.6622 32.816C26.6639 32.816 26.6655 32.816 26.6672 32.816C26.6688 32.816 26.6704 32.816 26.6721 32.816C26.6737 32.816 26.6753 32.816 26.677 32.816C26.6786 32.816 26.6802 32.816 26.6818 32.816C26.6835 32.816 26.6851 32.816 26.6867 32.816C26.6883 32.816 26.69 32.816 26.6916 32.816C26.6932 32.816 26.6948 32.816 26.6964 32.816C26.698 32.816 26.6996 32.816 26.7012 32.816C26.7028 32.816 26.7044 32.816 26.706 32.816C26.7076 32.816 26.7092 32.816 26.7108 32.816C26.7124 32.816 26.714 32.816 26.7156 32.816C26.7172 32.816 26.7188 32.816 26.7204 32.816C26.722 32.816 26.7235 32.816 26.7251 32.816C26.7267 32.816 26.7283 32.816 26.7299 32.816C26.7314 32.816 26.733 32.816 26.7346 32.816C26.7361 32.816 26.7377 32.816 26.7393 32.816C26.7408 32.816 26.7424 32.816 26.744 32.816C26.7455 32.816 26.7471 32.816 26.7486 32.816C26.7502 32.816 26.7517 32.816 26.7533 32.816C26.7548 32.816 26.7564 32.816 26.7579 32.816C26.7595 32.816 26.761 32.816 26.7626 32.816C26.7641 32.816 26.7656 32.816 26.7672 32.816C26.7687 32.816 26.7702 32.816 26.7718 32.816C26.7733 32.816 26.7748 32.816 26.7764 32.816C26.7779 32.816 26.7794 32.816 26.7809 32.816C26.7824 32.816 26.784 32.816 26.7855 32.816C26.787 32.816 26.7885 32.816 26.79 32.816C26.7915 32.816 26.793 32.816 26.7945 32.816C26.796 32.816 26.7975 32.816 26.799 32.816C26.8005 32.816 26.802 32.816 26.8035 32.816C26.805 32.816 26.8065 32.816 26.808 32.816V29.816C26.8065 29.816 26.805 29.816 26.8035 29.816C26.802 29.816 26.8005 29.816 26.799 29.816C26.7975 29.816 26.796 29.816 26.7945 29.816C26.793 29.816 26.7915 29.816 26.79 29.816C26.7885 29.816 26.787 29.816 26.7855 29.816C26.784 29.816 26.7824 29.816 26.7809 29.816C26.7794 29.816 26.7779 29.816 26.7764 29.816C26.7748 29.816 26.7733 29.816 26.7718 29.816C26.7702 29.816 26.7687 29.816 26.7672 29.816C26.7656 29.816 26.7641 29.816 26.7626 29.816C26.761 29.816 26.7595 29.816 26.7579 29.816C26.7564 29.816 26.7548 29.816 26.7533 29.816C26.7517 29.816 26.7502 29.816 26.7486 29.816C26.7471 29.816 26.7455 29.816 26.744 29.816C26.7424 29.816 26.7408 29.816 26.7393 29.816C26.7377 29.816 26.7361 29.816 26.7346 29.816C26.733 29.816 26.7314 29.816 26.7299 29.816C26.7283 29.816 26.7267 29.816 26.7251 29.816C26.7235 29.816 26.722 29.816 26.7204 29.816C26.7188 29.816 26.7172 29.816 26.7156 29.816C26.714 29.816 26.7124 29.816 26.7108 29.816C26.7092 29.816 26.7076 29.816 26.706 29.816C26.7044 29.816 26.7028 29.816 26.7012 29.816C26.6996 29.816 26.698 29.816 26.6964 29.816C26.6948 29.816 26.6932 29.816 26.6916 29.816C26.69 29.816 26.6883 29.816 26.6867 29.816C26.6851 29.816 26.6835 29.816 26.6818 29.816C26.6802 29.816 26.6786 29.816 26.677 29.816C26.6753 29.816 26.6737 29.816 26.6721 29.816C26.6704 29.816 26.6688 29.816 26.6672 29.816C26.6655 29.816 26.6639 29.816 26.6622 29.816C26.6606 29.816 26.6589 29.816 26.6573 29.816C26.6556 29.816 26.654 29.816 26.6523 29.816C26.6507 29.816 26.649 29.816 26.6473 29.816C26.6457 29.816 26.644 29.816 26.6424 29.816C26.6407 29.816 26.639 29.816 26.6374 29.816C26.6357 29.816 26.634 29.816 26.6323 29.816C26.6307 29.816 26.629 29.816 26.6273 29.816C26.6256 29.816 26.6239 29.816 26.6223 29.816C26.6206 29.816 26.6189 29.816 26.6172 29.816C26.6155 29.816 26.6138 29.816 26.6121 29.816C26.6104 29.816 26.6087 29.816 26.607 29.816C26.6053 29.816 26.6036 29.816 26.6019 29.816C26.6002 29.816 26.5985 29.816 26.5968 29.816C26.5951 29.816 26.5934 29.816 26.5916 29.816C26.5899 29.816 26.5882 29.816 26.5865 29.816C26.5848 29.816 26.583 29.816 26.5813 29.816C26.5796 29.816 26.5779 29.816 26.5761 29.816C26.5744 29.816 26.5727 29.816 26.5709 29.816C26.5692 29.816 26.5675 29.816 26.5657 29.816C26.564 29.816 26.5622 29.816 26.5605 29.816C26.5587 29.816 26.557 29.816 26.5552 29.816C26.5535 29.816 26.5517 29.816 26.55 29.816C26.5482 29.816 26.5465 29.816 26.5447 29.816C26.5429 29.816 26.5412 29.816 26.5394 29.816C26.5377 29.816 26.5359 29.816 26.5341 29.816C26.5323 29.816 26.5306 29.816 26.5288 29.816C26.527 29.816 26.5252 29.816 26.5235 29.816C26.5217 29.816 26.5199 29.816 26.5181 29.816C26.5163 29.816 26.5145 29.816 26.5127 29.816C26.5109 29.816 26.5092 29.816 26.5074 29.816C26.5056 29.816 26.5038 29.816 26.502 29.816C26.5002 29.816 26.4984 29.816 26.4966 29.816C26.4947 29.816 26.4929 29.816 26.4911 29.816C26.4893 29.816 26.4875 29.816 26.4857 29.816C26.4839 29.816 26.482 29.816 26.4802 29.816C26.4784 29.816 26.4766 29.816 26.4748 29.816C26.4729 29.816 26.4711 29.816 26.4693 29.816C26.4674 29.816 26.4656 29.816 26.4638 29.816C26.4619 29.816 26.4601 29.816 26.4583 29.816C26.4564 29.816 26.4546 29.816 26.4527 29.816C26.4509 29.816 26.449 29.816 26.4472 29.816C26.4453 29.816 26.4435 29.816 26.4416 29.816C26.4398 29.816 26.4379 29.816 26.436 29.816C26.4342 29.816 26.4323 29.816 26.4304 29.816C26.4286 29.816 26.4267 29.816 26.4248 29.816C26.423 29.816 26.4211 29.816 26.4192 29.816C26.4173 29.816 26.4155 29.816 26.4136 29.816C26.4117 29.816 26.4098 29.816 26.4079 29.816C26.406 29.816 26.4042 29.816 26.4023 29.816C26.4004 29.816 26.3985 29.816 26.3966 29.816C26.3947 29.816 26.3928 29.816 26.3909 29.816C26.389 29.816 26.3871 29.816 26.3852 29.816C26.3833 29.816 26.3814 29.816 26.3794 29.816C26.3775 29.816 26.3756 29.816 26.3737 29.816C26.3718 29.816 26.3699 29.816 26.3679 29.816C26.366 29.816 26.3641 29.816 26.3622 29.816C26.3602 29.816 26.3583 29.816 26.3564 29.816C26.3544 29.816 26.3525 29.816 26.3506 29.816C26.3486 29.816 26.3467 29.816 26.3448 29.816C26.3428 29.816 26.3409 29.816 26.3389 29.816C26.337 29.816 26.335 29.816 26.3331 29.816C26.3311 29.816 26.3292 29.816 26.3272 29.816C26.3253 29.816 26.3233 29.816 26.3213 29.816C26.3194 29.816 26.3174 29.816 26.3154 29.816C26.3135 29.816 26.3115 29.816 26.3095 29.816C26.3076 29.816 26.3056 29.816 26.3036 29.816C26.3016 29.816 26.2997 29.816 26.2977 29.816C26.2957 29.816 26.2937 29.816 26.2917 29.816C26.2897 29.816 26.2877 29.816 26.2857 29.816C26.2838 29.816 26.2818 29.816 26.2798 29.816C26.2778 29.816 26.2758 29.816 26.2738 29.816C26.2718 29.816 26.2698 29.816 26.2678 29.816C26.2657 29.816 26.2637 29.816 26.2617 29.816C26.2597 29.816 26.2577 29.816 26.2557 29.816C26.2537 29.816 26.2516 29.816 26.2496 29.816C26.2476 29.816 26.2456 29.816 26.2435 29.816C26.2415 29.816 26.2395 29.816 26.2375 29.816C26.2354 29.816 26.2334 29.816 26.2313 29.816C26.2293 29.816 26.2273 29.816 26.2252 29.816C26.2232 29.816 26.2211 29.816 26.2191 29.816C26.217 29.816 26.215 29.816 26.2129 29.816C26.2109 29.816 26.2088 29.816 26.2068 29.816C26.2047 29.816 26.2027 29.816 26.2006 29.816C26.1985 29.816 26.1965 29.816 26.1944 29.816C26.1923 29.816 26.1903 29.816 26.1882 29.816C26.1861 29.816 26.184 29.816 26.182 29.816C26.1799 29.816 26.1778 29.816 26.1757 29.816C26.1736 29.816 26.1716 29.816 26.1695 29.816C26.1674 29.816 26.1653 29.816 26.1632 29.816C26.1611 29.816 26.159 29.816 26.1569 29.816C26.1548 29.816 26.1527 29.816 26.1506 29.816C26.1485 29.816 26.1464 29.816 26.1443 29.816C26.1422 29.816 26.1401 29.816 26.138 29.816C26.1359 29.816 26.1337 29.816 26.1316 29.816C26.1295 29.816 26.1274 29.816 26.1253 29.816C26.1231 29.816 26.121 29.816 26.1189 29.816C26.1168 29.816 26.1146 29.816 26.1125 29.816C26.1104 29.816 26.1082 29.816 26.1061 29.816C26.104 29.816 26.1018 29.816 26.0997 29.816C26.0975 29.816 26.0954 29.816 26.0932 29.816C26.0911 29.816 26.0889 29.816 26.0868 29.816C26.0846 29.816 26.0825 29.816 26.0803 29.816C26.0782 29.816 26.076 29.816 26.0738 29.816C26.0717 29.816 26.0695 29.816 26.0673 29.816C26.0652 29.816 26.063 29.816 26.0608 29.816C26.0587 29.816 26.0565 29.816 26.0543 29.816C26.0521 29.816 26.0499 29.816 26.0478 29.816C26.0456 29.816 26.0434 29.816 26.0412 29.816C26.039 29.816 26.0368 29.816 26.0346 29.816C26.0324 29.816 26.0302 29.816 26.028 29.816C26.0258 29.816 26.0236 29.816 26.0214 29.816C26.0192 29.816 26.017 29.816 26.0148 29.816C26.0126 29.816 26.0104 29.816 26.0082 29.816C26.006 29.816 26.0038 29.816 26.0015 29.816C25.9993 29.816 25.9971 29.816 25.9949 29.816C25.9927 29.816 25.9904 29.816 25.9882 29.816C25.986 29.816 25.9838 29.816 25.9815 29.816C25.9793 29.816 25.977 29.816 25.9748 29.816C25.9726 29.816 25.9703 29.816 25.9681 29.816C25.9658 29.816 25.9636 29.816 25.9613 29.816C25.9591 29.816 25.9568 29.816 25.9546 29.816C25.9523 29.816 25.9501 29.816 25.9478 29.816C25.9456 29.816 25.9433 29.816 25.941 29.816C25.9388 29.816 25.9365 29.816 25.9342 29.816C25.932 29.816 25.9297 29.816 25.9274 29.816C25.9252 29.816 25.9229 29.816 25.9206 29.816C25.9183 29.816 25.916 29.816 25.9138 29.816C25.9115 29.816 25.9092 29.816 25.9069 29.816C25.9046 29.816 25.9023 29.816 25.9 29.816C25.8977 29.816 25.8954 29.816 25.8931 29.816C25.8908 29.816 25.8885 29.816 25.8862 29.816C25.8839 29.816 25.8816 29.816 25.8793 29.816C25.877 29.816 25.8747 29.816 25.8724 29.816C25.8701 29.816 25.8678 29.816 25.8654 29.816C25.8631 29.816 25.8608 29.816 25.8585 29.816C25.8562 29.816 25.8538 29.816 25.8515 29.816C25.8492 29.816 25.8468 29.816 25.8445 29.816C25.8422 29.816 25.8398 29.816 25.8375 29.816C25.8352 29.816 25.8328 29.816 25.8305 29.816C25.8281 29.816 25.8258 29.816 25.8234 29.816C25.8211 29.816 25.8187 29.816 25.8164 29.816C25.814 29.816 25.8117 29.816 25.8093 29.816C25.8069 29.816 25.8046 29.816 25.8022 29.816C25.7999 29.816 25.7975 29.816 25.7951 29.816C25.7928 29.816 25.7904 29.816 25.788 29.816C25.7856 29.816 25.7833 29.816 25.7809 29.816C25.7785 29.816 25.7761 29.816 25.7737 29.816C25.7714 29.816 25.769 29.816 25.7666 29.816C25.7642 29.816 25.7618 29.816 25.7594 29.816C25.757 29.816 25.7546 29.816 25.7522 29.816C25.7498 29.816 25.7474 29.816 25.745 29.816C25.7426 29.816 25.7402 29.816 25.7378 29.816C25.7354 29.816 25.733 29.816 25.7305 29.816C25.7281 29.816 25.7257 29.816 25.7233 29.816C25.7209 29.816 25.7185 29.816 25.716 29.816C25.7136 29.816 25.7112 29.816 25.7088 29.816C25.7063 29.816 25.7039 29.816 25.7015 29.816C25.699 29.816 25.6966 29.816 25.6941 29.816C25.6917 29.816 25.6893 29.816 25.6868 29.816C25.6844 29.816 25.6819 29.816 25.6795 29.816C25.677 29.816 25.6746 29.816 25.6721 29.816C25.6697 29.816 25.6672 29.816 25.6648 29.816C25.6623 29.816 25.6598 29.816 25.6574 29.816C25.6549 29.816 25.6524 29.816 25.65 29.816C25.6475 29.816 25.645 29.816 25.6426 29.816C25.6401 29.816 25.6376 29.816 25.6351 29.816C25.6326 29.816 25.6302 29.816 25.6277 29.816C25.6252 29.816 25.6227 29.816 25.6202 29.816C25.6177 29.816 25.6152 29.816 25.6127 29.816C25.6102 29.816 25.6077 29.816 25.6052 29.816C25.6027 29.816 25.6002 29.816 25.5977 29.816C25.5952 29.816 25.5927 29.816 25.5902 29.816C25.5877 29.816 25.5852 29.816 25.5827 29.816C25.5802 29.816 25.5776 29.816 25.5751 29.816C25.5726 29.816 25.5701 29.816 25.5676 29.816C25.565 29.816 25.5625 29.816 25.56 29.816C25.5575 29.816 25.5549 29.816 25.5524 29.816C25.5498 29.816 25.5473 29.816 25.5448 29.816C25.5422 29.816 25.5397 29.816 25.5371 29.816C25.5346 29.816 25.5321 29.816 25.5295 29.816C25.527 29.816 25.5244 29.816 25.5218 29.816C25.5193 29.816 25.5167 29.816 25.5142 29.816C25.5116 29.816 25.5091 29.816 25.5065 29.816C25.5039 29.816 25.5014 29.816 25.4988 29.816C25.4962 29.816 25.4936 29.816 25.4911 29.816C25.4885 29.816 25.4859 29.816 25.4833 29.816C25.4808 29.816 25.4782 29.816 25.4756 29.816C25.473 29.816 25.4704 29.816 25.4678 29.816C25.4652 29.816 25.4626 29.816 25.46 29.816C25.4574 29.816 25.4549 29.816 25.4523 29.816C25.4497 29.816 25.447 29.816 25.4444 29.816C25.4418 29.816 25.4392 29.816 25.4366 29.816C25.434 29.816 25.4314 29.816 25.4288 29.816C25.4262 29.816 25.4235 29.816 25.4209 29.816C25.4183 29.816 25.4157 29.816 25.4131 29.816C25.4104 29.816 25.4078 29.816 25.4052 29.816C25.4025 29.816 25.3999 29.816 25.3973 29.816C25.3946 29.816 25.392 29.816 25.3894 29.816C25.3867 29.816 25.3841 29.816 25.3814 29.816C25.3788 29.816 25.3761 29.816 25.3735 29.816C25.3708 29.816 25.3682 29.816 25.3655 29.816C25.3629 29.816 25.3602 29.816 25.3576 29.816C25.3549 29.816 25.3522 29.816 25.3496 29.816C25.3469 29.816 25.3442 29.816 25.3416 29.816C25.3389 29.816 25.3362 29.816 25.3335 29.816C25.3309 29.816 25.3282 29.816 25.3255 29.816C25.3228 29.816 25.3202 29.816 25.3175 29.816C25.3148 29.816 25.3121 29.816 25.3094 29.816C25.3067 29.816 25.304 29.816 25.3013 29.816C25.2986 29.816 25.2959 29.816 25.2932 29.816C25.2905 29.816 25.2878 29.816 25.2851 29.816C25.2824 29.816 25.2797 29.816 25.277 29.816C25.2743 29.816 25.2716 29.816 25.2689 29.816C25.2661 29.816 25.2634 29.816 25.2607 29.816C25.258 29.816 25.2553 29.816 25.2525 29.816C25.2498 29.816 25.2471 29.816 25.2443 29.816C25.2416 29.816 25.2389 29.816 25.2361 29.816C25.2334 29.816 25.2307 29.816 25.2279 29.816C25.2252 29.816 25.2224 29.816 25.2197 29.816C25.217 29.816 25.2142 29.816 25.2115 29.816C25.2087 29.816 25.2059 29.816 25.2032 29.816C25.2004 29.816 25.1977 29.816 25.1949 29.816C25.1922 29.816 25.1894 29.816 25.1866 29.816C25.1839 29.816 25.1811 29.816 25.1783 29.816C25.1756 29.816 25.1728 29.816 25.17 29.816C25.1672 29.816 25.1644 29.816 25.1617 29.816C25.1589 29.816 25.1561 29.816 25.1533 29.816C25.1505 29.816 25.1477 29.816 25.1449 29.816C25.1422 29.816 25.1394 29.816 25.1366 29.816C25.1338 29.816 25.131 29.816 25.1282 29.816C25.1254 29.816 25.1226 29.816 25.1198 29.816C25.117 29.816 25.1141 29.816 25.1113 29.816C25.1085 29.816 25.1057 29.816 25.1029 29.816C25.1001 29.816 25.0973 29.816 25.0944 29.816C25.0916 29.816 25.0888 29.816 25.086 29.816C25.0831 29.816 25.0803 29.816 25.0775 29.816C25.0746 29.816 25.0718 29.816 25.069 29.816C25.0661 29.816 25.0633 29.816 25.0605 29.816C25.0576 29.816 25.0548 29.816 25.0519 29.816C25.0491 29.816 25.0462 29.816 25.0434 29.816C25.0405 29.816 25.0377 29.816 25.0348 29.816C25.032 29.816 25.0291 29.816 25.0262 29.816C25.0234 29.816 25.0205 29.816 25.0177 29.816C25.0148 29.816 25.0119 29.816 25.009 29.816C25.0062 29.816 25.0033 29.816 25.0004 29.816C24.9975 29.816 24.9947 29.816 24.9918 29.816C24.9889 29.816 24.986 29.816 24.9831 29.816C24.9802 29.816 24.9774 29.816 24.9745 29.816C24.9716 29.816 24.9687 29.816 24.9658 29.816C24.9629 29.816 24.96 29.816 24.9571 29.816C24.9542 29.816 24.9513 29.816 24.9484 29.816C24.9455 29.816 24.9426 29.816 24.9396 29.816C24.9367 29.816 24.9338 29.816 24.9309 29.816C24.928 29.816 24.9251 29.816 24.9221 29.816C24.9192 29.816 24.9163 29.816 24.9134 29.816C24.9104 29.816 24.9075 29.816 24.9046 29.816C24.9017 29.816 24.8987 29.816 24.8958 29.816C24.8928 29.816 24.8899 29.816 24.887 29.816C24.884 29.816 24.8811 29.816 24.8781 29.816C24.8752 29.816 24.8722 29.816 24.8693 29.816C24.8663 29.816 24.8634 29.816 24.8604 29.816C24.8575 29.816 24.8545 29.816 24.8515 29.816C24.8486 29.816 24.8456 29.816 24.8426 29.816C24.8397 29.816 24.8367 29.816 24.8337 29.816C24.8308 29.816 24.8278 29.816 24.8248 29.816C24.8218 29.816 24.8189 29.816 24.8159 29.816C24.8129 29.816 24.8099 29.816 24.8069 29.816C24.8039 29.816 24.8009 29.816 24.798 29.816C24.795 29.816 24.792 29.816 24.789 29.816C24.786 29.816 24.783 29.816 24.78 29.816C24.777 29.816 24.774 29.816 24.771 29.816C24.7679 29.816 24.7649 29.816 24.7619 29.816C24.7589 29.816 24.7559 29.816 24.7529 29.816C24.7499 29.816 24.7468 29.816 24.7438 29.816C24.7408 29.816 24.7378 29.816 24.7348 29.816C24.7317 29.816 24.7287 29.816 24.7257 29.816C24.7226 29.816 24.7196 29.816 24.7166 29.816C24.7135 29.816 24.7105 29.816 24.7074 29.816C24.7044 29.816 24.7013 29.816 24.6983 29.816C24.6953 29.816 24.6922 29.816 24.6892 29.816C24.6861 29.816 24.683 29.816 24.68 29.816C24.6769 29.816 24.6739 29.816 24.6708 29.816C24.6677 29.816 24.6647 29.816 24.6616 29.816C24.6585 29.816 24.6555 29.816 24.6524 29.816C24.6493 29.816 24.6463 29.816 24.6432 29.816C24.6401 29.816 24.637 29.816 24.6339 29.816C24.6309 29.816 24.6278 29.816 24.6247 29.816C24.6216 29.816 24.6185 29.816 24.6154 29.816C24.6123 29.816 24.6092 29.816 24.6061 29.816C24.603 29.816 24.5999 29.816 24.5968 29.816C24.5937 29.816 24.5906 29.816 24.5875 29.816C24.5844 29.816 24.5813 29.816 24.5782 29.816C24.5751 29.816 24.572 29.816 24.5688 29.816C24.5657 29.816 24.5626 29.816 24.5595 29.816C24.5563 29.816 24.5532 29.816 24.5501 29.816C24.547 29.816 24.5438 29.816 24.5407 29.816C24.5376 29.816 24.5344 29.816 24.5313 29.816C24.5282 29.816 24.525 29.816 24.5219 29.816C24.5187 29.816 24.5156 29.816 24.5124 29.816C24.5093 29.816 24.5061 29.816 24.503 29.816C24.4998 29.816 24.4967 29.816 24.4935 29.816C24.4904 29.816 24.4872 29.816 24.484 29.816C24.4809 29.816 24.4777 29.816 24.4745 29.816C24.4714 29.816 24.4682 29.816 24.465 29.816C24.4619 29.816 24.4587 29.816 24.4555 29.816C24.4523 29.816 24.4492 29.816 24.446 29.816C24.4428 29.816 24.4396 29.816 24.4364 29.816C24.4332 29.816 24.43 29.816 24.4268 29.816C24.4236 29.816 24.4204 29.816 24.4173 29.816C24.4141 29.816 24.4109 29.816 24.4076 29.816C24.4044 29.816 24.4012 29.816 24.398 29.816C24.3948 29.816 24.3916 29.816 24.3884 29.816C24.3852 29.816 24.382 29.816 24.3788 29.816C24.3755 29.816 24.3723 29.816 24.3691 29.816C24.3659 29.816 24.3626 29.816 24.3594 29.816C24.3562 29.816 24.353 29.816 24.3497 29.816C24.3465 29.816 24.3433 29.816 24.34 29.816C24.3368 29.816 24.3335 29.816 24.3303 29.816C24.327 29.816 24.3238 29.816 24.3206 29.816C24.3173 29.816 24.3141 29.816 24.3108 29.816C24.3075 29.816 24.3043 29.816 24.301 29.816C24.2978 29.816 24.2945 29.816 24.2912 29.816C24.288 29.816 24.2847 29.816 24.2815 29.816C24.2782 29.816 24.2749 29.816 24.2716 29.816C24.2684 29.816 24.2651 29.816 24.2618 29.816C24.2585 29.816 24.2553 29.816 24.252 29.816C24.2487 29.816 24.2454 29.816 24.2421 29.816C24.2388 29.816 24.2355 29.816 24.2322 29.816C24.2289 29.816 24.2256 29.816 24.2223 29.816C24.219 29.816 24.2157 29.816 24.2124 29.816C24.2091 29.816 24.2058 29.816 24.2025 29.816C24.1992 29.816 24.1959 29.816 24.1926 29.816C24.1893 29.816 24.186 29.816 24.1826 29.816C24.1793 29.816 24.176 29.816 24.1727 29.816C24.1694 29.816 24.166 29.816 24.1627 29.816C24.1594 29.816 24.156 29.816 24.1527 29.816C24.1494 29.816 24.146 29.816 24.1427 29.816C24.1394 29.816 24.136 29.816 24.1327 29.816C24.1293 29.816 24.126 29.816 24.1226 29.816C24.1193 29.816 24.1159 29.816 24.1126 29.816C24.1092 29.816 24.1059 29.816 24.1025 29.816C24.0992 29.816 24.0958 29.816 24.0924 29.816C24.0891 29.816 24.0857 29.816 24.0823 29.816C24.079 29.816 24.0756 29.816 24.0722 29.816C24.0688 29.816 24.0655 29.816 24.0621 29.816C24.0587 29.816 24.0553 29.816 24.0519 29.816C24.0486 29.816 24.0452 29.816 24.0418 29.816C24.0384 29.816 24.035 29.816 24.0316 29.816C24.0282 29.816 24.0248 29.816 24.0214 29.816C24.018 29.816 24.0146 29.816 24.0112 29.816C24.0078 29.816 24.0044 29.816 24.001 29.816C23.9976 29.816 23.9942 29.816 23.9908 29.816C23.9873 29.816 23.9839 29.816 23.9805 29.816C23.9771 29.816 23.9737 29.816 23.9702 29.816C23.9668 29.816 23.9634 29.816 23.96 29.816C23.9565 29.816 23.9531 29.816 23.9497 29.816C23.9462 29.816 23.9428 29.816 23.9393 29.816C23.9359 29.816 23.9325 29.816 23.929 29.816C23.9256 29.816 23.9221 29.816 23.9187 29.816C23.9152 29.816 23.9118 29.816 23.9083 29.816C23.9049 29.816 23.9014 29.816 23.898 29.816C23.8945 29.816 23.891 29.816 23.8876 29.816C23.8841 29.816 23.8806 29.816 23.8772 29.816C23.8737 29.816 23.8702 29.816 23.8668 29.816C23.8633 29.816 23.8598 29.816 23.8563 29.816C23.8528 29.816 23.8494 29.816 23.8459 29.816C23.8424 29.816 23.8389 29.816 23.8354 29.816C23.8319 29.816 23.8284 29.816 23.8249 29.816C23.8214 29.816 23.8179 29.816 23.8144 29.816C23.8109 29.816 23.8074 29.816 23.8039 29.816C23.8004 29.816 23.7969 29.816 23.7934 29.816C23.7899 29.816 23.7864 29.816 23.7829 29.816C23.7794 29.816 23.7758 29.816 23.7723 29.816C23.7688 29.816 23.7653 29.816 23.7618 29.816C23.7582 29.816 23.7547 29.816 23.7512 29.816C23.7477 29.816 23.7441 29.816 23.7406 29.816C23.737 29.816 23.7335 29.816 23.73 29.816C23.7264 29.816 23.7229 29.816 23.7193 29.816C23.7158 29.816 23.7123 29.816 23.7087 29.816C23.7052 29.816 23.7016 29.816 23.698 29.816C23.6945 29.816 23.6909 29.816 23.6874 29.816C23.6838 29.816 23.6803 29.816 23.6767 29.816C23.6731 29.816 23.6696 29.816 23.666 29.816C23.6624 29.816 23.6588 29.816 23.6553 29.816C23.6517 29.816 23.6481 29.816 23.6445 29.816C23.641 29.816 23.6374 29.816 23.6338 29.816C23.6302 29.816 23.6266 29.816 23.623 29.816C23.6194 29.816 23.6158 29.816 23.6122 29.816C23.6086 29.816 23.6051 29.816 23.6015 29.816C23.5979 29.816 23.5942 29.816 23.5906 29.816C23.587 29.816 23.5834 29.816 23.5798 29.816C23.5762 29.816 23.5726 29.816 23.569 29.816C23.5654 29.816 23.5617 29.816 23.5581 29.816C23.5545 29.816 23.5509 29.816 23.5473 29.816C23.5436 29.816 23.54 29.816 23.5364 29.816C23.5327 29.816 23.5291 29.816 23.5255 29.816C23.5218 29.816 23.5182 29.816 23.5146 29.816C23.5109 29.816 23.5073 29.816 23.5036 29.816C23.5 29.816 23.4963 29.816 23.4927 29.816C23.489 29.816 23.4854 29.816 23.4817 29.816C23.4781 29.816 23.4744 29.816 23.4708 29.816C23.4671 29.816 23.4634 29.816 23.4598 29.816C23.4561 29.816 23.4524 29.816 23.4488 29.816C23.4451 29.816 23.4414 29.816 23.4377 29.816C23.4341 29.816 23.4304 29.816 23.4267 29.816C23.423 29.816 23.4193 29.816 23.4157 29.816C23.412 29.816 23.4083 29.816 23.4046 29.816C23.4009 29.816 23.3972 29.816 23.3935 29.816C23.3898 29.816 23.3861 29.816 23.3824 29.816C23.3787 29.816 23.375 29.816 23.3713 29.816C23.3676 29.816 23.3639 29.816 23.3602 29.816C23.3565 29.816 23.3528 29.816 23.3491 29.816C23.3453 29.816 23.3416 29.816 23.3379 29.816C23.3342 29.816 23.3305 29.816 23.3267 29.816C23.323 29.816 23.3193 29.816 23.3155 29.816C23.3118 29.816 23.3081 29.816 23.3043 29.816C23.3006 29.816 23.2969 29.816 23.2931 29.816C23.2894 29.816 23.2856 29.816 23.2819 29.816C23.2782 29.816 23.2744 29.816 23.2707 29.816C23.2669 29.816 23.2631 29.816 23.2594 29.816C23.2556 29.816 23.2519 29.816 23.2481 29.816C23.2444 29.816 23.2406 29.816 23.2368 29.816C23.2331 29.816 23.2293 29.816 23.2255 29.816C23.2217 29.816 23.218 29.816 23.2142 29.816C23.2104 29.816 23.2066 29.816 23.2029 29.816C23.1991 29.816 23.1953 29.816 23.1915 29.816C23.1877 29.816 23.1839 29.816 23.1801 29.816C23.1764 29.816 23.1726 29.816 23.1688 29.816C23.165 29.816 23.1612 29.816 23.1574 29.816C23.1536 29.816 23.1498 29.816 23.146 29.816C23.1422 29.816 23.1383 29.816 23.1345 29.816C23.1307 29.816 23.1269 29.816 23.1231 29.816C23.1193 29.816 23.1155 29.816 23.1116 29.816C23.1078 29.816 23.104 29.816 23.1002 29.816C23.0963 29.816 23.0925 29.816 23.0887 29.816C23.0848 29.816 23.081 29.816 23.0772 29.816C23.0733 29.816 23.0695 29.816 23.0657 29.816C23.0618 29.816 23.058 29.816 23.0541 29.816C23.0503 29.816 23.0464 29.816 23.0426 29.816C23.0387 29.816 23.0349 29.816 23.031 29.816C23.0272 29.816 23.0233 29.816 23.0194 29.816C23.0156 29.816 23.0117 29.816 23.0078 29.816C23.004 29.816 23.0001 29.816 22.9962 29.816C22.9924 29.816 22.9885 29.816 22.9846 29.816C22.9807 29.816 22.9769 29.816 22.973 29.816C22.9691 29.816 22.9652 29.816 22.9613 29.816C22.9574 29.816 22.9536 29.816 22.9497 29.816C22.9458 29.816 22.9419 29.816 22.938 29.816C22.9341 29.816 22.9302 29.816 22.9263 29.816C22.9224 29.816 22.9185 29.816 22.9146 29.816C22.9107 29.816 22.9068 29.816 22.9028 29.816C22.8989 29.816 22.895 29.816 22.8911 29.816C22.8872 29.816 22.8833 29.816 22.8793 29.816C22.8754 29.816 22.8715 29.816 22.8676 29.816C22.8636 29.816 22.8597 29.816 22.8558 29.816C22.8518 29.816 22.8479 29.816 22.844 29.816C22.84 29.816 22.8361 29.816 22.8322 29.816C22.8282 29.816 22.8243 29.816 22.8203 29.816C22.8164 29.816 22.8124 29.816 22.8085 29.816C22.8045 29.816 22.8006 29.816 22.7966 29.816C22.7927 29.816 22.7887 29.816 22.7847 29.816C22.7808 29.816 22.7768 29.816 22.7728 29.816C22.7689 29.816 22.7649 29.816 22.7609 29.816C22.757 29.816 22.753 29.816 22.749 29.816C22.745 29.816 22.7411 29.816 22.7371 29.816C22.7331 29.816 22.7291 29.816 22.7251 29.816C22.7211 29.816 22.7171 29.816 22.7131 29.816C22.7092 29.816 22.7052 29.816 22.7012 29.816C22.6972 29.816 22.6932 29.816 22.6892 29.816C22.6852 29.816 22.6812 29.816 22.6772 29.816C22.6731 29.816 22.6691 29.816 22.6651 29.816C22.6611 29.816 22.6571 29.816 22.6531 29.816C22.6491 29.816 22.645 29.816 22.641 29.816C22.637 29.816 22.633 29.816 22.6289 29.816C22.6249 29.816 22.6209 29.816 22.6169 29.816C22.6128 29.816 22.6088 29.816 22.6048 29.816C22.6007 29.816 22.5967 29.816 22.5926 29.816C22.5886 29.816 22.5845 29.816 22.5805 29.816C22.5764 29.816 22.5724 29.816 22.5683 29.816C22.5643 29.816 22.5602 29.816 22.5562 29.816C22.5521 29.816 22.5481 29.816 22.544 29.816V32.816ZM26.808 32.816H28.732V29.816H26.808V32.816ZM86.7494 1.52V0.0199995H85.2494V1.52H86.7494ZM99.8534 1.52H101.353V0.0199995H99.8534V1.52ZM96.7334 31.368L97.9682 32.2196L97.9682 32.2196L96.7334 31.368ZM88.3094 38.492L88.9589 39.8441L88.9696 39.8389L88.3094 38.492ZM64.4414 38.492L63.812 39.8536L63.812 39.8536L64.4414 38.492ZM55.7054 31.472L54.4772 32.3331L54.4828 32.3412L54.4886 32.3492L55.7054 31.472ZM52.4814 21.332L50.9813 21.332L50.9814 21.3459L52.4814 21.332ZM52.4814 1.52V0.0199995H50.9814V1.52H52.4814ZM65.7934 1.52H67.2934V0.0199995H65.7934V1.52ZM69.0174 28.3L68.1625 29.5326L68.1718 29.5389L69.0174 28.3ZM81.3934 29.652L81.934 31.0512L81.9477 31.0459L81.9613 31.0403L81.3934 29.652ZM85.1894 26.636L83.9894 25.736L83.9821 25.7457L83.975 25.7555L85.1894 26.636ZM86.7494 3.02H99.8534V0.0199995H86.7494V3.02ZM98.3534 1.52V21.228H101.353V1.52H98.3534ZM98.3534 21.228C98.3534 24.6749 97.4019 27.7566 95.4986 30.5164L97.9682 32.2196C100.225 28.9474 101.353 25.2691 101.353 21.228H98.3534ZM95.4986 30.5164C93.5754 33.305 90.9722 35.5162 87.6491 37.1451L88.9696 39.8389C92.7186 38.0011 95.7314 35.463 97.9682 32.2196L95.4986 30.5164ZM87.6598 37.1399C84.3404 38.7346 80.6991 39.54 76.7134 39.54V42.54C81.117 42.54 85.2064 41.6468 88.9589 39.8441L87.6598 37.1399ZM76.7134 39.54C72.3993 39.54 68.5268 38.728 65.0708 37.1304L63.812 39.8536C67.7053 41.6533 72.0141 42.54 76.7134 42.54V39.54ZM65.0708 37.1304C61.6059 35.5288 58.9056 33.3461 56.9221 30.5948L54.4886 32.3492C56.8038 35.5605 59.9275 38.0579 63.812 39.8536L65.0708 37.1304ZM56.9336 30.6109C54.9961 27.8476 54.0132 24.764 53.9813 21.3181L50.9814 21.3459C51.0189 25.388 52.1853 29.0644 54.4772 32.3331L56.9336 30.6109ZM53.9814 21.332V1.52H50.9814V21.332H53.9814ZM52.4814 3.02H65.7934V0.0199995H52.4814V3.02ZM64.2934 1.52V21.332H67.2934V1.52H64.2934ZM64.2934 21.332C64.2934 24.8631 65.5227 27.7018 68.1625 29.5326L69.8722 27.0674C68.2133 25.9169 67.2934 24.1103 67.2934 21.332H64.2934ZM68.1718 29.5389C70.636 31.2209 73.5222 32.036 76.7654 32.036V29.036C74.0459 29.036 71.7668 28.3605 69.863 27.0611L68.1718 29.5389ZM76.7654 32.036C78.5191 32.036 80.2446 31.7039 81.934 31.0512L80.8528 28.2528C79.4915 28.7788 78.1317 29.036 76.7654 29.036V32.036ZM81.9613 31.0403C83.7557 30.3063 85.2412 29.12 86.4038 27.5165L83.975 25.7555C83.1269 26.9254 82.0817 27.7497 80.8254 28.2637L81.9613 31.0403ZM86.3894 27.536C87.6668 25.8327 88.2494 23.7266 88.2494 21.332H85.2494C85.2494 23.2361 84.7919 24.6659 83.9894 25.736L86.3894 27.536ZM88.2494 21.332V1.52H85.2494V21.332H88.2494ZM139.082 1.52V0.0199995H138.395L137.946 0.540753L139.082 1.52ZM152.342 1.52L153.499 2.47469L155.525 0.0199995H152.342V1.52ZM133.934 23.828L132.777 22.8733L132.434 23.289V23.828H133.934ZM133.934 40V41.5H135.434V40H133.934ZM120.154 40H118.654V41.5H120.154V40ZM120.154 23.88H121.654V23.3432L121.313 22.9282L120.154 23.88ZM101.798 1.52V0.0199995H98.626L100.639 2.47176L101.798 1.52ZM115.058 1.52L116.219 0.570143L115.769 0.0199995H115.058V1.52ZM126.758 15.82L125.597 16.7699L126.728 18.1523L127.894 16.7992L126.758 15.82ZM139.082 3.02H152.342V0.0199995H139.082V3.02ZM151.185 0.565305L132.777 22.8733L135.091 24.7827L153.499 2.47469L151.185 0.565305ZM132.434 23.828V40H135.434V23.828H132.434ZM133.934 38.5H120.154V41.5H133.934V38.5ZM121.654 40V23.88H118.654V40H121.654ZM121.313 22.9282L102.957 0.568235L100.639 2.47176L118.995 24.8318L121.313 22.9282ZM101.798 3.02H115.058V0.0199995H101.798V3.02ZM113.897 2.46986L125.597 16.7699L127.919 14.8701L116.219 0.570143L113.897 2.46986ZM127.894 16.7992L140.218 2.49925L137.946 0.540753L125.622 14.8408L127.894 16.7992ZM198.992 17.12V15.6199L198.978 15.6201L198.992 17.12ZM207.884 17.848L207.601 19.3212L207.613 19.3234L207.624 19.3254L207.884 17.848ZM214.28 20.812L213.278 21.9281L213.283 21.9331L213.289 21.9381L214.28 20.812ZM209.704 38.388L210.254 39.7835L210.259 39.7814L209.704 38.388ZM177.308 38.336L176.767 39.7353L176.776 39.7385L177.308 38.336ZM169.768 27.312L169.762 25.812L168.268 25.8179V27.312H169.768ZM183.028 27.26H184.528V25.7541L183.022 25.76L183.028 27.26ZM186.252 31.836L185.812 33.2702L185.826 33.2744L185.84 33.2783L186.252 31.836ZM200.916 31.576L200.354 30.1849L200.346 30.1885L200.916 31.576ZM202.06 25.388L201.503 26.7807L201.503 26.7807L202.06 25.388ZM198.16 24.504L198.048 25.9998L198.048 25.9998L198.16 24.504ZM193.168 24.296L193.195 22.7962L193.181 22.796H193.168V24.296ZM179.492 23.62L179.23 25.097L179.241 25.0989L179.251 25.1006L179.492 23.62ZM172.576 20.5L171.603 21.6419L171.603 21.6419L172.576 20.5ZM177.048 2.872L177.525 4.29402L177.531 4.29197L177.048 2.872ZM216.88 14.26V15.76H218.38V14.26H216.88ZM203.828 14.26H202.328V15.76H203.828V14.26ZM200.864 10.412L200.252 11.7817L200.267 11.7882L200.282 11.7945L200.864 10.412ZM193.74 8.956L193.795 7.45703L193.768 7.456H193.74V8.956ZM186.148 16.392L186.506 14.9354L186.506 14.9354L186.148 16.392ZM193.324 17.172V18.6721L193.338 18.6719L193.324 17.172ZM198.992 18.62C202.322 18.62 205.188 18.8583 207.601 19.3212L208.166 16.3748C205.519 15.8671 202.456 15.62 198.992 15.62V18.62ZM207.624 19.3254C209.953 19.7345 211.816 20.6156 213.278 21.9281L215.282 19.6959C213.346 17.9577 210.945 16.8629 208.143 16.3706L207.624 19.3254ZM213.289 21.9381C214.618 23.1074 215.38 24.866 215.38 27.468H218.38C218.38 24.246 217.409 21.5673 215.271 19.6859L213.289 21.9381ZM215.38 27.468C215.38 29.9306 214.833 31.8806 213.832 33.4042C212.834 34.9231 211.308 36.1338 209.148 36.9946L210.259 39.7814C212.883 38.7355 214.945 37.1729 216.339 35.0518C217.73 32.9354 218.38 30.3787 218.38 27.468H215.38ZM209.154 36.9925C204.605 38.7853 199.457 39.696 193.688 39.696V42.696C199.774 42.696 205.303 41.7347 210.254 39.7835L209.154 36.9925ZM193.688 39.696C187.959 39.696 182.681 38.7698 177.84 36.9335L176.776 39.7385C181.988 41.7156 187.63 42.696 193.688 42.696V39.696ZM177.848 36.9367C175.557 36.052 173.943 34.8154 172.891 33.2772C171.839 31.7386 171.268 29.7796 171.268 27.312H168.268C168.268 30.2524 168.954 32.8348 170.415 34.9708C171.876 37.1073 174.031 38.6786 176.767 39.7353L177.848 36.9367ZM169.774 28.812L183.034 28.76L183.022 25.76L169.762 25.812L169.774 28.812ZM181.528 27.26C181.528 28.6782 181.848 29.9834 182.608 31.0619C183.373 32.1491 184.487 32.8639 185.812 33.2702L186.691 30.4018C185.868 30.1494 185.369 29.7723 185.06 29.3341C184.745 28.8872 184.528 28.2338 184.528 27.26H181.528ZM185.84 33.2783C188.189 33.9496 190.882 34.272 193.896 34.272V31.272C191.086 31.272 188.682 30.9704 186.664 30.3937L185.84 33.2783ZM193.896 34.272C196.773 34.272 199.318 33.854 201.486 32.9635L200.346 30.1885C198.631 30.8927 196.496 31.272 193.896 31.272V34.272ZM201.477 32.967C202.641 32.4973 203.633 31.832 204.333 30.9106C205.046 29.9723 205.38 28.8691 205.38 27.676H202.38C202.38 28.2855 202.219 28.7337 201.945 29.0954C201.657 29.474 201.166 29.8573 200.354 30.185L201.477 32.967ZM205.38 27.676V27.624H202.38V27.676H205.38ZM205.38 27.624C205.38 26.7936 205.12 26.0173 204.588 25.3641C204.076 24.7353 203.379 24.3 202.617 23.9953L201.503 26.7807C201.954 26.9613 202.167 27.1414 202.261 27.2579C202.336 27.35 202.38 27.4491 202.38 27.624H205.38ZM202.617 23.9953C201.253 23.4495 199.802 23.1229 198.272 23.0082L198.048 25.9998C199.291 26.0931 200.44 26.3558 201.503 26.7807L202.617 23.9953ZM198.272 23.0082C196.848 22.9014 195.154 22.8312 193.195 22.7962L193.141 25.7958C195.064 25.8301 196.698 25.8986 198.048 25.9998L198.272 23.0082ZM193.168 22.796H189.268V25.796H193.168V22.796ZM189.268 22.796C185.58 22.796 182.405 22.5737 179.732 22.1394L179.251 25.1006C182.125 25.5676 185.468 25.796 189.268 25.796V22.796ZM179.754 22.143C177.242 21.698 175.192 20.7581 173.548 19.3581L171.603 21.6419C173.704 23.4312 176.264 24.5713 179.23 25.097L179.754 22.143ZM173.548 19.3581C172.097 18.1219 171.268 16.236 171.268 13.428H168.268C168.268 16.86 169.31 19.6888 171.603 21.6419L173.548 19.3581ZM171.268 13.428C171.268 10.9474 171.823 9.03437 172.823 7.5846C173.818 6.14195 175.343 5.02644 177.525 4.294L176.57 1.44999C173.899 2.34689 171.785 3.80538 170.353 5.8814C168.926 7.9503 168.268 10.5006 168.268 13.428H171.268ZM177.531 4.29197C182.236 2.69042 187.615 1.876 193.688 1.876V-1.124C187.35 -1.124 181.636 -0.274422 176.564 1.45202L177.531 4.29197ZM193.688 1.876C199.346 1.876 204.477 2.80172 209.1 4.63078L210.204 1.84122C205.189 -0.143054 199.677 -1.124 193.688 -1.124V1.876ZM209.1 4.63078C211.275 5.49127 212.812 6.70962 213.818 8.24447C214.828 9.78485 215.38 11.7609 215.38 14.26H218.38C218.38 11.3164 217.727 8.73382 216.327 6.59953C214.924 4.45972 212.848 2.88739 210.204 1.84122L209.1 4.63078ZM216.88 12.76H203.828V15.76H216.88V12.76ZM205.328 14.26C205.328 13.0871 204.986 12.0054 204.275 11.0827C203.58 10.1797 202.598 9.51463 201.446 9.02955L200.282 11.7945C201.106 12.1414 201.606 12.5336 201.898 12.9133C202.176 13.2732 202.328 13.6995 202.328 14.26H205.328ZM201.475 9.04229C199.312 8.0766 196.737 7.56597 193.795 7.45703L193.684 10.455C196.359 10.554 198.533 11.0141 200.252 11.7817L201.475 9.04229ZM193.74 7.456C190.619 7.456 187.9 7.81352 185.621 8.57297L186.57 11.419C188.452 10.7918 190.829 10.456 193.74 10.456V7.456ZM185.621 8.57297C184.447 8.96443 183.418 9.51461 182.67 10.3005C181.887 11.1218 181.476 12.1365 181.476 13.272H184.476C184.476 12.9168 184.584 12.6402 184.842 12.3695C185.134 12.0634 185.665 11.7209 186.57 11.419L185.621 8.57297ZM181.476 13.272C181.476 14.4309 181.885 15.4735 182.717 16.2914C183.507 17.069 184.585 17.5524 185.79 17.8486L186.506 14.9354C185.596 14.7116 185.087 14.415 184.821 14.1526C184.595 13.9305 184.476 13.6731 184.476 13.272H181.476ZM185.79 17.8486C188.044 18.403 190.56 18.672 193.324 18.672V15.672C190.749 15.672 188.481 15.421 186.506 14.9354L185.79 17.8486ZM193.338 18.6719L199.006 18.6199L198.978 15.6201L193.31 15.6721L193.338 18.6719ZM275.08 1.52H276.58V0.0199995H275.08V1.52ZM275.08 40V41.5H276.58V40H275.08ZM262.288 40H260.788V41.5H262.288V40ZM262.288 22.632H263.788L260.94 21.9741L262.288 22.632ZM253.812 40V41.5H254.749L255.16 40.6579L253.812 40ZM242.008 40L240.675 40.6866L241.093 41.5H242.008V40ZM232.96 22.424L234.294 21.7374L231.46 22.424H232.96ZM232.96 40V41.5H234.46V40H232.96ZM220.116 40H218.616V41.5H220.116V40ZM220.116 1.52V0.0199995H218.616V1.52H220.116ZM234.78 1.52L236.125 0.854466L235.712 0.0199995H234.78V1.52ZM247.884 27.988L246.54 28.6535L247.895 31.3905L249.233 28.645L247.884 27.988ZM260.78 1.52V0.0199995H259.843L259.432 0.862991L260.78 1.52ZM273.58 1.52V40H276.58V1.52H273.58ZM275.08 38.5H262.288V41.5H275.08V38.5ZM263.788 40V22.632H260.788V40H263.788ZM260.94 21.9741L252.464 39.3421L255.16 40.6579L263.636 23.2899L260.94 21.9741ZM253.812 38.5H242.008V41.5H253.812V38.5ZM243.342 39.3134L234.294 21.7374L231.627 23.1106L240.675 40.6866L243.342 39.3134ZM231.46 22.424V40H234.46V22.424H231.46ZM232.96 38.5H220.116V41.5H232.96V38.5ZM221.616 40V1.52H218.616V40H221.616ZM220.116 3.02H234.78V0.0199995H220.116V3.02ZM233.436 2.18553L246.54 28.6535L249.229 27.3225L236.125 0.854466L233.436 2.18553ZM249.233 28.645L262.129 2.17701L259.432 0.862991L246.536 27.331L249.233 28.645ZM260.78 3.02H275.08V0.0199995H260.78V3.02ZM320.458 30.64L319.21 29.8079L319.203 29.8183L320.458 30.64ZM299.97 40V38.5H298.47V40H299.97ZM299.97 40.052V41.552H301.47V40.052H299.97ZM289.622 40.052H288.122V41.552H289.622V40.052ZM289.622 40H291.122V38.5H289.622V40ZM279.378 40H277.878V41.5H279.378V40ZM279.378 1.52V0.0199995H277.878V1.52H279.378ZM312.242 4.016L311.603 5.37324L311.608 5.37561L312.242 4.016ZM320.458 10.88L319.203 11.7017L319.21 11.7121L320.458 10.88ZM307.718 27.52L308.608 28.7276L308.611 28.725L307.718 27.52ZM309.278 16.288L308.049 17.1482L308.054 17.1555L308.06 17.1628L309.278 16.288ZM305.378 13.064L304.707 14.4056L304.725 14.4143L304.742 14.4225L305.378 13.064ZM292.222 11.868V10.368H290.722V11.868H292.222ZM292.222 29.704H290.722V31.204H292.222V29.704ZM321.87 20.812C321.87 24.1684 320.98 27.1526 319.21 29.8079L321.706 31.472C323.819 28.3034 324.87 24.7356 324.87 20.812H321.87ZM319.203 29.8183C317.467 32.4706 314.972 34.586 311.655 36.1468L312.933 38.8612C316.688 37.094 319.636 34.6334 321.713 31.4617L319.203 29.8183ZM311.655 36.1468C308.355 37.7 304.472 38.5 299.97 38.5V41.5C304.828 41.5 309.161 40.636 312.933 38.8612L311.655 36.1468ZM298.47 40V40.052H301.47V40H298.47ZM299.97 38.552H289.622V41.552H299.97V38.552ZM291.122 40.052V40H288.122V40.052H291.122ZM289.622 38.5H279.378V41.5H289.622V38.5ZM280.878 40V1.52H277.878V40H280.878ZM279.378 3.02H299.918V0.0199995H279.378V3.02ZM299.918 3.02C304.42 3.02 308.303 3.81999 311.603 5.37323L312.881 2.65877C309.109 0.884006 304.776 0.0199995 299.918 0.0199995V3.02ZM311.608 5.37561C314.96 6.93758 317.469 9.05302 319.203 11.7017L321.713 10.0583C319.634 6.88298 316.665 4.42242 312.876 2.65639L311.608 5.37561ZM319.21 11.7121C320.977 14.3626 321.87 17.3801 321.87 20.812H324.87C324.87 16.8252 323.822 13.2214 321.706 10.0479L319.21 11.7121ZM300.23 31.204C303.492 31.204 306.32 30.4135 308.608 28.7276L306.828 26.3124C305.164 27.5385 303.001 28.204 300.23 28.204V31.204ZM308.611 28.725C311.079 26.8954 312.234 24.1659 312.234 20.812H309.234C309.234 23.4208 308.378 25.1632 306.825 26.315L308.611 28.725ZM312.234 20.812C312.234 18.8341 311.65 17.0201 310.497 15.4132L308.06 17.1628C308.847 18.2599 309.234 19.4619 309.234 20.812H312.234ZM310.507 15.4278C309.376 13.8124 307.866 12.5722 306.014 11.7055L304.742 14.4225C306.149 15.0811 307.239 15.9903 308.049 17.1482L310.507 15.4278ZM306.049 11.7224C304.239 10.8176 302.293 10.368 300.23 10.368V13.368C301.842 13.368 303.327 13.7157 304.707 14.4056L306.049 11.7224ZM300.23 10.368H292.222V13.368H300.23V10.368ZM290.722 11.868V29.704H293.722V11.868H290.722ZM292.222 31.204H300.23V28.204H292.222V31.204ZM360.613 1.52V0.0199995H359.113V1.52H360.613ZM373.717 1.52H375.217V0.0199995H373.717V1.52ZM370.597 31.368L371.831 32.2196L371.831 32.2196L370.597 31.368ZM362.173 38.492L362.822 39.8441L362.833 39.8389L362.173 38.492ZM338.305 38.492L337.675 39.8536L337.675 39.8536L338.305 38.492ZM329.569 31.472L328.34 32.3331L328.346 32.3412L328.352 32.3492L329.569 31.472ZM326.345 21.332L324.845 21.332L324.845 21.3459L326.345 21.332ZM326.345 1.52V0.0199995H324.845V1.52H326.345ZM339.657 1.52H341.157V0.0199995H339.657V1.52ZM342.881 28.3L342.026 29.5326L342.035 29.5389L342.881 28.3ZM355.257 29.652L355.797 31.0512L355.811 31.0459L355.825 31.0403L355.257 29.652ZM359.053 26.636L357.853 25.736L357.845 25.7457L357.838 25.7555L359.053 26.636ZM360.613 3.02H373.717V0.0199995H360.613V3.02ZM372.217 1.52V21.228H375.217V1.52H372.217ZM372.217 21.228C372.217 24.6749 371.265 27.7566 369.362 30.5164L371.831 32.2196C374.088 28.9474 375.217 25.2691 375.217 21.228H372.217ZM369.362 30.5164C367.439 33.305 364.835 35.5162 361.512 37.1451L362.833 39.8389C366.582 38.0011 369.595 35.463 371.831 32.2196L369.362 30.5164ZM361.523 37.1399C358.204 38.7346 354.562 39.54 350.577 39.54V42.54C354.98 42.54 359.07 41.6468 362.822 39.8441L361.523 37.1399ZM350.577 39.54C346.263 39.54 342.39 38.728 338.934 37.1304L337.675 39.8536C341.569 41.6533 345.877 42.54 350.577 42.54V39.54ZM338.934 37.1304C335.469 35.5288 332.769 33.3461 330.785 30.5948L328.352 32.3492C330.667 35.5605 333.791 38.0579 337.675 39.8536L338.934 37.1304ZM330.797 30.6109C328.859 27.8476 327.876 24.764 327.845 21.3181L324.845 21.3459C324.882 25.388 326.049 29.0644 328.34 32.3331L330.797 30.6109ZM327.845 21.332V1.52H324.845V21.332H327.845ZM326.345 3.02H339.657V0.0199995H326.345V3.02ZM338.157 1.52V21.332H341.157V1.52H338.157ZM338.157 21.332C338.157 24.8631 339.386 27.7018 342.026 29.5326L343.736 27.0674C342.077 25.9169 341.157 24.1103 341.157 21.332H338.157ZM342.035 29.5389C344.499 31.2209 347.385 32.036 350.629 32.036V29.036C347.909 29.036 345.63 28.3605 343.726 27.0611L342.035 29.5389ZM350.629 32.036C352.382 32.036 354.108 31.7039 355.797 31.0512L354.716 28.2528C353.355 28.7788 351.995 29.036 350.629 29.036V32.036ZM355.825 31.0403C357.619 30.3063 359.105 29.12 360.267 27.5165L357.838 25.7555C356.99 26.9254 355.945 27.7497 354.689 28.2637L355.825 31.0403ZM360.253 27.536C361.53 25.8327 362.113 23.7266 362.113 21.332H359.113C359.113 23.2361 358.655 24.6659 357.853 25.736L360.253 27.536ZM362.113 21.332V1.52H359.113V21.332H362.113ZM380.081 10.412L378.876 9.51849L378.87 9.52732L380.081 10.412ZM389.389 3.184L389.996 4.55573L390.002 4.55323L389.389 3.184ZM414.141 2.612L413.584 4.00476L413.596 4.00948L414.141 2.612ZM422.669 8.384L421.548 9.38057L421.555 9.38831L422.669 8.384ZM427.089 17.068V18.568H428.953L428.555 16.7475L427.089 17.068ZM413.777 17.068L412.373 17.5947L412.738 18.568H413.777V17.068ZM411.125 13.48L410.149 14.6189L410.167 14.6338L410.184 14.6481L411.125 13.48ZM407.017 11.14L406.533 12.5598L406.533 12.5598L407.017 11.14ZM396.565 11.608L395.974 10.2293L395.965 10.2332L396.565 11.608ZM391.885 15.248L390.692 14.3397L390.689 14.3437L391.885 15.248ZM391.885 26.428L390.679 27.3196L390.684 27.3259L390.689 27.3322L391.885 26.428ZM396.461 30.016L395.852 31.3867L395.867 31.3935L395.883 31.3999L396.461 30.016ZM409.149 29.496L408.417 28.1868L408.408 28.1923L409.149 29.496ZM413.673 24.608V23.108H412.711L412.31 23.9822L413.673 24.608ZM427.037 24.608L428.499 24.9464L428.924 23.108H427.037V24.608ZM422.565 33.292L423.68 34.2963L423.686 34.2885L422.565 33.292ZM414.089 39.012L413.54 37.6164L413.54 37.6164L414.089 39.012ZM389.441 38.388L388.824 39.7552L388.829 39.7572L389.441 38.388ZM380.133 31.108L378.929 32.0015L378.929 32.0015L380.133 31.108ZM378.201 20.812C378.201 17.2796 379.228 14.1232 381.293 11.2967L378.87 9.52732C376.428 12.8715 375.201 16.6484 375.201 20.812H378.201ZM381.286 11.3055C383.402 8.45183 386.288 6.1964 389.996 4.55572L388.782 1.81228C384.656 3.63826 381.336 6.2015 378.877 9.51851L381.286 11.3055ZM390.002 4.55323C393.742 2.88011 397.898 2.032 402.493 2.032V-0.968003C397.521 -0.968003 392.941 -0.0481104 388.777 1.81477L390.002 4.55323ZM402.493 2.032C406.63 2.032 410.32 2.6988 413.584 4.00471L414.698 1.21928C411.03 -0.248141 406.954 -0.968003 402.493 -0.968003V2.032ZM413.596 4.00948C416.868 5.28525 419.505 7.08132 421.548 9.38054L423.79 7.38745C421.397 4.69468 418.349 2.64274 414.686 1.21452L413.596 4.00948ZM421.555 9.38831C423.594 11.6505 424.95 14.3076 425.624 17.3885L428.555 16.7475C427.773 13.1724 426.182 10.0402 423.784 7.37968L421.555 9.38831ZM427.089 15.568H413.777V18.568H427.089V15.568ZM415.182 16.5413C414.56 14.8827 413.506 13.4714 412.066 12.3119L410.184 14.6481C411.241 15.4993 411.955 16.48 412.373 17.5947L415.182 16.5413ZM412.102 12.3411C410.742 11.176 409.206 10.3012 407.501 9.72023L406.533 12.5598C407.88 13.0188 409.082 13.704 410.149 14.6189L412.102 12.3411ZM407.501 9.72023C405.837 9.15274 404.183 8.86 402.545 8.86V11.86C403.82 11.86 405.147 12.0873 406.533 12.5598L407.501 9.72023ZM402.545 8.86C400.29 8.86 398.096 9.31993 395.974 10.2293L397.156 12.9867C398.917 12.2321 400.71 11.86 402.545 11.86V8.86ZM395.965 10.2332C393.834 11.1634 392.066 12.5335 390.692 14.3397L393.079 16.1563C394.131 14.7732 395.484 13.7166 397.165 12.9828L395.965 10.2332ZM390.689 14.3437C389.293 16.1902 388.617 18.3705 388.617 20.812H391.617C391.617 18.9548 392.12 17.4258 393.082 16.1522L390.689 14.3437ZM388.617 20.812C388.617 23.2538 389.293 25.4448 390.679 27.3196L393.092 25.5364C392.12 24.2219 391.617 22.6689 391.617 20.812H388.617ZM390.689 27.3322C392.028 29.1048 393.759 30.4566 395.852 31.3867L397.071 28.6453C395.419 27.9114 394.1 26.8712 393.082 25.5238L390.689 27.3322ZM395.883 31.3999C397.98 32.2769 400.205 32.712 402.545 32.712V29.712C400.587 29.712 398.756 29.3497 397.04 28.6321L395.883 31.3999ZM402.545 32.712C405.188 32.712 407.647 32.0769 409.891 30.7997L408.408 28.1923C406.631 29.2031 404.687 29.712 402.545 29.712V32.712ZM409.882 30.8051C412.202 29.5072 413.932 27.6396 415.037 25.2338L412.31 23.9822C411.473 25.8058 410.187 27.1968 408.417 28.1869L409.882 30.8051ZM413.673 26.108H427.037V23.108H413.673V26.108ZM425.576 24.2696C424.869 27.3217 423.494 29.9893 421.444 32.2955L423.686 34.2885C426.074 31.6027 427.68 28.481 428.499 24.9464L425.576 24.2696ZM421.451 32.2877C419.405 34.558 416.78 36.3397 413.54 37.6164L414.639 40.4076C418.262 38.9803 421.289 36.9487 423.68 34.2963L421.451 32.2877ZM413.54 37.6164C410.309 38.889 406.634 39.54 402.493 39.54V42.54C406.95 42.54 411.006 41.839 414.639 40.4076L413.54 37.6164ZM402.493 39.54C397.934 39.54 393.795 38.6925 390.054 37.0188L388.829 39.7572C392.992 41.6195 397.554 42.54 402.493 42.54V39.54ZM390.058 37.0208C386.346 35.3453 383.456 33.0709 381.338 30.2145L378.929 32.0015C381.386 35.3158 384.702 37.8947 388.824 39.7552L390.058 37.0208ZM381.338 30.2145C379.238 27.383 378.201 24.2632 378.201 20.812H375.201C375.201 24.9181 376.452 28.6623 378.929 32.0015L381.338 30.2145ZM453.544 19.148L452.557 18.0184L451.346 19.0767L452.486 20.2113L453.544 19.148ZM474.5 40V41.5H478.134L475.558 38.9367L474.5 40ZM458.744 40L457.666 41.0431L458.108 41.5H458.744V40ZM443.144 23.88L444.222 22.8369L441.644 20.173V23.88H443.144ZM443.144 40V41.5H444.644V40H443.144ZM430.3 40H428.8V41.5H430.3V40ZM430.3 1.52V0.0199995H428.8V1.52H430.3ZM443.144 1.52H444.644V0.0199995H443.144V1.52ZM443.144 14.884H441.644V18.2805L444.154 15.9927L443.144 14.884ZM457.808 1.52V0.0199995H457.227L456.798 0.411335L457.808 1.52ZM473.72 1.52L474.707 2.64959L477.717 0.0199995H473.72V1.52ZM452.486 20.2113L473.442 41.0633L475.558 38.9367L454.602 18.0847L452.486 20.2113ZM474.5 38.5H458.744V41.5H474.5V38.5ZM459.822 38.9569L444.222 22.8369L442.066 24.9231L457.666 41.0431L459.822 38.9569ZM441.644 23.88V40H444.644V23.88H441.644ZM443.144 38.5H430.3V41.5H443.144V38.5ZM431.8 40V1.52H428.8V40H431.8ZM430.3 3.02H443.144V0.0199995H430.3V3.02ZM441.644 1.52V14.884H444.644V1.52H441.644ZM444.154 15.9927L458.818 2.62866L456.798 0.411335L442.134 13.7753L444.154 15.9927ZM457.808 3.02H473.72V0.0199995H457.808V3.02ZM472.733 0.390413L452.557 18.0184L454.531 20.2776L474.707 2.64959L472.733 0.390413Z" fill="white"/>
</svg>
