<svg width="412" height="42" viewBox="0 0 412 42" fill="none" xmlns="http://www.w3.org/2000/svg">
<path d="M0.352 11.92H-1.148V13.802L0.686601 13.3822L0.352 11.92ZM0.352 1.52V0.0199995H-1.148V1.52H0.352ZM45.8 1.52L46.1346 2.9822L45.8 0.0199995V1.52ZM45.8 1.52H47.3V0.0199995H45.8V1.52ZM45.8 11.972V13.472H47.3V11.972H45.8ZM29.576 11.972V10.472H28.076V11.972H29.576ZM29.576 40V41.5H31.076V40H29.576ZM16.784 40H15.284V41.5H16.784V40ZM16.784 11.972H18.284V10.472H16.784V11.972ZM0.352 11.972H-1.148V13.472H0.352V11.972ZM0.352 1.52V0.0199995H-1.148V1.52H0.352ZM1.852 11.92V1.52H-1.148V11.92H1.852ZM0.352 3.02H45.8V0.0199995H0.352V3.02ZM45.4654 0.0577948L0.0173995 10.4578L0.686601 13.3822L46.1346 2.9822L45.4654 0.0577948ZM44.3 1.52V11.972H47.3V1.52H44.3ZM45.8 10.472H29.576V13.472H45.8V10.472ZM28.076 11.972V40H31.076V11.972H28.076ZM29.576 38.5H16.784V41.5H29.576V38.5ZM18.284 40V11.972H15.284V40H18.284ZM16.784 10.472H0.352V13.472H16.784V10.472ZM1.852 11.972V1.52H-1.148V11.972H1.852ZM0.352 3.02H45.8V0.0199995H0.352V3.02ZM85.3826 3.34L84.7516 4.70085L84.759 4.70429L84.7665 4.70765L85.3826 3.34ZM94.3786 10.568L93.1478 11.4254L93.1533 11.4333L93.1589 11.4412L94.3786 10.568ZM94.3786 31.212L93.1589 30.3388L93.1523 30.3481L94.3786 31.212ZM85.4346 38.44L86.0553 39.8056L86.0655 39.8009L85.4346 38.44ZM59.9026 38.44L59.2809 39.8052L59.2911 39.8097L59.9026 38.44ZM50.6466 31.212L49.4352 32.0967L49.4408 32.1044L49.4466 32.112L50.6466 31.212ZM50.6466 10.568L49.4417 9.67449L49.4352 9.68331L50.6466 10.568ZM59.8506 3.34L60.4666 4.70766L60.4722 4.70513L59.8506 3.34ZM78.1546 30.068L77.526 28.706L77.5159 28.7108L78.1546 30.068ZM82.5226 26.48L81.3001 25.6107L81.3001 25.6107L82.5226 26.48ZM82.4706 15.352L81.2392 16.2086L81.2499 16.224L81.261 16.239L82.4706 15.352ZM78.1026 11.764L77.474 13.1259L77.4849 13.131L77.4958 13.1358L78.1026 11.764ZM62.5546 15.404L61.3232 14.5474L61.3193 14.553L62.5546 15.404ZM62.6066 26.48L63.829 25.6107L63.829 25.6107L62.6066 26.48ZM66.9226 30.068L66.2839 31.4253L66.294 31.4299L66.9226 30.068ZM72.5386 2.188C77.0984 2.188 81.1602 3.03575 84.7516 4.70085L86.0135 1.97915C81.9782 0.108248 77.4774 -0.812002 72.5386 -0.812002V2.188ZM84.7665 4.70765C88.3982 6.34357 91.1718 8.58894 93.1478 11.4254L95.6094 9.71059C93.2867 6.37639 90.0629 3.8031 85.9986 1.97235L84.7665 4.70765ZM93.1589 11.4412C95.1557 14.2303 96.1546 17.3726 96.1546 20.916H99.1546C99.1546 16.7634 97.9695 13.007 95.5982 9.69483L93.1589 11.4412ZM96.1546 20.916C96.1546 24.4217 95.1574 27.5473 93.1589 30.3388L95.5982 32.0852C97.9677 28.7754 99.1546 25.037 99.1546 20.916H96.1546ZM93.1523 30.3481C91.1728 33.1577 88.4091 35.4075 84.8036 37.0791L86.0655 39.8009C90.0866 37.9365 93.2856 35.3677 95.6048 32.0759L93.1523 30.3481ZM84.8139 37.0745C81.22 38.708 77.1544 39.54 72.5906 39.54V42.54C77.5254 42.54 82.0225 41.6386 86.0553 39.8055L84.8139 37.0745ZM72.5906 39.54C68.209 39.54 64.19 38.7113 60.514 37.0703L59.2911 39.8097C63.3805 41.6353 67.8201 42.54 72.5906 42.54V39.54ZM60.5242 37.0749C56.8426 35.3984 53.9665 33.1386 51.8466 30.312L49.4466 32.112C51.9026 35.3867 55.1972 37.9456 59.2809 39.8051L60.5242 37.0749ZM51.8579 30.3273C49.7899 27.4958 48.7666 24.3729 48.7666 20.916H45.7666C45.7666 25.0165 46.9966 28.7576 49.4352 32.0967L51.8579 30.3273ZM48.7666 20.916C48.7666 17.4214 49.7918 14.2817 51.8579 11.4527L49.4352 9.68331C46.9947 13.025 45.7666 16.784 45.7666 20.916H48.7666ZM51.8514 11.4615C53.9721 8.60174 56.8285 6.34643 60.4666 4.70765L59.2345 1.97235C55.1766 3.80023 51.897 6.36359 49.4417 9.67451L51.8514 11.4615ZM60.4722 4.70513C64.1458 3.03234 68.1612 2.188 72.5386 2.188V-0.812002C67.7639 -0.812002 63.3207 0.111655 59.2289 1.97487L60.4722 4.70513ZM72.5906 32.816C74.7542 32.816 76.8268 32.3506 78.7933 31.4252L77.5159 28.7108C75.9463 29.4494 74.3096 29.816 72.5906 29.816V32.816ZM78.7832 31.4299C80.8141 30.4926 82.4783 29.1306 83.745 27.3493L81.3001 25.6107C80.3482 26.9494 79.1003 27.9794 77.526 28.7061L78.7832 31.4299ZM83.745 27.3493C85.0567 25.5047 85.6866 23.337 85.6866 20.916H82.6866C82.6866 22.7937 82.2071 24.3353 81.3001 25.6107L83.745 27.3493ZM85.6866 20.916C85.6866 18.4848 85.0337 16.3107 83.6802 14.465L81.261 16.239C82.1954 17.5133 82.6866 19.0485 82.6866 20.916H85.6866ZM83.7019 14.4954C82.4331 12.6715 80.7596 11.299 78.7093 10.3922L77.4958 13.1358C79.0509 13.8236 80.2893 14.8431 81.2392 16.2086L83.7019 14.4954ZM78.7312 10.4021C76.736 9.48123 74.65 9.016 72.4866 9.016V12.016C74.2058 12.016 75.8638 12.3828 77.474 13.1259L78.7312 10.4021ZM72.4866 9.016C70.2923 9.016 68.202 9.47966 66.2319 10.4068L67.5093 13.1212C69.0751 12.3843 70.7288 12.016 72.4866 12.016V9.016ZM66.2319 10.4068C64.2273 11.3501 62.5837 12.7354 61.3232 14.5474L63.7859 16.2606C64.7441 14.8832 65.9778 13.8419 67.5093 13.1212L66.2319 10.4068ZM61.3193 14.553C60.0525 16.392 59.4426 18.5342 59.4426 20.916H62.4426C62.4426 19.0685 62.9073 17.536 63.7898 16.255L61.3193 14.553ZM59.4426 20.916C59.4426 23.337 60.0724 25.5047 61.3841 27.3493L63.829 25.6107C62.922 24.3353 62.4426 22.7937 62.4426 20.916H59.4426ZM61.3841 27.3493C62.6461 29.1239 64.2877 30.4858 66.2839 31.4252L67.5613 28.7108C66.0215 27.9862 64.7857 26.9561 63.829 25.6107L61.3841 27.3493ZM66.294 31.4299C68.2927 32.3524 70.3964 32.816 72.5906 32.816V29.816C70.8327 29.816 69.1577 29.4476 67.5512 28.7061L66.294 31.4299ZM124.06 19.148L123.073 18.0184L121.861 19.0767L123.002 20.2113L124.06 19.148ZM145.016 40V41.5H148.65L146.074 38.9367L145.016 40ZM129.26 40L128.182 41.0431L128.624 41.5H129.26V40ZM113.66 23.88L114.737 22.8369L112.16 20.173V23.88H113.66ZM113.66 40V41.5H115.16V40H113.66ZM100.816 40H99.3156V41.5H100.816V40ZM100.816 1.52V0.0199995H99.3156V1.52H100.816ZM113.66 1.52H115.16V0.0199995H113.66V1.52ZM113.66 14.884H112.16V18.2805L114.67 15.9927L113.66 14.884ZM128.324 1.52V0.0199995H127.743L127.313 0.411335L128.324 1.52ZM144.236 1.52L145.223 2.64959L148.232 0.0199995H144.236V1.52ZM123.002 20.2113L143.958 41.0633L146.074 38.9367L125.118 18.0847L123.002 20.2113ZM145.016 38.5H129.26V41.5H145.016V38.5ZM130.337 38.9569L114.737 22.8369L112.582 24.9231L128.182 41.0431L130.337 38.9569ZM112.16 23.88V40H115.16V23.88H112.16ZM113.66 38.5H100.816V41.5H113.66V38.5ZM102.316 40V1.52H99.3156V40H102.316ZM100.816 3.02H113.66V0.0199995H100.816V3.02ZM112.16 1.52V14.884H115.16V1.52H112.16ZM114.67 15.9927L129.334 2.62866L127.313 0.411335L112.649 13.7753L114.67 15.9927ZM128.324 3.02H144.236V0.0199995H128.324V3.02ZM143.249 0.390413L123.073 18.0184L125.047 20.2776L145.223 2.64959L143.249 0.390413ZM183.031 25.024V26.524H184.531V25.024H183.031ZM159.007 25.024V23.524H157.507V25.024H159.007ZM159.007 30.9H157.507V32.411L159.018 32.4L159.007 30.9ZM187.399 30.692H188.899V29.181L187.388 29.192L187.399 30.692ZM187.399 40V41.5H188.899V40H187.399ZM146.163 40H144.663V41.5H146.163V40ZM146.163 1.52V0.0199995H144.663V1.52H146.163ZM187.399 1.52L188.899 1.51162L188.891 0.0199995H187.399V1.52ZM187.451 10.828V12.328H188.96L188.951 10.8196L187.451 10.828ZM159.007 10.828V9.328H157.507V10.828H159.007ZM159.007 15.924H157.507V17.424H159.007V15.924ZM183.031 15.924H184.531V14.424H183.031V15.924ZM183.031 23.524H159.007V26.524H183.031V23.524ZM157.507 25.024V30.9H160.507V25.024H157.507ZM159.018 32.4L187.41 32.192L187.388 29.192L158.996 29.4L159.018 32.4ZM185.899 30.692V40H188.899V30.692H185.899ZM187.399 38.5H146.163V41.5H187.399V38.5ZM147.663 40V1.52H144.663V40H147.663ZM146.163 3.02H187.399V0.0199995H146.163V3.02ZM185.899 1.52838L185.951 10.8364L188.951 10.8196L188.899 1.51162L185.899 1.52838ZM187.451 9.328H159.007V12.328H187.451V9.328ZM157.507 10.828V15.924H160.507V10.828H157.507ZM159.007 17.424H183.031V14.424H159.007V17.424ZM181.531 15.924V25.024H184.531V15.924H181.531ZM203.796 40V41.5H205.878L205.219 39.5251L203.796 40ZM190.952 40H189.452V41.5H190.952V40ZM190.952 1.52L192.375 1.04508L189.452 1.52H190.952ZM227.3 25.076L226.238 26.1355L228.8 28.703V25.076H227.3ZM227.3 1.52V0.0199995H225.8V1.52H227.3ZM240.092 1.52H241.592V0.0199995H240.092V1.52ZM240.092 40V41.5H241.592V40H240.092ZM227.3 40L226.238 41.0595L226.678 41.5H227.3V40ZM203.796 16.444L204.858 15.3845L202.296 12.817V16.444H203.796ZM203.796 40V41.5H205.296V40H203.796ZM190.952 40H189.452V41.5H190.952V40ZM190.952 1.52V0.0199995H189.452V1.52H190.952ZM203.796 1.52L204.858 0.460512L204.419 0.0199995H203.796V1.52ZM203.796 38.5H190.952V41.5H203.796V38.5ZM192.452 40V1.52H189.452V40H192.452ZM189.529 1.99492L202.373 40.4749L205.219 39.5251L192.375 1.04508L189.529 1.99492ZM240.092 38.5H227.3V41.5H240.092V38.5ZM227.3 41.5H240.092V38.5H227.3V41.5ZM228.8 25.076V1.52H225.8V25.076H228.8ZM227.3 3.02H240.092V0.0199995H227.3V3.02ZM238.592 1.52V40H241.592V1.52H238.592ZM240.092 38.5H227.3V41.5H240.092V38.5ZM228.362 38.9405L204.858 15.3845L202.734 17.5035L226.238 41.0595L228.362 38.9405ZM202.296 16.444V40H205.296V16.444H202.296ZM203.796 38.5H190.952V41.5H203.796V38.5ZM192.452 40V1.52H189.452V40H192.452ZM190.952 3.02H203.796V0.0199995H190.952V3.02ZM202.734 2.57949L226.238 26.1355L228.362 24.0165L204.858 0.460512L202.734 2.57949ZM272.609 17.12V15.6199L272.595 15.6201L272.609 17.12ZM281.501 17.848L281.218 19.3212L281.23 19.3234L281.241 19.3254L281.501 17.848ZM287.897 20.812L286.895 21.9281L286.9 21.9331L286.906 21.9381L287.897 20.812ZM283.321 38.388L283.871 39.7835L283.876 39.7814L283.321 38.388ZM250.925 38.336L250.385 39.7353L250.393 39.7385L250.925 38.336ZM243.385 27.312L243.379 25.812L241.885 25.8179V27.312H243.385ZM256.645 27.26H258.145V25.7541L256.639 25.76L256.645 27.26ZM259.869 31.836L259.429 33.2702L259.443 33.2744L259.457 33.2783L259.869 31.836ZM274.533 31.576L273.972 30.1849L273.963 30.1885L274.533 31.576ZM275.677 25.388L275.12 26.7807L275.12 26.7807L275.677 25.388ZM271.777 24.504L271.665 25.9998L271.665 25.9998L271.777 24.504ZM266.785 24.296L266.812 22.7962L266.798 22.796H266.785V24.296ZM253.109 23.62L252.847 25.097L252.858 25.0989L252.868 25.1006L253.109 23.62ZM246.193 20.5L245.22 21.6419L245.22 21.6419L246.193 20.5ZM250.665 2.872L251.142 4.29402L251.148 4.29197L250.665 2.872ZM290.497 14.26V15.76H291.997V14.26H290.497ZM277.445 14.26H275.945V15.76H277.445V14.26ZM274.481 10.412L273.869 11.7817L273.884 11.7882L273.899 11.7945L274.481 10.412ZM267.357 8.956L267.412 7.45703L267.385 7.456H267.357V8.956ZM259.765 16.392L260.123 14.9354L260.123 14.9354L259.765 16.392ZM266.941 17.172V18.6721L266.955 18.6719L266.941 17.172ZM272.609 18.62C275.94 18.62 278.805 18.8583 281.218 19.3212L281.783 16.3748C279.136 15.8671 276.073 15.62 272.609 15.62V18.62ZM281.241 19.3254C283.57 19.7345 285.433 20.6156 286.895 21.9281L288.899 19.6959C286.963 17.9577 284.562 16.8629 281.761 16.3706L281.241 19.3254ZM286.906 21.9381C288.235 23.1074 288.997 24.866 288.997 27.468H291.997C291.997 24.246 291.026 21.5673 288.888 19.6859L286.906 21.9381ZM288.997 27.468C288.997 29.9306 288.451 31.8806 287.449 33.4042C286.451 34.9231 284.925 36.1338 282.766 36.9946L283.876 39.7814C286.501 38.7355 288.563 37.1729 289.957 35.0518C291.347 32.9354 291.997 30.3787 291.997 27.468H288.997ZM282.771 36.9925C278.223 38.7853 273.075 39.696 267.305 39.696V42.696C273.391 42.696 278.921 41.7347 283.871 39.7835L282.771 36.9925ZM267.305 39.696C261.576 39.696 256.298 38.7698 251.457 36.9335L250.393 39.7385C255.605 41.7156 261.247 42.696 267.305 42.696V39.696ZM251.465 36.9367C249.175 36.052 247.56 34.8154 246.508 33.2772C245.456 31.7386 244.885 29.7796 244.885 27.312H241.885C241.885 30.2524 242.571 32.8348 244.032 34.9708C245.493 37.1073 247.649 38.6786 250.385 39.7353L251.465 36.9367ZM243.391 28.812L256.651 28.76L256.639 25.76L243.379 25.812L243.391 28.812ZM255.145 27.26C255.145 28.6782 255.465 29.9834 256.225 31.0619C256.991 32.1491 258.104 32.8639 259.429 33.2702L260.308 30.4018C259.485 30.1494 258.986 29.7723 258.677 29.3341C258.362 28.8872 258.145 28.2338 258.145 27.26H255.145ZM259.457 33.2783C261.806 33.9496 264.499 34.272 267.513 34.272V31.272C264.703 31.272 262.3 30.9704 260.281 30.3937L259.457 33.2783ZM267.513 34.272C270.39 34.272 272.935 33.854 275.103 32.9635L273.963 30.1885C272.249 30.8927 270.113 31.272 267.513 31.272V34.272ZM275.094 32.967C276.258 32.4973 277.25 31.832 277.95 30.9106C278.663 29.9723 278.997 28.8691 278.997 27.676H275.997C275.997 28.2855 275.837 28.7337 275.562 29.0954C275.274 29.474 274.784 29.8573 273.972 30.185L275.094 32.967ZM278.997 27.676V27.624H275.997V27.676H278.997ZM278.997 27.624C278.997 26.7936 278.737 26.0173 278.205 25.3641C277.693 24.7353 276.996 24.3 276.234 23.9953L275.12 26.7807C275.571 26.9613 275.784 27.1414 275.879 27.2579C275.954 27.35 275.997 27.4491 275.997 27.624H278.997ZM276.234 23.9953C274.87 23.4495 273.419 23.1229 271.889 23.0082L271.665 25.9998C272.909 26.0931 274.058 26.3558 275.12 26.7807L276.234 23.9953ZM271.889 23.0082C270.465 22.9014 268.771 22.8312 266.812 22.7962L266.758 25.7958C268.681 25.8301 270.315 25.8986 271.665 25.9998L271.889 23.0082ZM266.785 22.796H262.885V25.796H266.785V22.796ZM262.885 22.796C259.197 22.796 256.022 22.5737 253.35 22.1394L252.868 25.1006C255.742 25.5676 259.085 25.796 262.885 25.796V22.796ZM253.371 22.143C250.86 21.698 248.809 20.7581 247.166 19.3581L245.22 21.6419C247.321 23.4312 249.881 24.5713 252.847 25.097L253.371 22.143ZM247.166 19.3581C245.714 18.1219 244.885 16.236 244.885 13.428H241.885C241.885 16.86 242.928 19.6888 245.22 21.6419L247.166 19.3581ZM244.885 13.428C244.885 10.9474 245.44 9.03437 246.44 7.5846C247.435 6.14195 248.961 5.02644 251.142 4.294L250.188 1.44999C247.516 2.34689 245.402 3.80538 243.97 5.8814C242.543 7.9503 241.885 10.5006 241.885 13.428H244.885ZM251.148 4.29197C255.853 2.69042 261.232 1.876 267.305 1.876V-1.124C260.967 -1.124 255.253 -0.274422 250.182 1.45202L251.148 4.29197ZM267.305 1.876C272.963 1.876 278.095 2.80172 282.717 4.63078L283.821 1.84122C278.806 -0.143054 273.295 -1.124 267.305 -1.124V1.876ZM282.717 4.63078C284.892 5.49127 286.429 6.70962 287.436 8.24447C288.446 9.78485 288.997 11.7609 288.997 14.26H291.997C291.997 11.3164 291.344 8.73382 289.944 6.59953C288.541 4.45972 286.465 2.88739 283.821 1.84122L282.717 4.63078ZM290.497 12.76H277.445V15.76H290.497V12.76ZM278.945 14.26C278.945 13.0871 278.603 12.0054 277.892 11.0827C277.197 10.1797 276.215 9.51463 275.063 9.02955L273.899 11.7945C274.723 12.1414 275.223 12.5336 275.516 12.9133C275.793 13.2732 275.945 13.6995 275.945 14.26H278.945ZM275.092 9.04229C272.929 8.0766 270.354 7.56597 267.412 7.45703L267.301 10.455C269.976 10.554 272.15 11.0141 273.869 11.7817L275.092 9.04229ZM267.357 7.456C264.236 7.456 261.517 7.81352 259.239 8.57297L260.187 11.419C262.069 10.7918 264.446 10.456 267.357 10.456V7.456ZM259.239 8.57297C258.064 8.96443 257.035 9.51461 256.287 10.3005C255.505 11.1218 255.093 12.1365 255.093 13.272H258.093C258.093 12.9168 258.201 12.6402 258.459 12.3695C258.751 12.0634 259.282 11.7209 260.187 11.419L259.239 8.57297ZM255.093 13.272C255.093 14.4309 255.503 15.4735 256.334 16.2914C257.125 17.069 258.202 17.5524 259.407 17.8486L260.123 14.9354C259.213 14.7116 258.705 14.415 258.438 14.1526C258.212 13.9305 258.093 13.6731 258.093 13.272H255.093ZM259.407 17.8486C261.661 18.403 264.177 18.672 266.941 18.672V15.672C264.366 15.672 262.098 15.421 260.123 14.9354L259.407 17.8486ZM266.955 18.6719L272.623 18.6199L272.595 15.6201L266.927 15.6721L266.955 18.6719ZM347.058 3.34L346.427 4.70085L346.435 4.70429L346.442 4.70765L347.058 3.34ZM356.054 10.568L354.824 11.4254L354.829 11.4333L354.835 11.4412L356.054 10.568ZM356.054 31.212L354.835 30.3388L354.828 30.3481L356.054 31.212ZM347.11 38.44L347.731 39.8056L347.741 39.8009L347.11 38.44ZM321.578 38.44L320.957 39.8052L320.967 39.8097L321.578 38.44ZM312.322 31.212L311.111 32.0967L311.117 32.1044L311.122 32.112L312.322 31.212ZM312.322 10.568L311.117 9.67449L311.111 9.68331L312.322 10.568ZM321.526 3.34L322.142 4.70766L322.148 4.70513L321.526 3.34ZM339.83 30.068L339.202 28.706L339.192 28.7108L339.83 30.068ZM344.198 26.48L342.976 25.6107L342.976 25.6107L344.198 26.48ZM344.146 15.352L342.915 16.2086L342.926 16.224L342.937 16.239L344.146 15.352ZM339.778 11.764L339.15 13.1259L339.161 13.131L339.172 13.1358L339.778 11.764ZM324.23 15.404L322.999 14.5474L322.995 14.553L324.23 15.404ZM324.282 26.48L325.505 25.6107L325.505 25.6107L324.282 26.48ZM328.598 30.068L327.96 31.4253L327.97 31.4299L328.598 30.068ZM334.214 2.188C338.774 2.188 342.836 3.03575 346.427 4.70085L347.689 1.97915C343.654 0.108248 339.153 -0.812002 334.214 -0.812002V2.188ZM346.442 4.70765C350.074 6.34357 352.848 8.58894 354.824 11.4254L357.285 9.71059C354.962 6.37639 351.739 3.8031 347.674 1.97235L346.442 4.70765ZM354.835 11.4412C356.831 14.2303 357.83 17.3726 357.83 20.916H360.83C360.83 16.7634 359.645 13.007 357.274 9.69483L354.835 11.4412ZM357.83 20.916C357.83 24.4217 356.833 27.5473 354.835 30.3388L357.274 32.0852C359.643 28.7754 360.83 25.037 360.83 20.916H357.83ZM354.828 30.3481C352.849 33.1577 350.085 35.4075 346.479 37.0791L347.741 39.8009C351.762 37.9365 354.961 35.3677 357.281 32.0759L354.828 30.3481ZM346.49 37.0745C342.896 38.708 338.83 39.54 334.266 39.54V42.54C339.201 42.54 343.698 41.6386 347.731 39.8055L346.49 37.0745ZM334.266 39.54C329.885 39.54 325.866 38.7113 322.19 37.0703L320.967 39.8097C325.056 41.6353 329.496 42.54 334.266 42.54V39.54ZM322.2 37.0749C318.518 35.3984 315.642 33.1386 313.522 30.312L311.122 32.112C313.578 35.3867 316.873 37.9456 320.957 39.8051L322.2 37.0749ZM313.534 30.3273C311.466 27.4958 310.442 24.3729 310.442 20.916H307.442C307.442 25.0165 308.672 28.7576 311.111 32.0967L313.534 30.3273ZM310.442 20.916C310.442 17.4214 311.468 14.2817 313.534 11.4527L311.111 9.68331C308.67 13.025 307.442 16.784 307.442 20.916H310.442ZM313.527 11.4615C315.648 8.60174 318.504 6.34643 322.142 4.70765L320.91 1.97235C316.852 3.80023 313.573 6.36359 311.117 9.67451L313.527 11.4615ZM322.148 4.70513C325.822 3.03234 329.837 2.188 334.214 2.188V-0.812002C329.44 -0.812002 324.996 0.111655 320.905 1.97487L322.148 4.70513ZM334.266 32.816C336.43 32.816 338.503 32.3506 340.469 31.4252L339.192 28.7108C337.622 29.4494 335.985 29.816 334.266 29.816V32.816ZM340.459 31.4299C342.49 30.4926 344.154 29.1306 345.421 27.3493L342.976 25.6107C342.024 26.9494 340.776 27.9794 339.202 28.7061L340.459 31.4299ZM345.421 27.3493C346.732 25.5047 347.362 23.337 347.362 20.916H344.362C344.362 22.7937 343.883 24.3353 342.976 25.6107L345.421 27.3493ZM347.362 20.916C347.362 18.4848 346.709 16.3107 345.356 14.465L342.937 16.239C343.871 17.5133 344.362 19.0485 344.362 20.916H347.362ZM345.378 14.4954C344.109 12.6715 342.435 11.299 340.385 10.3922L339.172 13.1358C340.727 13.8236 341.965 14.8431 342.915 16.2086L345.378 14.4954ZM340.407 10.4021C338.412 9.48123 336.326 9.016 334.162 9.016V12.016C335.882 12.016 337.54 12.3828 339.15 13.1259L340.407 10.4021ZM334.162 9.016C331.968 9.016 329.878 9.47966 327.908 10.4068L329.185 13.1212C330.751 12.3843 332.405 12.016 334.162 12.016V9.016ZM327.908 10.4068C325.903 11.3501 324.259 12.7354 322.999 14.5474L325.462 16.2606C326.42 14.8832 327.654 13.8419 329.185 13.1212L327.908 10.4068ZM322.995 14.553C321.728 16.392 321.118 18.5342 321.118 20.916H324.118C324.118 19.0685 324.583 17.536 325.466 16.255L322.995 14.553ZM321.118 20.916C321.118 23.337 321.748 25.5047 323.06 27.3493L325.505 25.6107C324.598 24.3353 324.118 22.7937 324.118 20.916H321.118ZM323.06 27.3493C324.322 29.1239 325.963 30.4858 327.96 31.4252L329.237 28.7108C327.697 27.9862 326.461 26.9561 325.505 25.6107L323.06 27.3493ZM327.97 31.4299C329.969 32.3524 332.072 32.816 334.266 32.816V29.816C332.508 29.816 330.833 29.4476 329.227 28.7061L327.97 31.4299ZM375.335 40V41.5H377.417L376.758 39.5251L375.335 40ZM362.491 40H360.991V41.5H362.491V40ZM362.491 1.52L363.914 1.04508L360.991 1.52H362.491ZM398.839 25.076L397.778 26.1355L400.339 28.703V25.076H398.839ZM398.839 1.52V0.0199995H397.339V1.52H398.839ZM411.631 1.52H413.131V0.0199995H411.631V1.52ZM411.631 40V41.5H413.131V40H411.631ZM398.839 40L397.778 41.0595L398.217 41.5H398.839V40ZM375.335 16.444L376.397 15.3845L373.835 12.817V16.444H375.335ZM375.335 40V41.5H376.835V40H375.335ZM362.491 40H360.991V41.5H362.491V40ZM362.491 1.52V0.0199995H360.991V1.52H362.491ZM375.335 1.52L376.397 0.460512L375.958 0.0199995H375.335V1.52ZM375.335 38.5H362.491V41.5H375.335V38.5ZM363.991 40V1.52H360.991V40H363.991ZM361.069 1.99492L373.913 40.4749L376.758 39.5251L363.914 1.04508L361.069 1.99492ZM411.631 38.5H398.839V41.5H411.631V38.5ZM398.839 41.5H411.631V38.5H398.839V41.5ZM400.339 25.076V1.52H397.339V25.076H400.339ZM398.839 3.02H411.631V0.0199995H398.839V3.02ZM410.131 1.52V40H413.131V1.52H410.131ZM411.631 38.5H398.839V41.5H411.631V38.5ZM399.901 38.9405L376.397 15.3845L374.274 17.5035L397.778 41.0595L399.901 38.9405ZM373.835 16.444V40H376.835V16.444H373.835ZM375.335 38.5H362.491V41.5H375.335V38.5ZM363.991 40V1.52H360.991V40H363.991ZM362.491 3.02H375.335V0.0199995H362.491V3.02ZM374.274 2.57949L397.778 26.1355L399.901 24.0165L376.397 0.460512L374.274 2.57949Z" fill="white"/>
</svg>
