<svg width="344" height="42" viewBox="0 0 344 42" fill="none" xmlns="http://www.w3.org/2000/svg">
<path d="M37.728 3.132L37.1278 4.5067L37.1348 4.50972L37.728 3.132ZM43.5 7.656L42.2691 8.51324L42.2779 8.52584L42.2869 8.53825L43.5 7.656ZM41.316 24.192L42.2478 25.3675L42.2565 25.3605L41.316 24.192ZM12.976 27.572V26.072H11.476V27.572H12.976ZM12.976 40V41.5H14.476V40H12.976ZM0.132 40H-1.368V41.5H0.132V40ZM0.132 1.52V0.0199995H-1.368V1.52H0.132ZM30.916 18.316L30.7441 16.8259L30.7373 16.8267L30.916 18.316ZM33.152 17.328L34.18 18.4203L34.1801 18.4203L33.152 17.328ZM33.152 11.712L34.2127 10.6513L34.2127 10.6513L33.152 11.712ZM30.864 10.62L30.6442 12.1038L30.6442 12.1038L30.864 10.62ZM21.556 10.464V11.964H21.571L21.586 11.9637L21.556 10.464ZM12.976 10.464V8.964H11.476V10.464H12.976ZM12.976 18.472H11.476V19.972H12.976V18.472ZM29.2 3.02C32.2581 3.02 34.8897 3.5295 37.1278 4.50668L38.3282 1.75732C35.6436 0.585159 32.5899 0.0199995 29.2 0.0199995V3.02ZM37.1348 4.50972C39.4129 5.49056 41.0996 6.83401 42.2691 8.51324L44.7309 6.79876C43.1964 4.59532 41.0351 2.92277 38.3212 1.75427L37.1348 4.50972ZM42.2869 8.53825C43.4731 10.1693 44.08 12.0737 44.08 14.312H47.08C47.08 11.489 46.3002 8.95602 44.7131 6.77374L42.2869 8.53825ZM44.08 14.312V14.52H47.08V14.312H44.08ZM44.08 14.52C44.08 18.2976 42.8121 21.0623 40.3755 23.0235L42.2565 25.3605C45.5053 22.7457 47.08 19.0624 47.08 14.52H44.08ZM40.3842 23.0165C37.8875 24.9956 34.3724 26.072 29.668 26.072V29.072C34.8089 29.072 39.0592 27.895 42.2478 25.3675L40.3842 23.0165ZM29.668 26.072H12.976V29.072H29.668V26.072ZM11.476 27.572V40H14.476V27.572H11.476ZM12.976 38.5H0.132V41.5H12.976V38.5ZM1.632 40V1.52H-1.368V40H1.632ZM0.132 3.02H29.2V0.0199995H0.132V3.02ZM26.912 19.972C28.7256 19.972 30.1346 19.9205 31.0947 19.8053L30.7373 16.8267C29.9641 16.9195 28.7038 16.972 26.912 16.972V19.972ZM31.0879 19.8061C32.2693 19.6698 33.3274 19.2228 34.18 18.4203L32.124 16.2357C31.7979 16.5425 31.3654 16.7542 30.7441 16.8259L31.0879 19.8061ZM34.1801 18.4203C35.2075 17.4533 35.536 16.0323 35.536 14.572H32.536C32.536 15.677 32.2752 16.0934 32.124 16.2357L34.1801 18.4203ZM35.536 14.572C35.536 13.0803 35.2094 11.6481 34.2127 10.6513L32.0913 12.7727C32.2733 12.9546 32.536 13.4291 32.536 14.572H35.536ZM34.2127 10.6513C33.3655 9.80419 32.2932 9.31537 31.0838 9.13619L30.6442 12.1038C31.3068 12.202 31.7598 12.4411 32.0913 12.7727L34.2127 10.6513ZM31.0838 9.13619C30.0394 8.98146 28.6362 8.912 26.912 8.912V11.912C28.5851 11.912 29.8166 11.9812 30.6442 12.1038L31.0838 9.13619ZM26.912 8.912H25.196V11.912H26.912V8.912ZM25.196 8.912C24.4859 8.912 23.2589 8.92964 21.526 8.9643L21.586 11.9637C23.3197 11.929 24.5194 11.912 25.196 11.912V8.912ZM21.556 8.964C21.5526 8.964 21.5492 8.964 21.5458 8.964C21.5424 8.964 21.539 8.964 21.5356 8.964C21.5322 8.964 21.5288 8.964 21.5254 8.964C21.522 8.964 21.5186 8.964 21.5152 8.964C21.5117 8.964 21.5083 8.964 21.5049 8.964C21.5015 8.964 21.498 8.964 21.4946 8.964C21.4912 8.964 21.4877 8.964 21.4843 8.964C21.4808 8.964 21.4774 8.964 21.4739 8.964C21.4705 8.964 21.467 8.964 21.4635 8.964C21.4601 8.964 21.4566 8.964 21.4531 8.964C21.4497 8.964 21.4462 8.964 21.4427 8.964C21.4392 8.964 21.4358 8.964 21.4323 8.964C21.4288 8.964 21.4253 8.964 21.4218 8.964C21.4183 8.964 21.4148 8.964 21.4113 8.964C21.4078 8.964 21.4043 8.964 21.4008 8.964C21.3972 8.964 21.3937 8.964 21.3902 8.964C21.3867 8.964 21.3831 8.964 21.3796 8.964C21.3761 8.964 21.3726 8.964 21.369 8.964C21.3655 8.964 21.3619 8.964 21.3584 8.964C21.3548 8.964 21.3513 8.964 21.3477 8.964C21.3442 8.964 21.3406 8.964 21.337 8.964C21.3335 8.964 21.3299 8.964 21.3263 8.964C21.3227 8.964 21.3192 8.964 21.3156 8.964C21.312 8.964 21.3084 8.964 21.3048 8.964C21.3012 8.964 21.2976 8.964 21.294 8.964C21.2904 8.964 21.2868 8.964 21.2832 8.964C21.2796 8.964 21.276 8.964 21.2724 8.964C21.2688 8.964 21.2651 8.964 21.2615 8.964C21.2579 8.964 21.2543 8.964 21.2506 8.964C21.247 8.964 21.2434 8.964 21.2397 8.964C21.2361 8.964 21.2324 8.964 21.2288 8.964C21.2251 8.964 21.2215 8.964 21.2178 8.964C21.2141 8.964 21.2105 8.964 21.2068 8.964C21.2031 8.964 21.1995 8.964 21.1958 8.964C21.1921 8.964 21.1884 8.964 21.1847 8.964C21.1811 8.964 21.1774 8.964 21.1737 8.964C21.17 8.964 21.1663 8.964 21.1626 8.964C21.1589 8.964 21.1552 8.964 21.1514 8.964C21.1477 8.964 21.144 8.964 21.1403 8.964C21.1366 8.964 21.1328 8.964 21.1291 8.964C21.1254 8.964 21.1217 8.964 21.1179 8.964C21.1142 8.964 21.1104 8.964 21.1067 8.964C21.1029 8.964 21.0992 8.964 21.0954 8.964C21.0917 8.964 21.0879 8.964 21.0842 8.964C21.0804 8.964 21.0766 8.964 21.0729 8.964C21.0691 8.964 21.0653 8.964 21.0615 8.964C21.0577 8.964 21.054 8.964 21.0502 8.964C21.0464 8.964 21.0426 8.964 21.0388 8.964C21.035 8.964 21.0312 8.964 21.0274 8.964C21.0236 8.964 21.0198 8.964 21.016 8.964C21.0121 8.964 21.0083 8.964 21.0045 8.964C21.0007 8.964 20.9968 8.964 20.993 8.964C20.9892 8.964 20.9853 8.964 20.9815 8.964C20.9777 8.964 20.9738 8.964 20.97 8.964C20.9661 8.964 20.9623 8.964 20.9584 8.964C20.9545 8.964 20.9507 8.964 20.9468 8.964C20.9429 8.964 20.9391 8.964 20.9352 8.964C20.9313 8.964 20.9274 8.964 20.9236 8.964C20.9197 8.964 20.9158 8.964 20.9119 8.964C20.908 8.964 20.9041 8.964 20.9002 8.964C20.8963 8.964 20.8924 8.964 20.8885 8.964C20.8846 8.964 20.8807 8.964 20.8767 8.964C20.8728 8.964 20.8689 8.964 20.865 8.964C20.8611 8.964 20.8571 8.964 20.8532 8.964C20.8493 8.964 20.8453 8.964 20.8414 8.964C20.8374 8.964 20.8335 8.964 20.8295 8.964C20.8256 8.964 20.8216 8.964 20.8177 8.964C20.8137 8.964 20.8097 8.964 20.8058 8.964C20.8018 8.964 20.7978 8.964 20.7938 8.964C20.7899 8.964 20.7859 8.964 20.7819 8.964C20.7779 8.964 20.7739 8.964 20.7699 8.964C20.7659 8.964 20.7619 8.964 20.7579 8.964C20.7539 8.964 20.7499 8.964 20.7459 8.964C20.7419 8.964 20.7379 8.964 20.7338 8.964C20.7298 8.964 20.7258 8.964 20.7218 8.964C20.7177 8.964 20.7137 8.964 20.7097 8.964C20.7056 8.964 20.7016 8.964 20.6975 8.964C20.6935 8.964 20.6894 8.964 20.6854 8.964C20.6813 8.964 20.6773 8.964 20.6732 8.964C20.6691 8.964 20.6651 8.964 20.661 8.964C20.6569 8.964 20.6528 8.964 20.6487 8.964C20.6447 8.964 20.6406 8.964 20.6365 8.964C20.6324 8.964 20.6283 8.964 20.6242 8.964C20.6201 8.964 20.616 8.964 20.6119 8.964C20.6078 8.964 20.6037 8.964 20.5996 8.964C20.5954 8.964 20.5913 8.964 20.5872 8.964C20.5831 8.964 20.5789 8.964 20.5748 8.964C20.5707 8.964 20.5665 8.964 20.5624 8.964C20.5583 8.964 20.5541 8.964 20.55 8.964C20.5458 8.964 20.5417 8.964 20.5375 8.964C20.5333 8.964 20.5292 8.964 20.525 8.964C20.5208 8.964 20.5167 8.964 20.5125 8.964C20.5083 8.964 20.5041 8.964 20.5 8.964C20.4958 8.964 20.4916 8.964 20.4874 8.964C20.4832 8.964 20.479 8.964 20.4748 8.964C20.4706 8.964 20.4664 8.964 20.4622 8.964C20.458 8.964 20.4537 8.964 20.4495 8.964C20.4453 8.964 20.4411 8.964 20.4369 8.964C20.4326 8.964 20.4284 8.964 20.4242 8.964C20.4199 8.964 20.4157 8.964 20.4114 8.964C20.4072 8.964 20.4029 8.964 20.3987 8.964C20.3944 8.964 20.3902 8.964 20.3859 8.964C20.3817 8.964 20.3774 8.964 20.3731 8.964C20.3688 8.964 20.3646 8.964 20.3603 8.964C20.356 8.964 20.3517 8.964 20.3474 8.964C20.3432 8.964 20.3389 8.964 20.3346 8.964C20.3303 8.964 20.326 8.964 20.3217 8.964C20.3174 8.964 20.313 8.964 20.3087 8.964C20.3044 8.964 20.3001 8.964 20.2958 8.964C20.2915 8.964 20.2871 8.964 20.2828 8.964C20.2785 8.964 20.2741 8.964 20.2698 8.964C20.2655 8.964 20.2611 8.964 20.2568 8.964C20.2524 8.964 20.2481 8.964 20.2437 8.964C20.2393 8.964 20.235 8.964 20.2306 8.964C20.2263 8.964 20.2219 8.964 20.2175 8.964C20.2131 8.964 20.2088 8.964 20.2044 8.964C20.2 8.964 20.1956 8.964 20.1912 8.964C20.1868 8.964 20.1824 8.964 20.178 8.964C20.1736 8.964 20.1692 8.964 20.1648 8.964C20.1604 8.964 20.156 8.964 20.1516 8.964C20.1472 8.964 20.1427 8.964 20.1383 8.964C20.1339 8.964 20.1295 8.964 20.125 8.964C20.1206 8.964 20.1162 8.964 20.1117 8.964C20.1073 8.964 20.1028 8.964 20.0984 8.964C20.0939 8.964 20.0895 8.964 20.085 8.964C20.0805 8.964 20.0761 8.964 20.0716 8.964C20.0671 8.964 20.0627 8.964 20.0582 8.964C20.0537 8.964 20.0492 8.964 20.0448 8.964C20.0403 8.964 20.0358 8.964 20.0313 8.964C20.0268 8.964 20.0223 8.964 20.0178 8.964C20.0133 8.964 20.0088 8.964 20.0043 8.964C19.9998 8.964 19.9952 8.964 19.9907 8.964C19.9862 8.964 19.9817 8.964 19.9771 8.964C19.9726 8.964 19.9681 8.964 19.9635 8.964C19.959 8.964 19.9545 8.964 19.9499 8.964C19.9454 8.964 19.9408 8.964 19.9363 8.964C19.9317 8.964 19.9272 8.964 19.9226 8.964C19.918 8.964 19.9135 8.964 19.9089 8.964C19.9043 8.964 19.8997 8.964 19.8952 8.964C19.8906 8.964 19.886 8.964 19.8814 8.964C19.8768 8.964 19.8722 8.964 19.8676 8.964C19.863 8.964 19.8584 8.964 19.8538 8.964C19.8492 8.964 19.8446 8.964 19.84 8.964C19.8354 8.964 19.8308 8.964 19.8261 8.964C19.8215 8.964 19.8169 8.964 19.8123 8.964C19.8076 8.964 19.803 8.964 19.7983 8.964C19.7937 8.964 19.7891 8.964 19.7844 8.964C19.7798 8.964 19.7751 8.964 19.7705 8.964C19.7658 8.964 19.7611 8.964 19.7565 8.964C19.7518 8.964 19.7471 8.964 19.7425 8.964C19.7378 8.964 19.7331 8.964 19.7284 8.964C19.7237 8.964 19.719 8.964 19.7144 8.964C19.7097 8.964 19.705 8.964 19.7003 8.964C19.6956 8.964 19.6909 8.964 19.6862 8.964C19.6814 8.964 19.6767 8.964 19.672 8.964C19.6673 8.964 19.6626 8.964 19.6578 8.964C19.6531 8.964 19.6484 8.964 19.6437 8.964C19.6389 8.964 19.6342 8.964 19.6294 8.964C19.6247 8.964 19.6199 8.964 19.6152 8.964C19.6104 8.964 19.6057 8.964 19.6009 8.964C19.5962 8.964 19.5914 8.964 19.5866 8.964C19.5819 8.964 19.5771 8.964 19.5723 8.964C19.5675 8.964 19.5627 8.964 19.558 8.964C19.5532 8.964 19.5484 8.964 19.5436 8.964C19.5388 8.964 19.534 8.964 19.5292 8.964C19.5244 8.964 19.5196 8.964 19.5148 8.964C19.51 8.964 19.5051 8.964 19.5003 8.964C19.4955 8.964 19.4907 8.964 19.4858 8.964C19.481 8.964 19.4762 8.964 19.4713 8.964C19.4665 8.964 19.4617 8.964 19.4568 8.964C19.452 8.964 19.4471 8.964 19.4423 8.964C19.4374 8.964 19.4325 8.964 19.4277 8.964C19.4228 8.964 19.4179 8.964 19.4131 8.964C19.4082 8.964 19.4033 8.964 19.3984 8.964C19.3936 8.964 19.3887 8.964 19.3838 8.964C19.3789 8.964 19.374 8.964 19.3691 8.964C19.3642 8.964 19.3593 8.964 19.3544 8.964C19.3495 8.964 19.3446 8.964 19.3397 8.964C19.3347 8.964 19.3298 8.964 19.3249 8.964C19.32 8.964 19.3151 8.964 19.3101 8.964C19.3052 8.964 19.3003 8.964 19.2953 8.964C19.2904 8.964 19.2854 8.964 19.2805 8.964C19.2755 8.964 19.2706 8.964 19.2656 8.964C19.2607 8.964 19.2557 8.964 19.2507 8.964C19.2458 8.964 19.2408 8.964 19.2358 8.964C19.2308 8.964 19.2259 8.964 19.2209 8.964C19.2159 8.964 19.2109 8.964 19.2059 8.964C19.2009 8.964 19.1959 8.964 19.1909 8.964C19.1859 8.964 19.1809 8.964 19.1759 8.964C19.1709 8.964 19.1659 8.964 19.1609 8.964C19.1558 8.964 19.1508 8.964 19.1458 8.964C19.1408 8.964 19.1357 8.964 19.1307 8.964C19.1257 8.964 19.1206 8.964 19.1156 8.964C19.1105 8.964 19.1055 8.964 19.1004 8.964C19.0954 8.964 19.0903 8.964 19.0853 8.964C19.0802 8.964 19.0751 8.964 19.0701 8.964C19.065 8.964 19.0599 8.964 19.0548 8.964C19.0498 8.964 19.0447 8.964 19.0396 8.964C19.0345 8.964 19.0294 8.964 19.0243 8.964C19.0192 8.964 19.0141 8.964 19.009 8.964C19.0039 8.964 18.9988 8.964 18.9937 8.964C18.9886 8.964 18.9834 8.964 18.9783 8.964C18.9732 8.964 18.9681 8.964 18.9629 8.964C18.9578 8.964 18.9527 8.964 18.9475 8.964C18.9424 8.964 18.9373 8.964 18.9321 8.964C18.927 8.964 18.9218 8.964 18.9167 8.964C18.9115 8.964 18.9063 8.964 18.9012 8.964C18.896 8.964 18.8908 8.964 18.8857 8.964C18.8805 8.964 18.8753 8.964 18.8701 8.964C18.865 8.964 18.8598 8.964 18.8546 8.964C18.8494 8.964 18.8442 8.964 18.839 8.964C18.8338 8.964 18.8286 8.964 18.8234 8.964C18.8182 8.964 18.813 8.964 18.8077 8.964C18.8025 8.964 18.7973 8.964 18.7921 8.964C18.7869 8.964 18.7816 8.964 18.7764 8.964C18.7712 8.964 18.7659 8.964 18.7607 8.964C18.7554 8.964 18.7502 8.964 18.7449 8.964C18.7397 8.964 18.7344 8.964 18.7292 8.964C18.7239 8.964 18.7187 8.964 18.7134 8.964C18.7081 8.964 18.7028 8.964 18.6976 8.964C18.6923 8.964 18.687 8.964 18.6817 8.964C18.6764 8.964 18.6712 8.964 18.6659 8.964C18.6606 8.964 18.6553 8.964 18.65 8.964C18.6447 8.964 18.6394 8.964 18.634 8.964C18.6287 8.964 18.6234 8.964 18.6181 8.964C18.6128 8.964 18.6075 8.964 18.6021 8.964C18.5968 8.964 18.5915 8.964 18.5861 8.964C18.5808 8.964 18.5755 8.964 18.5701 8.964C18.5648 8.964 18.5594 8.964 18.5541 8.964C18.5487 8.964 18.5434 8.964 18.538 8.964C18.5326 8.964 18.5273 8.964 18.5219 8.964C18.5165 8.964 18.5111 8.964 18.5058 8.964C18.5004 8.964 18.495 8.964 18.4896 8.964C18.4842 8.964 18.4788 8.964 18.4734 8.964C18.468 8.964 18.4626 8.964 18.4572 8.964C18.4518 8.964 18.4464 8.964 18.441 8.964C18.4356 8.964 18.4302 8.964 18.4247 8.964C18.4193 8.964 18.4139 8.964 18.4085 8.964C18.403 8.964 18.3976 8.964 18.3922 8.964C18.3867 8.964 18.3813 8.964 18.3758 8.964C18.3704 8.964 18.3649 8.964 18.3595 8.964C18.354 8.964 18.3485 8.964 18.3431 8.964C18.3376 8.964 18.3321 8.964 18.3267 8.964C18.3212 8.964 18.3157 8.964 18.3102 8.964C18.3048 8.964 18.2993 8.964 18.2938 8.964C18.2883 8.964 18.2828 8.964 18.2773 8.964C18.2718 8.964 18.2663 8.964 18.2608 8.964C18.2553 8.964 18.2498 8.964 18.2442 8.964C18.2387 8.964 18.2332 8.964 18.2277 8.964C18.2221 8.964 18.2166 8.964 18.2111 8.964C18.2055 8.964 18.2 8.964 18.1945 8.964C18.1889 8.964 18.1834 8.964 18.1778 8.964C18.1723 8.964 18.1667 8.964 18.1612 8.964C18.1556 8.964 18.15 8.964 18.1445 8.964C18.1389 8.964 18.1333 8.964 18.1277 8.964C18.1222 8.964 18.1166 8.964 18.111 8.964C18.1054 8.964 18.0998 8.964 18.0942 8.964C18.0886 8.964 18.083 8.964 18.0774 8.964C18.0718 8.964 18.0662 8.964 18.0606 8.964C18.055 8.964 18.0494 8.964 18.0438 8.964C18.0381 8.964 18.0325 8.964 18.0269 8.964C18.0213 8.964 18.0156 8.964 18.01 8.964C18.0044 8.964 17.9987 8.964 17.9931 8.964C17.9874 8.964 17.9818 8.964 17.9761 8.964C17.9705 8.964 17.9648 8.964 17.9591 8.964C17.9535 8.964 17.9478 8.964 17.9421 8.964C17.9365 8.964 17.9308 8.964 17.9251 8.964C17.9194 8.964 17.9137 8.964 17.9081 8.964C17.9024 8.964 17.8967 8.964 17.891 8.964C17.8853 8.964 17.8796 8.964 17.8739 8.964C17.8682 8.964 17.8624 8.964 17.8567 8.964C17.851 8.964 17.8453 8.964 17.8396 8.964C17.8339 8.964 17.8281 8.964 17.8224 8.964C17.8167 8.964 17.8109 8.964 17.8052 8.964C17.7994 8.964 17.7937 8.964 17.7879 8.964C17.7822 8.964 17.7764 8.964 17.7707 8.964C17.7649 8.964 17.7592 8.964 17.7534 8.964C17.7476 8.964 17.7419 8.964 17.7361 8.964C17.7303 8.964 17.7245 8.964 17.7188 8.964C17.713 8.964 17.7072 8.964 17.7014 8.964C17.6956 8.964 17.6898 8.964 17.684 8.964C17.6782 8.964 17.6724 8.964 17.6666 8.964C17.6608 8.964 17.655 8.964 17.6491 8.964C17.6433 8.964 17.6375 8.964 17.6317 8.964C17.6258 8.964 17.62 8.964 17.6142 8.964C17.6083 8.964 17.6025 8.964 17.5967 8.964C17.5908 8.964 17.585 8.964 17.5791 8.964C17.5733 8.964 17.5674 8.964 17.5615 8.964C17.5557 8.964 17.5498 8.964 17.544 8.964C17.5381 8.964 17.5322 8.964 17.5263 8.964C17.5205 8.964 17.5146 8.964 17.5087 8.964C17.5028 8.964 17.4969 8.964 17.491 8.964C17.4851 8.964 17.4792 8.964 17.4733 8.964C17.4674 8.964 17.4615 8.964 17.4556 8.964C17.4497 8.964 17.4438 8.964 17.4378 8.964C17.4319 8.964 17.426 8.964 17.4201 8.964C17.4141 8.964 17.4082 8.964 17.4023 8.964C17.3963 8.964 17.3904 8.964 17.3844 8.964C17.3785 8.964 17.3725 8.964 17.3666 8.964C17.3606 8.964 17.3547 8.964 17.3487 8.964C17.3427 8.964 17.3368 8.964 17.3308 8.964C17.3248 8.964 17.3188 8.964 17.3129 8.964C17.3069 8.964 17.3009 8.964 17.2949 8.964C17.2889 8.964 17.2829 8.964 17.2769 8.964C17.2709 8.964 17.2649 8.964 17.2589 8.964C17.2529 8.964 17.2469 8.964 17.2409 8.964C17.2349 8.964 17.2288 8.964 17.2228 8.964C17.2168 8.964 17.2108 8.964 17.2047 8.964C17.1987 8.964 17.1927 8.964 17.1866 8.964C17.1806 8.964 17.1745 8.964 17.1685 8.964C17.1624 8.964 17.1564 8.964 17.1503 8.964C17.1443 8.964 17.1382 8.964 17.1321 8.964C17.1261 8.964 17.12 8.964 17.1139 8.964C17.1078 8.964 17.1018 8.964 17.0957 8.964C17.0896 8.964 17.0835 8.964 17.0774 8.964C17.0713 8.964 17.0652 8.964 17.0591 8.964C17.053 8.964 17.0469 8.964 17.0408 8.964C17.0347 8.964 17.0286 8.964 17.0225 8.964C17.0163 8.964 17.0102 8.964 17.0041 8.964C16.998 8.964 16.9918 8.964 16.9857 8.964C16.9796 8.964 16.9734 8.964 16.9673 8.964C16.9611 8.964 16.955 8.964 16.9488 8.964C16.9427 8.964 16.9365 8.964 16.9303 8.964C16.9242 8.964 16.918 8.964 16.9118 8.964C16.9057 8.964 16.8995 8.964 16.8933 8.964C16.8871 8.964 16.881 8.964 16.8748 8.964C16.8686 8.964 16.8624 8.964 16.8562 8.964C16.85 8.964 16.8438 8.964 16.8376 8.964C16.8314 8.964 16.8252 8.964 16.819 8.964C16.8128 8.964 16.8065 8.964 16.8003 8.964C16.7941 8.964 16.7879 8.964 16.7816 8.964C16.7754 8.964 16.7692 8.964 16.7629 8.964C16.7567 8.964 16.7505 8.964 16.7442 8.964C16.738 8.964 16.7317 8.964 16.7254 8.964C16.7192 8.964 16.7129 8.964 16.7067 8.964C16.7004 8.964 16.6941 8.964 16.6879 8.964C16.6816 8.964 16.6753 8.964 16.669 8.964C16.6627 8.964 16.6565 8.964 16.6502 8.964C16.6439 8.964 16.6376 8.964 16.6313 8.964C16.625 8.964 16.6187 8.964 16.6124 8.964C16.6061 8.964 16.5997 8.964 16.5934 8.964C16.5871 8.964 16.5808 8.964 16.5745 8.964C16.5681 8.964 16.5618 8.964 16.5555 8.964C16.5491 8.964 16.5428 8.964 16.5365 8.964C16.5301 8.964 16.5238 8.964 16.5174 8.964C16.5111 8.964 16.5047 8.964 16.4984 8.964C16.492 8.964 16.4856 8.964 16.4793 8.964C16.4729 8.964 16.4665 8.964 16.4602 8.964C16.4538 8.964 16.4474 8.964 16.441 8.964C16.4346 8.964 16.4282 8.964 16.4218 8.964C16.4154 8.964 16.409 8.964 16.4026 8.964C16.3962 8.964 16.3898 8.964 16.3834 8.964C16.377 8.964 16.3706 8.964 16.3642 8.964C16.3578 8.964 16.3513 8.964 16.3449 8.964C16.3385 8.964 16.332 8.964 16.3256 8.964C16.3192 8.964 16.3127 8.964 16.3063 8.964C16.2998 8.964 16.2934 8.964 16.2869 8.964C16.2805 8.964 16.274 8.964 16.2676 8.964C16.2611 8.964 16.2546 8.964 16.2482 8.964C16.2417 8.964 16.2352 8.964 16.2287 8.964C16.2223 8.964 16.2158 8.964 16.2093 8.964C16.2028 8.964 16.1963 8.964 16.1898 8.964C16.1833 8.964 16.1768 8.964 16.1703 8.964C16.1638 8.964 16.1573 8.964 16.1508 8.964C16.1443 8.964 16.1377 8.964 16.1312 8.964C16.1247 8.964 16.1182 8.964 16.1116 8.964C16.1051 8.964 16.0986 8.964 16.092 8.964C16.0855 8.964 16.0789 8.964 16.0724 8.964C16.0658 8.964 16.0593 8.964 16.0527 8.964C16.0462 8.964 16.0396 8.964 16.033 8.964C16.0265 8.964 16.0199 8.964 16.0133 8.964C16.0068 8.964 16.0002 8.964 15.9936 8.964C15.987 8.964 15.9804 8.964 15.9738 8.964C15.9672 8.964 15.9606 8.964 15.954 8.964C15.9474 8.964 15.9408 8.964 15.9342 8.964C15.9276 8.964 15.921 8.964 15.9144 8.964C15.9078 8.964 15.9012 8.964 15.8945 8.964C15.8879 8.964 15.8813 8.964 15.8746 8.964C15.868 8.964 15.8614 8.964 15.8547 8.964C15.8481 8.964 15.8414 8.964 15.8348 8.964C15.8281 8.964 15.8215 8.964 15.8148 8.964C15.8082 8.964 15.8015 8.964 15.7948 8.964C15.7881 8.964 15.7815 8.964 15.7748 8.964C15.7681 8.964 15.7614 8.964 15.7548 8.964C15.7481 8.964 15.7414 8.964 15.7347 8.964C15.728 8.964 15.7213 8.964 15.7146 8.964C15.7079 8.964 15.7012 8.964 15.6945 8.964C15.6877 8.964 15.681 8.964 15.6743 8.964C15.6676 8.964 15.6609 8.964 15.6541 8.964C15.6474 8.964 15.6407 8.964 15.6339 8.964C15.6272 8.964 15.6205 8.964 15.6137 8.964C15.607 8.964 15.6002 8.964 15.5935 8.964C15.5867 8.964 15.5799 8.964 15.5732 8.964C15.5664 8.964 15.5596 8.964 15.5529 8.964C15.5461 8.964 15.5393 8.964 15.5325 8.964C15.5258 8.964 15.519 8.964 15.5122 8.964C15.5054 8.964 15.4986 8.964 15.4918 8.964C15.485 8.964 15.4782 8.964 15.4714 8.964C15.4646 8.964 15.4578 8.964 15.451 8.964C15.4442 8.964 15.4373 8.964 15.4305 8.964C15.4237 8.964 15.4169 8.964 15.41 8.964C15.4032 8.964 15.3964 8.964 15.3895 8.964C15.3827 8.964 15.3758 8.964 15.369 8.964C15.3621 8.964 15.3553 8.964 15.3484 8.964C15.3416 8.964 15.3347 8.964 15.3278 8.964C15.321 8.964 15.3141 8.964 15.3072 8.964C15.3003 8.964 15.2935 8.964 15.2866 8.964C15.2797 8.964 15.2728 8.964 15.2659 8.964C15.259 8.964 15.2521 8.964 15.2452 8.964C15.2383 8.964 15.2314 8.964 15.2245 8.964C15.2176 8.964 15.2107 8.964 15.2038 8.964C15.1969 8.964 15.1899 8.964 15.183 8.964C15.1761 8.964 15.1691 8.964 15.1622 8.964C15.1553 8.964 15.1483 8.964 15.1414 8.964C15.1344 8.964 15.1275 8.964 15.1205 8.964C15.1136 8.964 15.1066 8.964 15.0997 8.964C15.0927 8.964 15.0857 8.964 15.0788 8.964C15.0718 8.964 15.0648 8.964 15.0579 8.964C15.0509 8.964 15.0439 8.964 15.0369 8.964C15.0299 8.964 15.0229 8.964 15.0159 8.964C15.0089 8.964 15.0019 8.964 14.9949 8.964C14.9879 8.964 14.9809 8.964 14.9739 8.964C14.9669 8.964 14.9599 8.964 14.9529 8.964C14.9458 8.964 14.9388 8.964 14.9318 8.964C14.9247 8.964 14.9177 8.964 14.9107 8.964C14.9036 8.964 14.8966 8.964 14.8895 8.964C14.8825 8.964 14.8754 8.964 14.8684 8.964C14.8613 8.964 14.8543 8.964 14.8472 8.964C14.8401 8.964 14.8331 8.964 14.826 8.964C14.8189 8.964 14.8119 8.964 14.8048 8.964C14.7977 8.964 14.7906 8.964 14.7835 8.964C14.7764 8.964 14.7693 8.964 14.7622 8.964C14.7551 8.964 14.748 8.964 14.7409 8.964C14.7338 8.964 14.7267 8.964 14.7196 8.964C14.7125 8.964 14.7054 8.964 14.6982 8.964C14.6911 8.964 14.684 8.964 14.6768 8.964C14.6697 8.964 14.6626 8.964 14.6554 8.964C14.6483 8.964 14.6411 8.964 14.634 8.964C14.6268 8.964 14.6197 8.964 14.6125 8.964C14.6054 8.964 14.5982 8.964 14.591 8.964C14.5839 8.964 14.5767 8.964 14.5695 8.964C14.5623 8.964 14.5552 8.964 14.548 8.964C14.5408 8.964 14.5336 8.964 14.5264 8.964C14.5192 8.964 14.512 8.964 14.5048 8.964C14.4976 8.964 14.4904 8.964 14.4832 8.964C14.476 8.964 14.4688 8.964 14.4616 8.964C14.4543 8.964 14.4471 8.964 14.4399 8.964C14.4327 8.964 14.4254 8.964 14.4182 8.964C14.411 8.964 14.4037 8.964 14.3965 8.964C14.3892 8.964 14.382 8.964 14.3747 8.964C14.3675 8.964 14.3602 8.964 14.3529 8.964C14.3457 8.964 14.3384 8.964 14.3311 8.964C14.3239 8.964 14.3166 8.964 14.3093 8.964C14.302 8.964 14.2948 8.964 14.2875 8.964C14.2802 8.964 14.2729 8.964 14.2656 8.964C14.2583 8.964 14.251 8.964 14.2437 8.964C14.2364 8.964 14.2291 8.964 14.2218 8.964C14.2144 8.964 14.2071 8.964 14.1998 8.964C14.1925 8.964 14.1852 8.964 14.1778 8.964C14.1705 8.964 14.1632 8.964 14.1558 8.964C14.1485 8.964 14.1411 8.964 14.1338 8.964C14.1264 8.964 14.1191 8.964 14.1117 8.964C14.1044 8.964 14.097 8.964 14.0897 8.964C14.0823 8.964 14.0749 8.964 14.0675 8.964C14.0602 8.964 14.0528 8.964 14.0454 8.964C14.038 8.964 14.0306 8.964 14.0232 8.964C14.0159 8.964 14.0085 8.964 14.0011 8.964C13.9937 8.964 13.9863 8.964 13.9789 8.964C13.9714 8.964 13.964 8.964 13.9566 8.964C13.9492 8.964 13.9418 8.964 13.9344 8.964C13.9269 8.964 13.9195 8.964 13.9121 8.964C13.9046 8.964 13.8972 8.964 13.8897 8.964C13.8823 8.964 13.8749 8.964 13.8674 8.964C13.86 8.964 13.8525 8.964 13.845 8.964C13.8376 8.964 13.8301 8.964 13.8226 8.964C13.8152 8.964 13.8077 8.964 13.8002 8.964C13.7928 8.964 13.7853 8.964 13.7778 8.964C13.7703 8.964 13.7628 8.964 13.7553 8.964C13.7478 8.964 13.7403 8.964 13.7328 8.964C13.7253 8.964 13.7178 8.964 13.7103 8.964C13.7028 8.964 13.6953 8.964 13.6878 8.964C13.6802 8.964 13.6727 8.964 13.6652 8.964C13.6576 8.964 13.6501 8.964 13.6426 8.964C13.635 8.964 13.6275 8.964 13.62 8.964C13.6124 8.964 13.6049 8.964 13.5973 8.964C13.5898 8.964 13.5822 8.964 13.5746 8.964C13.5671 8.964 13.5595 8.964 13.5519 8.964C13.5444 8.964 13.5368 8.964 13.5292 8.964C13.5216 8.964 13.514 8.964 13.5064 8.964C13.4989 8.964 13.4913 8.964 13.4837 8.964C13.4761 8.964 13.4685 8.964 13.4609 8.964C13.4533 8.964 13.4456 8.964 13.438 8.964C13.4304 8.964 13.4228 8.964 13.4152 8.964C13.4076 8.964 13.3999 8.964 13.3923 8.964C13.3847 8.964 13.377 8.964 13.3694 8.964C13.3617 8.964 13.3541 8.964 13.3465 8.964C13.3388 8.964 13.3311 8.964 13.3235 8.964C13.3158 8.964 13.3082 8.964 13.3005 8.964C13.2928 8.964 13.2852 8.964 13.2775 8.964C13.2698 8.964 13.2621 8.964 13.2545 8.964C13.2468 8.964 13.2391 8.964 13.2314 8.964C13.2237 8.964 13.216 8.964 13.2083 8.964C13.2006 8.964 13.1929 8.964 13.1852 8.964C13.1775 8.964 13.1698 8.964 13.1621 8.964C13.1543 8.964 13.1466 8.964 13.1389 8.964C13.1312 8.964 13.1234 8.964 13.1157 8.964C13.108 8.964 13.1002 8.964 13.0925 8.964C13.0847 8.964 13.077 8.964 13.0692 8.964C13.0615 8.964 13.0537 8.964 13.046 8.964C13.0382 8.964 13.0304 8.964 13.0227 8.964C13.0149 8.964 13.0071 8.964 12.9993 8.964C12.9916 8.964 12.9838 8.964 12.976 8.964V11.964C12.9838 11.964 12.9916 11.964 12.9993 11.964C13.0071 11.964 13.0149 11.964 13.0227 11.964C13.0304 11.964 13.0382 11.964 13.046 11.964C13.0537 11.964 13.0615 11.964 13.0692 11.964C13.077 11.964 13.0847 11.964 13.0925 11.964C13.1002 11.964 13.108 11.964 13.1157 11.964C13.1234 11.964 13.1312 11.964 13.1389 11.964C13.1466 11.964 13.1543 11.964 13.1621 11.964C13.1698 11.964 13.1775 11.964 13.1852 11.964C13.1929 11.964 13.2006 11.964 13.2083 11.964C13.216 11.964 13.2237 11.964 13.2314 11.964C13.2391 11.964 13.2468 11.964 13.2545 11.964C13.2621 11.964 13.2698 11.964 13.2775 11.964C13.2852 11.964 13.2928 11.964 13.3005 11.964C13.3082 11.964 13.3158 11.964 13.3235 11.964C13.3311 11.964 13.3388 11.964 13.3465 11.964C13.3541 11.964 13.3617 11.964 13.3694 11.964C13.377 11.964 13.3847 11.964 13.3923 11.964C13.3999 11.964 13.4076 11.964 13.4152 11.964C13.4228 11.964 13.4304 11.964 13.438 11.964C13.4456 11.964 13.4533 11.964 13.4609 11.964C13.4685 11.964 13.4761 11.964 13.4837 11.964C13.4913 11.964 13.4989 11.964 13.5064 11.964C13.514 11.964 13.5216 11.964 13.5292 11.964C13.5368 11.964 13.5444 11.964 13.5519 11.964C13.5595 11.964 13.5671 11.964 13.5746 11.964C13.5822 11.964 13.5898 11.964 13.5973 11.964C13.6049 11.964 13.6124 11.964 13.62 11.964C13.6275 11.964 13.635 11.964 13.6426 11.964C13.6501 11.964 13.6576 11.964 13.6652 11.964C13.6727 11.964 13.6802 11.964 13.6878 11.964C13.6953 11.964 13.7028 11.964 13.7103 11.964C13.7178 11.964 13.7253 11.964 13.7328 11.964C13.7403 11.964 13.7478 11.964 13.7553 11.964C13.7628 11.964 13.7703 11.964 13.7778 11.964C13.7853 11.964 13.7928 11.964 13.8002 11.964C13.8077 11.964 13.8152 11.964 13.8226 11.964C13.8301 11.964 13.8376 11.964 13.845 11.964C13.8525 11.964 13.86 11.964 13.8674 11.964C13.8749 11.964 13.8823 11.964 13.8897 11.964C13.8972 11.964 13.9046 11.964 13.9121 11.964C13.9195 11.964 13.9269 11.964 13.9344 11.964C13.9418 11.964 13.9492 11.964 13.9566 11.964C13.964 11.964 13.9714 11.964 13.9789 11.964C13.9863 11.964 13.9937 11.964 14.0011 11.964C14.0085 11.964 14.0159 11.964 14.0232 11.964C14.0306 11.964 14.038 11.964 14.0454 11.964C14.0528 11.964 14.0602 11.964 14.0675 11.964C14.0749 11.964 14.0823 11.964 14.0897 11.964C14.097 11.964 14.1044 11.964 14.1117 11.964C14.1191 11.964 14.1264 11.964 14.1338 11.964C14.1411 11.964 14.1485 11.964 14.1558 11.964C14.1632 11.964 14.1705 11.964 14.1778 11.964C14.1852 11.964 14.1925 11.964 14.1998 11.964C14.2071 11.964 14.2144 11.964 14.2218 11.964C14.2291 11.964 14.2364 11.964 14.2437 11.964C14.251 11.964 14.2583 11.964 14.2656 11.964C14.2729 11.964 14.2802 11.964 14.2875 11.964C14.2948 11.964 14.302 11.964 14.3093 11.964C14.3166 11.964 14.3239 11.964 14.3311 11.964C14.3384 11.964 14.3457 11.964 14.3529 11.964C14.3602 11.964 14.3675 11.964 14.3747 11.964C14.382 11.964 14.3892 11.964 14.3965 11.964C14.4037 11.964 14.411 11.964 14.4182 11.964C14.4254 11.964 14.4327 11.964 14.4399 11.964C14.4471 11.964 14.4543 11.964 14.4616 11.964C14.4688 11.964 14.476 11.964 14.4832 11.964C14.4904 11.964 14.4976 11.964 14.5048 11.964C14.512 11.964 14.5192 11.964 14.5264 11.964C14.5336 11.964 14.5408 11.964 14.548 11.964C14.5552 11.964 14.5623 11.964 14.5695 11.964C14.5767 11.964 14.5839 11.964 14.591 11.964C14.5982 11.964 14.6054 11.964 14.6125 11.964C14.6197 11.964 14.6268 11.964 14.634 11.964C14.6411 11.964 14.6483 11.964 14.6554 11.964C14.6626 11.964 14.6697 11.964 14.6768 11.964C14.684 11.964 14.6911 11.964 14.6982 11.964C14.7054 11.964 14.7125 11.964 14.7196 11.964C14.7267 11.964 14.7338 11.964 14.7409 11.964C14.748 11.964 14.7551 11.964 14.7622 11.964C14.7693 11.964 14.7764 11.964 14.7835 11.964C14.7906 11.964 14.7977 11.964 14.8048 11.964C14.8119 11.964 14.8189 11.964 14.826 11.964C14.8331 11.964 14.8401 11.964 14.8472 11.964C14.8543 11.964 14.8613 11.964 14.8684 11.964C14.8754 11.964 14.8825 11.964 14.8895 11.964C14.8966 11.964 14.9036 11.964 14.9107 11.964C14.9177 11.964 14.9247 11.964 14.9318 11.964C14.9388 11.964 14.9458 11.964 14.9529 11.964C14.9599 11.964 14.9669 11.964 14.9739 11.964C14.9809 11.964 14.9879 11.964 14.9949 11.964C15.0019 11.964 15.0089 11.964 15.0159 11.964C15.0229 11.964 15.0299 11.964 15.0369 11.964C15.0439 11.964 15.0509 11.964 15.0579 11.964C15.0648 11.964 15.0718 11.964 15.0788 11.964C15.0857 11.964 15.0927 11.964 15.0997 11.964C15.1066 11.964 15.1136 11.964 15.1205 11.964C15.1275 11.964 15.1344 11.964 15.1414 11.964C15.1483 11.964 15.1553 11.964 15.1622 11.964C15.1691 11.964 15.1761 11.964 15.183 11.964C15.1899 11.964 15.1969 11.964 15.2038 11.964C15.2107 11.964 15.2176 11.964 15.2245 11.964C15.2314 11.964 15.2383 11.964 15.2452 11.964C15.2521 11.964 15.259 11.964 15.2659 11.964C15.2728 11.964 15.2797 11.964 15.2866 11.964C15.2935 11.964 15.3003 11.964 15.3072 11.964C15.3141 11.964 15.321 11.964 15.3278 11.964C15.3347 11.964 15.3416 11.964 15.3484 11.964C15.3553 11.964 15.3621 11.964 15.369 11.964C15.3758 11.964 15.3827 11.964 15.3895 11.964C15.3964 11.964 15.4032 11.964 15.41 11.964C15.4169 11.964 15.4237 11.964 15.4305 11.964C15.4373 11.964 15.4442 11.964 15.451 11.964C15.4578 11.964 15.4646 11.964 15.4714 11.964C15.4782 11.964 15.485 11.964 15.4918 11.964C15.4986 11.964 15.5054 11.964 15.5122 11.964C15.519 11.964 15.5258 11.964 15.5325 11.964C15.5393 11.964 15.5461 11.964 15.5529 11.964C15.5596 11.964 15.5664 11.964 15.5732 11.964C15.5799 11.964 15.5867 11.964 15.5935 11.964C15.6002 11.964 15.607 11.964 15.6137 11.964C15.6205 11.964 15.6272 11.964 15.6339 11.964C15.6407 11.964 15.6474 11.964 15.6541 11.964C15.6609 11.964 15.6676 11.964 15.6743 11.964C15.681 11.964 15.6877 11.964 15.6945 11.964C15.7012 11.964 15.7079 11.964 15.7146 11.964C15.7213 11.964 15.728 11.964 15.7347 11.964C15.7414 11.964 15.7481 11.964 15.7548 11.964C15.7614 11.964 15.7681 11.964 15.7748 11.964C15.7815 11.964 15.7881 11.964 15.7948 11.964C15.8015 11.964 15.8082 11.964 15.8148 11.964C15.8215 11.964 15.8281 11.964 15.8348 11.964C15.8414 11.964 15.8481 11.964 15.8547 11.964C15.8614 11.964 15.868 11.964 15.8746 11.964C15.8813 11.964 15.8879 11.964 15.8945 11.964C15.9012 11.964 15.9078 11.964 15.9144 11.964C15.921 11.964 15.9276 11.964 15.9342 11.964C15.9408 11.964 15.9474 11.964 15.954 11.964C15.9606 11.964 15.9672 11.964 15.9738 11.964C15.9804 11.964 15.987 11.964 15.9936 11.964C16.0002 11.964 16.0068 11.964 16.0133 11.964C16.0199 11.964 16.0265 11.964 16.033 11.964C16.0396 11.964 16.0462 11.964 16.0527 11.964C16.0593 11.964 16.0658 11.964 16.0724 11.964C16.0789 11.964 16.0855 11.964 16.092 11.964C16.0986 11.964 16.1051 11.964 16.1116 11.964C16.1182 11.964 16.1247 11.964 16.1312 11.964C16.1377 11.964 16.1443 11.964 16.1508 11.964C16.1573 11.964 16.1638 11.964 16.1703 11.964C16.1768 11.964 16.1833 11.964 16.1898 11.964C16.1963 11.964 16.2028 11.964 16.2093 11.964C16.2158 11.964 16.2223 11.964 16.2287 11.964C16.2352 11.964 16.2417 11.964 16.2482 11.964C16.2546 11.964 16.2611 11.964 16.2676 11.964C16.274 11.964 16.2805 11.964 16.2869 11.964C16.2934 11.964 16.2998 11.964 16.3063 11.964C16.3127 11.964 16.3192 11.964 16.3256 11.964C16.332 11.964 16.3385 11.964 16.3449 11.964C16.3513 11.964 16.3578 11.964 16.3642 11.964C16.3706 11.964 16.377 11.964 16.3834 11.964C16.3898 11.964 16.3962 11.964 16.4026 11.964C16.409 11.964 16.4154 11.964 16.4218 11.964C16.4282 11.964 16.4346 11.964 16.441 11.964C16.4474 11.964 16.4538 11.964 16.4602 11.964C16.4665 11.964 16.4729 11.964 16.4793 11.964C16.4856 11.964 16.492 11.964 16.4984 11.964C16.5047 11.964 16.5111 11.964 16.5174 11.964C16.5238 11.964 16.5301 11.964 16.5365 11.964C16.5428 11.964 16.5491 11.964 16.5555 11.964C16.5618 11.964 16.5681 11.964 16.5745 11.964C16.5808 11.964 16.5871 11.964 16.5934 11.964C16.5997 11.964 16.6061 11.964 16.6124 11.964C16.6187 11.964 16.625 11.964 16.6313 11.964C16.6376 11.964 16.6439 11.964 16.6502 11.964C16.6565 11.964 16.6627 11.964 16.669 11.964C16.6753 11.964 16.6816 11.964 16.6879 11.964C16.6941 11.964 16.7004 11.964 16.7067 11.964C16.7129 11.964 16.7192 11.964 16.7254 11.964C16.7317 11.964 16.738 11.964 16.7442 11.964C16.7505 11.964 16.7567 11.964 16.7629 11.964C16.7692 11.964 16.7754 11.964 16.7816 11.964C16.7879 11.964 16.7941 11.964 16.8003 11.964C16.8065 11.964 16.8128 11.964 16.819 11.964C16.8252 11.964 16.8314 11.964 16.8376 11.964C16.8438 11.964 16.85 11.964 16.8562 11.964C16.8624 11.964 16.8686 11.964 16.8748 11.964C16.881 11.964 16.8871 11.964 16.8933 11.964C16.8995 11.964 16.9057 11.964 16.9118 11.964C16.918 11.964 16.9242 11.964 16.9303 11.964C16.9365 11.964 16.9427 11.964 16.9488 11.964C16.955 11.964 16.9611 11.964 16.9673 11.964C16.9734 11.964 16.9796 11.964 16.9857 11.964C16.9918 11.964 16.998 11.964 17.0041 11.964C17.0102 11.964 17.0163 11.964 17.0225 11.964C17.0286 11.964 17.0347 11.964 17.0408 11.964C17.0469 11.964 17.053 11.964 17.0591 11.964C17.0652 11.964 17.0713 11.964 17.0774 11.964C17.0835 11.964 17.0896 11.964 17.0957 11.964C17.1018 11.964 17.1078 11.964 17.1139 11.964C17.12 11.964 17.1261 11.964 17.1321 11.964C17.1382 11.964 17.1443 11.964 17.1503 11.964C17.1564 11.964 17.1624 11.964 17.1685 11.964C17.1745 11.964 17.1806 11.964 17.1866 11.964C17.1927 11.964 17.1987 11.964 17.2047 11.964C17.2108 11.964 17.2168 11.964 17.2228 11.964C17.2288 11.964 17.2349 11.964 17.2409 11.964C17.2469 11.964 17.2529 11.964 17.2589 11.964C17.2649 11.964 17.2709 11.964 17.2769 11.964C17.2829 11.964 17.2889 11.964 17.2949 11.964C17.3009 11.964 17.3069 11.964 17.3129 11.964C17.3188 11.964 17.3248 11.964 17.3308 11.964C17.3368 11.964 17.3427 11.964 17.3487 11.964C17.3547 11.964 17.3606 11.964 17.3666 11.964C17.3725 11.964 17.3785 11.964 17.3844 11.964C17.3904 11.964 17.3963 11.964 17.4023 11.964C17.4082 11.964 17.4141 11.964 17.4201 11.964C17.426 11.964 17.4319 11.964 17.4378 11.964C17.4438 11.964 17.4497 11.964 17.4556 11.964C17.4615 11.964 17.4674 11.964 17.4733 11.964C17.4792 11.964 17.4851 11.964 17.491 11.964C17.4969 11.964 17.5028 11.964 17.5087 11.964C17.5146 11.964 17.5205 11.964 17.5263 11.964C17.5322 11.964 17.5381 11.964 17.544 11.964C17.5498 11.964 17.5557 11.964 17.5615 11.964C17.5674 11.964 17.5733 11.964 17.5791 11.964C17.585 11.964 17.5908 11.964 17.5967 11.964C17.6025 11.964 17.6083 11.964 17.6142 11.964C17.62 11.964 17.6258 11.964 17.6317 11.964C17.6375 11.964 17.6433 11.964 17.6491 11.964C17.655 11.964 17.6608 11.964 17.6666 11.964C17.6724 11.964 17.6782 11.964 17.684 11.964C17.6898 11.964 17.6956 11.964 17.7014 11.964C17.7072 11.964 17.713 11.964 17.7188 11.964C17.7245 11.964 17.7303 11.964 17.7361 11.964C17.7419 11.964 17.7476 11.964 17.7534 11.964C17.7592 11.964 17.7649 11.964 17.7707 11.964C17.7764 11.964 17.7822 11.964 17.7879 11.964C17.7937 11.964 17.7994 11.964 17.8052 11.964C17.8109 11.964 17.8167 11.964 17.8224 11.964C17.8281 11.964 17.8339 11.964 17.8396 11.964C17.8453 11.964 17.851 11.964 17.8567 11.964C17.8624 11.964 17.8682 11.964 17.8739 11.964C17.8796 11.964 17.8853 11.964 17.891 11.964C17.8967 11.964 17.9024 11.964 17.9081 11.964C17.9137 11.964 17.9194 11.964 17.9251 11.964C17.9308 11.964 17.9365 11.964 17.9421 11.964C17.9478 11.964 17.9535 11.964 17.9591 11.964C17.9648 11.964 17.9705 11.964 17.9761 11.964C17.9818 11.964 17.9874 11.964 17.9931 11.964C17.9987 11.964 18.0044 11.964 18.01 11.964C18.0156 11.964 18.0213 11.964 18.0269 11.964C18.0325 11.964 18.0381 11.964 18.0438 11.964C18.0494 11.964 18.055 11.964 18.0606 11.964C18.0662 11.964 18.0718 11.964 18.0774 11.964C18.083 11.964 18.0886 11.964 18.0942 11.964C18.0998 11.964 18.1054 11.964 18.111 11.964C18.1166 11.964 18.1222 11.964 18.1277 11.964C18.1333 11.964 18.1389 11.964 18.1445 11.964C18.15 11.964 18.1556 11.964 18.1612 11.964C18.1667 11.964 18.1723 11.964 18.1778 11.964C18.1834 11.964 18.1889 11.964 18.1945 11.964C18.2 11.964 18.2055 11.964 18.2111 11.964C18.2166 11.964 18.2221 11.964 18.2277 11.964C18.2332 11.964 18.2387 11.964 18.2442 11.964C18.2498 11.964 18.2553 11.964 18.2608 11.964C18.2663 11.964 18.2718 11.964 18.2773 11.964C18.2828 11.964 18.2883 11.964 18.2938 11.964C18.2993 11.964 18.3048 11.964 18.3102 11.964C18.3157 11.964 18.3212 11.964 18.3267 11.964C18.3321 11.964 18.3376 11.964 18.3431 11.964C18.3485 11.964 18.354 11.964 18.3595 11.964C18.3649 11.964 18.3704 11.964 18.3758 11.964C18.3813 11.964 18.3867 11.964 18.3922 11.964C18.3976 11.964 18.403 11.964 18.4085 11.964C18.4139 11.964 18.4193 11.964 18.4247 11.964C18.4302 11.964 18.4356 11.964 18.441 11.964C18.4464 11.964 18.4518 11.964 18.4572 11.964C18.4626 11.964 18.468 11.964 18.4734 11.964C18.4788 11.964 18.4842 11.964 18.4896 11.964C18.495 11.964 18.5004 11.964 18.5058 11.964C18.5111 11.964 18.5165 11.964 18.5219 11.964C18.5273 11.964 18.5326 11.964 18.538 11.964C18.5434 11.964 18.5487 11.964 18.5541 11.964C18.5594 11.964 18.5648 11.964 18.5701 11.964C18.5755 11.964 18.5808 11.964 18.5861 11.964C18.5915 11.964 18.5968 11.964 18.6021 11.964C18.6075 11.964 18.6128 11.964 18.6181 11.964C18.6234 11.964 18.6287 11.964 18.634 11.964C18.6394 11.964 18.6447 11.964 18.65 11.964C18.6553 11.964 18.6606 11.964 18.6659 11.964C18.6712 11.964 18.6764 11.964 18.6817 11.964C18.687 11.964 18.6923 11.964 18.6976 11.964C18.7028 11.964 18.7081 11.964 18.7134 11.964C18.7187 11.964 18.7239 11.964 18.7292 11.964C18.7344 11.964 18.7397 11.964 18.7449 11.964C18.7502 11.964 18.7554 11.964 18.7607 11.964C18.7659 11.964 18.7712 11.964 18.7764 11.964C18.7816 11.964 18.7869 11.964 18.7921 11.964C18.7973 11.964 18.8025 11.964 18.8077 11.964C18.813 11.964 18.8182 11.964 18.8234 11.964C18.8286 11.964 18.8338 11.964 18.839 11.964C18.8442 11.964 18.8494 11.964 18.8546 11.964C18.8598 11.964 18.865 11.964 18.8701 11.964C18.8753 11.964 18.8805 11.964 18.8857 11.964C18.8908 11.964 18.896 11.964 18.9012 11.964C18.9063 11.964 18.9115 11.964 18.9167 11.964C18.9218 11.964 18.927 11.964 18.9321 11.964C18.9373 11.964 18.9424 11.964 18.9475 11.964C18.9527 11.964 18.9578 11.964 18.9629 11.964C18.9681 11.964 18.9732 11.964 18.9783 11.964C18.9834 11.964 18.9886 11.964 18.9937 11.964C18.9988 11.964 19.0039 11.964 19.009 11.964C19.0141 11.964 19.0192 11.964 19.0243 11.964C19.0294 11.964 19.0345 11.964 19.0396 11.964C19.0447 11.964 19.0498 11.964 19.0548 11.964C19.0599 11.964 19.065 11.964 19.0701 11.964C19.0751 11.964 19.0802 11.964 19.0853 11.964C19.0903 11.964 19.0954 11.964 19.1004 11.964C19.1055 11.964 19.1105 11.964 19.1156 11.964C19.1206 11.964 19.1257 11.964 19.1307 11.964C19.1357 11.964 19.1408 11.964 19.1458 11.964C19.1508 11.964 19.1558 11.964 19.1609 11.964C19.1659 11.964 19.1709 11.964 19.1759 11.964C19.1809 11.964 19.1859 11.964 19.1909 11.964C19.1959 11.964 19.2009 11.964 19.2059 11.964C19.2109 11.964 19.2159 11.964 19.2209 11.964C19.2259 11.964 19.2308 11.964 19.2358 11.964C19.2408 11.964 19.2458 11.964 19.2507 11.964C19.2557 11.964 19.2607 11.964 19.2656 11.964C19.2706 11.964 19.2755 11.964 19.2805 11.964C19.2854 11.964 19.2904 11.964 19.2953 11.964C19.3003 11.964 19.3052 11.964 19.3101 11.964C19.3151 11.964 19.32 11.964 19.3249 11.964C19.3298 11.964 19.3347 11.964 19.3397 11.964C19.3446 11.964 19.3495 11.964 19.3544 11.964C19.3593 11.964 19.3642 11.964 19.3691 11.964C19.374 11.964 19.3789 11.964 19.3838 11.964C19.3887 11.964 19.3936 11.964 19.3984 11.964C19.4033 11.964 19.4082 11.964 19.4131 11.964C19.4179 11.964 19.4228 11.964 19.4277 11.964C19.4325 11.964 19.4374 11.964 19.4423 11.964C19.4471 11.964 19.452 11.964 19.4568 11.964C19.4617 11.964 19.4665 11.964 19.4713 11.964C19.4762 11.964 19.481 11.964 19.4858 11.964C19.4907 11.964 19.4955 11.964 19.5003 11.964C19.5051 11.964 19.51 11.964 19.5148 11.964C19.5196 11.964 19.5244 11.964 19.5292 11.964C19.534 11.964 19.5388 11.964 19.5436 11.964C19.5484 11.964 19.5532 11.964 19.558 11.964C19.5627 11.964 19.5675 11.964 19.5723 11.964C19.5771 11.964 19.5819 11.964 19.5866 11.964C19.5914 11.964 19.5962 11.964 19.6009 11.964C19.6057 11.964 19.6104 11.964 19.6152 11.964C19.6199 11.964 19.6247 11.964 19.6294 11.964C19.6342 11.964 19.6389 11.964 19.6437 11.964C19.6484 11.964 19.6531 11.964 19.6578 11.964C19.6626 11.964 19.6673 11.964 19.672 11.964C19.6767 11.964 19.6814 11.964 19.6862 11.964C19.6909 11.964 19.6956 11.964 19.7003 11.964C19.705 11.964 19.7097 11.964 19.7144 11.964C19.719 11.964 19.7237 11.964 19.7284 11.964C19.7331 11.964 19.7378 11.964 19.7425 11.964C19.7471 11.964 19.7518 11.964 19.7565 11.964C19.7611 11.964 19.7658 11.964 19.7705 11.964C19.7751 11.964 19.7798 11.964 19.7844 11.964C19.7891 11.964 19.7937 11.964 19.7983 11.964C19.803 11.964 19.8076 11.964 19.8123 11.964C19.8169 11.964 19.8215 11.964 19.8261 11.964C19.8308 11.964 19.8354 11.964 19.84 11.964C19.8446 11.964 19.8492 11.964 19.8538 11.964C19.8584 11.964 19.863 11.964 19.8676 11.964C19.8722 11.964 19.8768 11.964 19.8814 11.964C19.886 11.964 19.8906 11.964 19.8952 11.964C19.8997 11.964 19.9043 11.964 19.9089 11.964C19.9135 11.964 19.918 11.964 19.9226 11.964C19.9272 11.964 19.9317 11.964 19.9363 11.964C19.9408 11.964 19.9454 11.964 19.9499 11.964C19.9545 11.964 19.959 11.964 19.9635 11.964C19.9681 11.964 19.9726 11.964 19.9771 11.964C19.9817 11.964 19.9862 11.964 19.9907 11.964C19.9952 11.964 19.9998 11.964 20.0043 11.964C20.0088 11.964 20.0133 11.964 20.0178 11.964C20.0223 11.964 20.0268 11.964 20.0313 11.964C20.0358 11.964 20.0403 11.964 20.0448 11.964C20.0492 11.964 20.0537 11.964 20.0582 11.964C20.0627 11.964 20.0671 11.964 20.0716 11.964C20.0761 11.964 20.0805 11.964 20.085 11.964C20.0895 11.964 20.0939 11.964 20.0984 11.964C20.1028 11.964 20.1073 11.964 20.1117 11.964C20.1162 11.964 20.1206 11.964 20.125 11.964C20.1295 11.964 20.1339 11.964 20.1383 11.964C20.1427 11.964 20.1472 11.964 20.1516 11.964C20.156 11.964 20.1604 11.964 20.1648 11.964C20.1692 11.964 20.1736 11.964 20.178 11.964C20.1824 11.964 20.1868 11.964 20.1912 11.964C20.1956 11.964 20.2 11.964 20.2044 11.964C20.2088 11.964 20.2131 11.964 20.2175 11.964C20.2219 11.964 20.2263 11.964 20.2306 11.964C20.235 11.964 20.2393 11.964 20.2437 11.964C20.2481 11.964 20.2524 11.964 20.2568 11.964C20.2611 11.964 20.2655 11.964 20.2698 11.964C20.2741 11.964 20.2785 11.964 20.2828 11.964C20.2871 11.964 20.2915 11.964 20.2958 11.964C20.3001 11.964 20.3044 11.964 20.3087 11.964C20.313 11.964 20.3174 11.964 20.3217 11.964C20.326 11.964 20.3303 11.964 20.3346 11.964C20.3389 11.964 20.3432 11.964 20.3474 11.964C20.3517 11.964 20.356 11.964 20.3603 11.964C20.3646 11.964 20.3688 11.964 20.3731 11.964C20.3774 11.964 20.3817 11.964 20.3859 11.964C20.3902 11.964 20.3944 11.964 20.3987 11.964C20.4029 11.964 20.4072 11.964 20.4114 11.964C20.4157 11.964 20.4199 11.964 20.4242 11.964C20.4284 11.964 20.4326 11.964 20.4369 11.964C20.4411 11.964 20.4453 11.964 20.4495 11.964C20.4537 11.964 20.458 11.964 20.4622 11.964C20.4664 11.964 20.4706 11.964 20.4748 11.964C20.479 11.964 20.4832 11.964 20.4874 11.964C20.4916 11.964 20.4958 11.964 20.5 11.964C20.5041 11.964 20.5083 11.964 20.5125 11.964C20.5167 11.964 20.5208 11.964 20.525 11.964C20.5292 11.964 20.5333 11.964 20.5375 11.964C20.5417 11.964 20.5458 11.964 20.55 11.964C20.5541 11.964 20.5583 11.964 20.5624 11.964C20.5665 11.964 20.5707 11.964 20.5748 11.964C20.5789 11.964 20.5831 11.964 20.5872 11.964C20.5913 11.964 20.5954 11.964 20.5996 11.964C20.6037 11.964 20.6078 11.964 20.6119 11.964C20.616 11.964 20.6201 11.964 20.6242 11.964C20.6283 11.964 20.6324 11.964 20.6365 11.964C20.6406 11.964 20.6447 11.964 20.6487 11.964C20.6528 11.964 20.6569 11.964 20.661 11.964C20.6651 11.964 20.6691 11.964 20.6732 11.964C20.6773 11.964 20.6813 11.964 20.6854 11.964C20.6894 11.964 20.6935 11.964 20.6975 11.964C20.7016 11.964 20.7056 11.964 20.7097 11.964C20.7137 11.964 20.7177 11.964 20.7218 11.964C20.7258 11.964 20.7298 11.964 20.7338 11.964C20.7379 11.964 20.7419 11.964 20.7459 11.964C20.7499 11.964 20.7539 11.964 20.7579 11.964C20.7619 11.964 20.7659 11.964 20.7699 11.964C20.7739 11.964 20.7779 11.964 20.7819 11.964C20.7859 11.964 20.7899 11.964 20.7938 11.964C20.7978 11.964 20.8018 11.964 20.8058 11.964C20.8097 11.964 20.8137 11.964 20.8177 11.964C20.8216 11.964 20.8256 11.964 20.8295 11.964C20.8335 11.964 20.8374 11.964 20.8414 11.964C20.8453 11.964 20.8493 11.964 20.8532 11.964C20.8571 11.964 20.8611 11.964 20.865 11.964C20.8689 11.964 20.8728 11.964 20.8767 11.964C20.8807 11.964 20.8846 11.964 20.8885 11.964C20.8924 11.964 20.8963 11.964 20.9002 11.964C20.9041 11.964 20.908 11.964 20.9119 11.964C20.9158 11.964 20.9197 11.964 20.9236 11.964C20.9274 11.964 20.9313 11.964 20.9352 11.964C20.9391 11.964 20.9429 11.964 20.9468 11.964C20.9507 11.964 20.9545 11.964 20.9584 11.964C20.9623 11.964 20.9661 11.964 20.97 11.964C20.9738 11.964 20.9777 11.964 20.9815 11.964C20.9853 11.964 20.9892 11.964 20.993 11.964C20.9968 11.964 21.0007 11.964 21.0045 11.964C21.0083 11.964 21.0121 11.964 21.016 11.964C21.0198 11.964 21.0236 11.964 21.0274 11.964C21.0312 11.964 21.035 11.964 21.0388 11.964C21.0426 11.964 21.0464 11.964 21.0502 11.964C21.054 11.964 21.0577 11.964 21.0615 11.964C21.0653 11.964 21.0691 11.964 21.0729 11.964C21.0766 11.964 21.0804 11.964 21.0842 11.964C21.0879 11.964 21.0917 11.964 21.0954 11.964C21.0992 11.964 21.1029 11.964 21.1067 11.964C21.1104 11.964 21.1142 11.964 21.1179 11.964C21.1217 11.964 21.1254 11.964 21.1291 11.964C21.1328 11.964 21.1366 11.964 21.1403 11.964C21.144 11.964 21.1477 11.964 21.1514 11.964C21.1552 11.964 21.1589 11.964 21.1626 11.964C21.1663 11.964 21.17 11.964 21.1737 11.964C21.1774 11.964 21.1811 11.964 21.1847 11.964C21.1884 11.964 21.1921 11.964 21.1958 11.964C21.1995 11.964 21.2031 11.964 21.2068 11.964C21.2105 11.964 21.2141 11.964 21.2178 11.964C21.2215 11.964 21.2251 11.964 21.2288 11.964C21.2324 11.964 21.2361 11.964 21.2397 11.964C21.2434 11.964 21.247 11.964 21.2506 11.964C21.2543 11.964 21.2579 11.964 21.2615 11.964C21.2651 11.964 21.2688 11.964 21.2724 11.964C21.276 11.964 21.2796 11.964 21.2832 11.964C21.2868 11.964 21.2904 11.964 21.294 11.964C21.2976 11.964 21.3012 11.964 21.3048 11.964C21.3084 11.964 21.312 11.964 21.3156 11.964C21.3192 11.964 21.3227 11.964 21.3263 11.964C21.3299 11.964 21.3335 11.964 21.337 11.964C21.3406 11.964 21.3442 11.964 21.3477 11.964C21.3513 11.964 21.3548 11.964 21.3584 11.964C21.3619 11.964 21.3655 11.964 21.369 11.964C21.3726 11.964 21.3761 11.964 21.3796 11.964C21.3831 11.964 21.3867 11.964 21.3902 11.964C21.3937 11.964 21.3972 11.964 21.4008 11.964C21.4043 11.964 21.4078 11.964 21.4113 11.964C21.4148 11.964 21.4183 11.964 21.4218 11.964C21.4253 11.964 21.4288 11.964 21.4323 11.964C21.4358 11.964 21.4392 11.964 21.4427 11.964C21.4462 11.964 21.4497 11.964 21.4531 11.964C21.4566 11.964 21.4601 11.964 21.4635 11.964C21.467 11.964 21.4705 11.964 21.4739 11.964C21.4774 11.964 21.4808 11.964 21.4843 11.964C21.4877 11.964 21.4912 11.964 21.4946 11.964C21.498 11.964 21.5015 11.964 21.5049 11.964C21.5083 11.964 21.5117 11.964 21.5152 11.964C21.5186 11.964 21.522 11.964 21.5254 11.964C21.5288 11.964 21.5322 11.964 21.5356 11.964C21.539 11.964 21.5424 11.964 21.5458 11.964C21.5492 11.964 21.5526 11.964 21.556 11.964V8.964ZM11.476 10.464V18.472H14.476V10.464H11.476ZM12.976 19.972H26.86V16.972H12.976V19.972ZM26.86 19.972H26.912V16.972H26.86V19.972ZM61.6244 40V41.5H63.1244V40H61.6244ZM48.7804 40H47.2804V41.5H48.7804V40ZM48.7804 1.52V0.0199995H47.2804V1.52H48.7804ZM61.6244 1.52H63.1244V0.0199995H61.6244V1.52ZM61.6244 38.5H48.7804V41.5H61.6244V38.5ZM50.2804 40V1.52H47.2804V40H50.2804ZM48.7804 3.02H61.6244V0.0199995H48.7804V3.02ZM60.1244 1.52V40H63.1244V1.52H60.1244ZM78.7377 40V41.5H80.8197L80.1606 39.5251L78.7377 40ZM65.8937 40H64.3937V41.5H65.8937V40ZM65.8937 1.52L67.3166 1.04508L64.3937 1.52H65.8937ZM102.242 25.076L101.18 26.1355L103.742 28.703V25.076H102.242ZM102.242 1.52V0.0199995H100.742V1.52H102.242ZM115.034 1.52H116.534V0.0199995H115.034V1.52ZM115.034 40V41.5H116.534V40H115.034ZM102.242 40L101.18 41.0595L101.619 41.5H102.242V40ZM78.7377 16.444L79.7996 15.3845L77.2377 12.817V16.444H78.7377ZM78.7377 40V41.5H80.2377V40H78.7377ZM65.8937 40H64.3937V41.5H65.8937V40ZM65.8937 1.52V0.0199995H64.3937V1.52H65.8937ZM78.7377 1.52L79.7996 0.460512L79.36 0.0199995H78.7377V1.52ZM78.7377 38.5H65.8937V41.5H78.7377V38.5ZM67.3937 40V1.52H64.3937V40H67.3937ZM64.4709 1.99492L77.3149 40.4749L80.1606 39.5251L67.3166 1.04508L64.4709 1.99492ZM115.034 38.5H102.242V41.5H115.034V38.5ZM102.242 41.5H115.034V38.5H102.242V41.5ZM103.742 25.076V1.52H100.742V25.076H103.742ZM102.242 3.02H115.034V0.0199995H102.242V3.02ZM113.534 1.52V40H116.534V1.52H113.534ZM115.034 38.5H102.242V41.5H115.034V38.5ZM103.304 38.9405L79.7996 15.3845L77.6759 17.5035L101.18 41.0595L103.304 38.9405ZM77.2377 16.444V40H80.2377V16.444H77.2377ZM78.7377 38.5H65.8937V41.5H78.7377V38.5ZM67.3937 40V1.52H64.3937V40H67.3937ZM65.8937 3.02H78.7377V0.0199995H65.8937V3.02ZM77.6759 2.57949L101.18 26.1355L103.304 24.0165L79.7996 0.460512L77.6759 2.57949ZM142.61 19.148L141.623 18.0184L140.412 19.0767L141.552 20.2113L142.61 19.148ZM163.566 40V41.5H167.2L164.624 38.9367L163.566 40ZM147.81 40L146.732 41.0431L147.175 41.5H147.81V40ZM132.21 23.88L133.288 22.8369L130.71 20.173V23.88H132.21ZM132.21 40V41.5H133.71V40H132.21ZM119.366 40H117.866V41.5H119.366V40ZM119.366 1.52V0.0199995H117.866V1.52H119.366ZM132.21 1.52H133.71V0.0199995H132.21V1.52ZM132.21 14.884H130.71V18.2805L133.221 15.9927L132.21 14.884ZM146.874 1.52V0.0199995H146.293L145.864 0.411335L146.874 1.52ZM162.786 1.52L163.773 2.64959L166.783 0.0199995H162.786V1.52ZM141.552 20.2113L162.508 41.0633L164.624 38.9367L143.668 18.0847L141.552 20.2113ZM163.566 38.5H147.81V41.5H163.566V38.5ZM148.888 38.9569L133.288 22.8369L131.132 24.9231L146.732 41.0431L148.888 38.9569ZM130.71 23.88V40H133.71V23.88H130.71ZM132.21 38.5H119.366V41.5H132.21V38.5ZM120.866 40V1.52H117.866V40H120.866ZM119.366 3.02H132.21V0.0199995H119.366V3.02ZM130.71 1.52V14.884H133.71V1.52H130.71ZM133.221 15.9927L147.885 2.62866L145.864 0.411335L131.2 13.7753L133.221 15.9927ZM146.874 3.02H162.786V0.0199995H146.874V3.02ZM161.799 0.390413L141.623 18.0184L143.597 20.2776L163.773 2.64959L161.799 0.390413ZM189.902 17.12V15.6199L189.888 15.6201L189.902 17.12ZM198.794 17.848L198.511 19.3212L198.523 19.3234L198.534 19.3254L198.794 17.848ZM205.19 20.812L204.188 21.9281L204.193 21.9331L204.199 21.9381L205.19 20.812ZM200.614 38.388L201.164 39.7835L201.169 39.7814L200.614 38.388ZM168.218 38.336L167.678 39.7353L167.686 39.7385L168.218 38.336ZM160.678 27.312L160.672 25.812L159.178 25.8179V27.312H160.678ZM173.938 27.26H175.438V25.7541L173.932 25.76L173.938 27.26ZM177.162 31.836L176.722 33.2702L176.736 33.2744L176.75 33.2783L177.162 31.836ZM191.826 31.576L191.265 30.1849L191.256 30.1885L191.826 31.576ZM192.97 25.388L192.413 26.7807L192.413 26.7807L192.97 25.388ZM189.07 24.504L188.958 25.9998L188.958 25.9998L189.07 24.504ZM184.078 24.296L184.105 22.7962L184.091 22.796H184.078V24.296ZM170.402 23.62L170.14 25.097L170.151 25.0989L170.161 25.1006L170.402 23.62ZM163.486 20.5L162.513 21.6419L162.513 21.6419L163.486 20.5ZM167.958 2.872L168.435 4.29402L168.441 4.29197L167.958 2.872ZM207.79 14.26V15.76H209.29V14.26H207.79ZM194.738 14.26H193.238V15.76H194.738V14.26ZM191.774 10.412L191.162 11.7817L191.177 11.7882L191.192 11.7945L191.774 10.412ZM184.65 8.956L184.705 7.45703L184.678 7.456H184.65V8.956ZM177.058 16.392L177.416 14.9354L177.416 14.9354L177.058 16.392ZM184.234 17.172V18.6721L184.248 18.6719L184.234 17.172ZM189.902 18.62C193.232 18.62 196.098 18.8583 198.511 19.3212L199.076 16.3748C196.429 15.8671 193.366 15.62 189.902 15.62V18.62ZM198.534 19.3254C200.863 19.7345 202.726 20.6156 204.188 21.9281L206.192 19.6959C204.256 17.9577 201.855 16.8629 199.053 16.3706L198.534 19.3254ZM204.199 21.9381C205.528 23.1074 206.29 24.866 206.29 27.468H209.29C209.29 24.246 208.319 21.5673 206.181 19.6859L204.199 21.9381ZM206.29 27.468C206.29 29.9306 205.744 31.8806 204.742 33.4042C203.744 34.9231 202.218 36.1338 200.059 36.9946L201.169 39.7814C203.794 38.7355 205.856 37.1729 207.249 35.0518C208.64 32.9354 209.29 30.3787 209.29 27.468H206.29ZM200.064 36.9925C195.516 38.7853 190.368 39.696 184.598 39.696V42.696C190.684 42.696 196.214 41.7347 201.164 39.7835L200.064 36.9925ZM184.598 39.696C178.869 39.696 173.591 38.7698 168.75 36.9335L167.686 39.7385C172.898 41.7156 178.54 42.696 184.598 42.696V39.696ZM168.758 36.9367C166.468 36.052 164.853 34.8154 163.801 33.2772C162.749 31.7386 162.178 29.7796 162.178 27.312H159.178C159.178 30.2524 159.864 32.8348 161.325 34.9708C162.786 37.1073 164.942 38.6786 167.678 39.7353L168.758 36.9367ZM160.684 28.812L173.944 28.76L173.932 25.76L160.672 25.812L160.684 28.812ZM172.438 27.26C172.438 28.6782 172.758 29.9834 173.518 31.0619C174.284 32.1491 175.397 32.8639 176.722 33.2702L177.601 30.4018C176.778 30.1494 176.279 29.7723 175.97 29.3341C175.655 28.8872 175.438 28.2338 175.438 27.26H172.438ZM176.75 33.2783C179.099 33.9496 181.792 34.272 184.806 34.272V31.272C181.996 31.272 179.592 30.9704 177.574 30.3937L176.75 33.2783ZM184.806 34.272C187.683 34.272 190.228 33.854 192.396 32.9635L191.256 30.1885C189.542 30.8927 187.406 31.272 184.806 31.272V34.272ZM192.387 32.967C193.551 32.4973 194.543 31.832 195.243 30.9106C195.956 29.9723 196.29 28.8691 196.29 27.676H193.29C193.29 28.2855 193.13 28.7337 192.855 29.0954C192.567 29.474 192.077 29.8573 191.265 30.185L192.387 32.967ZM196.29 27.676V27.624H193.29V27.676H196.29ZM196.29 27.624C196.29 26.7936 196.03 26.0173 195.498 25.3641C194.986 24.7353 194.289 24.3 193.527 23.9953L192.413 26.7807C192.864 26.9613 193.077 27.1414 193.172 27.2579C193.247 27.35 193.29 27.4491 193.29 27.624H196.29ZM193.527 23.9953C192.163 23.4495 190.712 23.1229 189.182 23.0082L188.958 25.9998C190.202 26.0931 191.351 26.3558 192.413 26.7807L193.527 23.9953ZM189.182 23.0082C187.758 22.9014 186.064 22.8312 184.105 22.7962L184.051 25.7958C185.974 25.8301 187.608 25.8986 188.958 25.9998L189.182 23.0082ZM184.078 22.796H180.178V25.796H184.078V22.796ZM180.178 22.796C176.49 22.796 173.315 22.5737 170.643 22.1394L170.161 25.1006C173.035 25.5676 176.378 25.796 180.178 25.796V22.796ZM170.664 22.143C168.152 21.698 166.102 20.7581 164.459 19.3581L162.513 21.6419C164.614 23.4312 167.174 24.5713 170.14 25.097L170.664 22.143ZM164.459 19.3581C163.007 18.1219 162.178 16.236 162.178 13.428H159.178C159.178 16.86 160.221 19.6888 162.513 21.6419L164.459 19.3581ZM162.178 13.428C162.178 10.9474 162.733 9.03437 163.733 7.5846C164.728 6.14195 166.254 5.02644 168.435 4.294L167.481 1.44999C164.809 2.34689 162.695 3.80538 161.263 5.8814C159.836 7.9503 159.178 10.5006 159.178 13.428H162.178ZM168.441 4.29197C173.146 2.69042 178.525 1.876 184.598 1.876V-1.124C178.26 -1.124 172.546 -0.274422 167.475 1.45202L168.441 4.29197ZM184.598 1.876C190.256 1.876 195.388 2.80172 200.01 4.63078L201.114 1.84122C196.099 -0.143054 190.588 -1.124 184.598 -1.124V1.876ZM200.01 4.63078C202.185 5.49127 203.722 6.70962 204.729 8.24447C205.738 9.78485 206.29 11.7609 206.29 14.26H209.29C209.29 11.3164 208.637 8.73382 207.237 6.59953C205.834 4.45972 203.758 2.88739 201.114 1.84122L200.01 4.63078ZM207.79 12.76H194.738V15.76H207.79V12.76ZM196.238 14.26C196.238 13.0871 195.896 12.0054 195.185 11.0827C194.49 10.1797 193.508 9.51463 192.356 9.02955L191.192 11.7945C192.016 12.1414 192.516 12.5336 192.809 12.9133C193.086 13.2732 193.238 13.6995 193.238 14.26H196.238ZM192.385 9.04229C190.222 8.0766 187.647 7.56597 184.705 7.45703L184.594 10.455C187.269 10.554 189.443 11.0141 191.162 11.7817L192.385 9.04229ZM184.65 7.456C181.529 7.456 178.81 7.81352 176.532 8.57297L177.48 11.419C179.362 10.7918 181.739 10.456 184.65 10.456V7.456ZM176.532 8.57297C175.357 8.96443 174.328 9.51461 173.58 10.3005C172.798 11.1218 172.386 12.1365 172.386 13.272H175.386C175.386 12.9168 175.494 12.6402 175.752 12.3695C176.044 12.0634 176.575 11.7209 177.48 11.419L176.532 8.57297ZM172.386 13.272C172.386 14.4309 172.796 15.4735 173.627 16.2914C174.418 17.069 175.495 17.5524 176.7 17.8486L177.416 14.9354C176.506 14.7116 175.998 14.415 175.731 14.1526C175.505 13.9305 175.386 13.6731 175.386 13.272H172.386ZM176.7 17.8486C178.954 18.403 181.47 18.672 184.234 18.672V15.672C181.659 15.672 179.391 15.421 177.416 14.9354L176.7 17.8486ZM184.248 18.6719L189.916 18.6199L189.888 15.6201L184.22 15.6721L184.248 18.6719ZM260.685 40V41.5H263.203L262.003 39.2853L260.685 40ZM247.737 40L246.418 40.7161L246.844 41.5H247.737V40ZM244.149 33.396L245.467 32.6799L245.041 31.896H244.149V33.396ZM222.361 33.396V31.896H221.468L221.042 32.6799L222.361 33.396ZM218.773 40V41.5H219.665L220.091 40.7161L218.773 40ZM205.824 40L204.506 39.2853L203.306 41.5H205.824V40ZM226.677 1.52V0.0199995H225.783L225.358 0.805345L226.677 1.52ZM239.833 1.52L241.151 0.805345L240.726 0.0199995H239.833V1.52ZM233.281 13.272L234.6 12.5583L233.286 10.1294L231.964 12.5537L233.281 13.272ZM227.041 24.712L225.724 23.9937L224.514 26.212H227.041V24.712ZM239.469 24.712V26.212H241.985L240.788 23.9983L239.469 24.712ZM260.685 38.5H247.737V41.5H260.685V38.5ZM249.055 39.2839L245.467 32.6799L242.83 34.1121L246.418 40.7161L249.055 39.2839ZM244.149 31.896H222.361V34.896H244.149V31.896ZM221.042 32.6799L217.454 39.2839L220.091 40.7161L223.679 34.1121L221.042 32.6799ZM218.773 38.5H205.824V41.5H218.773V38.5ZM207.143 40.7147L227.995 2.23465L225.358 0.805345L204.506 39.2853L207.143 40.7147ZM226.677 3.02H239.833V0.0199995H226.677V3.02ZM238.514 2.23465L259.366 40.7147L262.003 39.2853L241.151 0.805345L238.514 2.23465ZM231.964 12.5537L225.724 23.9937L228.357 25.4303L234.597 13.9903L231.964 12.5537ZM227.041 26.212H239.469V23.212H227.041V26.212ZM240.788 23.9983L234.6 12.5583L231.961 13.9857L238.149 25.4257L240.788 23.9983ZM274.652 1.52H276.152V0.0199995H274.652V1.52ZM274.652 30.12H273.152V31.62H274.652V30.12ZM298.884 30.12H300.384V28.62H298.884V30.12ZM298.884 40V41.5H300.384V40H298.884ZM261.808 40H260.308V41.5H261.808V40ZM261.808 1.52V0.0199995H260.308V1.52H261.808ZM273.152 1.52V30.12H276.152V1.52H273.152ZM274.652 31.62H298.884V28.62H274.652V31.62ZM297.384 30.12V40H300.384V30.12H297.384ZM298.884 38.5H261.808V41.5H298.884V38.5ZM263.308 40V1.52H260.308V40H263.308ZM261.808 3.02H274.652V0.0199995H261.808V3.02ZM339.25 25.024V26.524H340.75V25.024H339.25ZM315.226 25.024V23.524H313.726V25.024H315.226ZM315.226 30.9H313.726V32.411L315.237 32.4L315.226 30.9ZM343.618 30.692H345.118V29.181L343.607 29.192L343.618 30.692ZM343.618 40V41.5H345.118V40H343.618ZM302.382 40H300.882V41.5H302.382V40ZM302.382 1.52V0.0199995H300.882V1.52H302.382ZM343.618 1.52L345.118 1.51162L345.11 0.0199995H343.618V1.52ZM343.67 10.828V12.328H345.178L345.17 10.8196L343.67 10.828ZM315.226 10.828V9.328H313.726V10.828H315.226ZM315.226 15.924H313.726V17.424H315.226V15.924ZM339.25 15.924H340.75V14.424H339.25V15.924ZM339.25 23.524H315.226V26.524H339.25V23.524ZM313.726 25.024V30.9H316.726V25.024H313.726ZM315.237 32.4L343.629 32.192L343.607 29.192L315.215 29.4L315.237 32.4ZM342.118 30.692V40H345.118V30.692H342.118ZM343.618 38.5H302.382V41.5H343.618V38.5ZM303.882 40V1.52H300.882V40H303.882ZM302.382 3.02H343.618V0.0199995H302.382V3.02ZM342.118 1.52838L342.17 10.8364L345.17 10.8196L345.118 1.51162L342.118 1.52838ZM343.67 9.328H315.226V12.328H343.67V9.328ZM313.726 10.828V15.924H316.726V10.828H313.726ZM315.226 17.424H339.25V14.424H315.226V17.424ZM337.75 15.924V25.024H340.75V15.924H337.75Z" fill="white"/>
</svg>
